<?xml version="1.0" encoding="UTF-8" standalone="no"?>
<!-- Created with Inkscape (http://www.inkscape.org/) -->

<svg
   xmlns:dc="http://purl.org/dc/elements/1.1/"
   xmlns:cc="http://creativecommons.org/ns#"
   xmlns:rdf="http://www.w3.org/1999/02/22-rdf-syntax-ns#"
   xmlns:svg="http://www.w3.org/2000/svg"
   xmlns="http://www.w3.org/2000/svg"
   xmlns:sodipodi="http://sodipodi.sourceforge.net/DTD/sodipodi-0.dtd"
   xmlns:inkscape="http://www.inkscape.org/namespaces/inkscape"
   version="1.1"
   id="svg17"
   width="100mm"
   height="333mm"
   viewBox="0 0 100 333"
   sodipodi:docname="Madzi.svg"
   inkscape:version="0.92.4 (5da689c313, 2019-01-14)">
  <metadata
     id="metadata23">
    <rdf:RDF>
      <cc:Work
         rdf:about="">
        <dc:format>image/svg+xml</dc:format>
        <dc:type
           rdf:resource="http://purl.org/dc/dcmitype/StillImage" />
        <dc:title></dc:title>
      </cc:Work>
    </rdf:RDF>
  </metadata>
  <defs
     id="defs21" />
  <sodipodi:namedview
     pagecolor="#ffffff"
     bordercolor="#666666"
     borderopacity="1"
     objecttolerance="10"
     gridtolerance="10"
     guidetolerance="10"
     inkscape:pageopacity="0"
     inkscape:pageshadow="2"
     inkscape:window-width="1299"
     inkscape:window-height="745"
     id="namedview19"
     showgrid="false"
     inkscape:document-units="mm"
     units="mm"
     inkscape:pagecheckerboard="true"
     inkscape:zoom="0.3337544"
     inkscape:cx="-43.318144"
     inkscape:cy="-286.55381"
     inkscape:window-x="59"
     inkscape:window-y="-8"
     inkscape:window-maximized="1"
     inkscape:current-layer="g434" />
  <g
     inkscape:groupmode="layer"
     id="layer1"
     inkscape:label="Layer 1">
    <g
       id="g56"
       gcodetools="Gcodetools orientation group">
      <g
         id="g46"
         gcodetools="Gcodetools orientation point (2 points)">
        <path
           id="path40"
           style="stroke:none;fill:#000000;"
           gcodetools="Gcodetools orientation point arrow"
           d="m 0.0,333.0 2.9375,-6.343750000001 0.8125,1.90625 6.843748640396,-6.84374864039 0,0 0.6875,0.6875 -6.84375,6.84375 1.90625,0.812500000001 z z" />
        <text
           id="text44"
           xml:space="preserve"
           y="323.0"
           x="10.0"
           style="font-family:DejaVu Sans;font-style:normal;font-variant:normal;font-weight:normal;font-stretch:normal;font-family:DejaVu Sans;fill:#000000;fill-opacity:1;stroke:none;font-size:10.000000px;"
           gcodetools="Gcodetools orientation point text"><tspan
             id="tspan42"
             sodipodi:role="line"
             y="323.0"
             x="10.0">(0.0; 0.0; 0.0)</tspan></text>
      </g>
      <g
         id="g54"
         gcodetools="Gcodetools orientation point (2 points)">
        <path
           id="path48"
           style="stroke:none;fill:#000000;"
           gcodetools="Gcodetools orientation point arrow"
           d="m 100.0,333.0 2.9375,-6.343750000001 0.8125,1.90625 6.843748640396,-6.84374864039 0,0 0.6875,0.6875 -6.84375,6.84375 1.90625,0.812500000001 z z" />
        <text
           id="text52"
           xml:space="preserve"
           y="323.0"
           x="110.0"
           style="font-family:DejaVu Sans;font-style:normal;font-variant:normal;font-weight:normal;font-stretch:normal;font-family:DejaVu Sans;fill:#000000;fill-opacity:1;stroke:none;font-size:10.000000px;"
           gcodetools="Gcodetools orientation point text"><tspan
             id="tspan50"
             sodipodi:role="line"
             y="323.0"
             x="110.0">(100.0; 0.0; -0.125)</tspan></text>
      </g>
    </g>
    <path
       style="fill:#000000;stroke-width:0.19812037"
       d="m 8.8164534,323.88475 c -1.4681559,-3.92269 -0.2286793,-8.27884 -0.3093637,-12.59643 0.9128079,-3.36674 1.2867116,-7.60639 1.8795973,-10.2646 1.064652,-2.94474 4.121882,-6.94934 1.616922,-9.01504 2.781488,-2.54937 -1.626349,0.31082 -0.243835,-2.90069 -2.7323955,-1.48867 0.216511,-0.31504 1.313789,-1.7842 3.134552,2.38398 -1.690036,-3.63191 1.470949,-0.80033 2.079118,-1.96529 -1.453854,-3.47538 2.171147,-4.12611 -0.98709,-2.59686 2.060173,-6.01644 0.079,-7.10767 2.168271,1.46675 3.05842,-4.394 4.347528,-0.85568 3.724607,-1.27374 4.488499,-5.23701 4.100196,-8.69335 -0.46281,-2.73676 1.846687,-4.74982 2.584917,-7.22273 1.946467,-1.86085 0.560201,-4.74348 0.409855,-5.84455 1.906607,-0.46133 3.177361,-6.45162 3.787095,-9.30995 1.330952,-4.30422 1.809854,-9.54075 5.759277,-12.3701 2.600979,-1.51376 7.514451,-3.06779 4.323289,-3.57561 2.758896,-0.99737 5.431027,-2.1464 7.245621,-2.03646 -2.286884,0.83634 -0.959983,4.78475 1.333984,2.28494 1.218023,-2.37424 2.459237,-2.49795 5.296661,-2.30063 2.057829,2.67722 1.649503,0.40903 1.515151,0.22425 3.946271,3.87692 5.11333,9.56072 6.869703,14.60197 -3.407082,-3.72188 -6.202864,-8.16396 -10.628853,-10.90082 2.403623,0.005 6.855992,5.35303 7.915357,5.02783 -1.126181,-3.59922 -4.105205,-6.74658 -7.169766,-8.27902 -1.894709,2.21689 -4.681071,5.62852 -8.60785,3.54741 -4.54183,-1.27917 -10.11931,1.98909 -11.197785,6.68301 -0.505859,5.51729 -0.531288,11.13437 -1.616547,16.57163 -1.106818,3.817 -0.792909,-3.69672 -2.381915,0.90582 -0.102131,2.69466 -2.47828,9.25296 -1.645145,9.55781 -0.155101,-1.92407 1.325687,-6.44715 0.869189,-1.87703 -0.20754,2.62325 -1.413328,7.21339 -1.559009,8.78237 0.923921,-3.35761 1.739271,-6.37714 3.021811,-8.52091 0.576091,4.20351 2.823137,7.58753 5.170951,10.9241 0.275795,2.33336 0.133955,5.30162 -1.603421,2.00462 0.354569,-2.39881 -2.036526,-7.66881 -1.762776,-2.30163 -0.04747,3.19859 -1.066404,0.5126 -1.666036,0.56467 -1.235066,0.94536 1.187149,0.99163 1.369073,3.24138 0.924819,-1.97374 0.486016,-8.80893 1.549956,-3.11011 0.42349,2.40427 -0.19684,5.26805 1.525807,4.02801 1.051532,3.92335 1.700624,-3.77806 0.812624,-5.09507 -0.832535,-2.3618 -1.960267,-7.46121 -3.642148,-7.91417 0.426702,4.76223 -1.81046,-3.68127 -1.260346,-5.05192 0.297188,-3.89018 3.375684,-6.9062 2.694199,-11.02514 0.282953,-3.20331 6.447328,-0.81739 7.117769,1.8625 -1.238616,0.60844 -5.656652,2.36737 -2.069234,1.38837 3.6569,0.43789 -2.919771,1.17395 -2.649405,2.72271 0.101336,1.87413 -0.127141,4.11463 2.736971,3.72697 2.410115,-1.79379 -0.194729,2.20635 1.085963,2.23694 1.97856,3.61403 9.534331,-0.36257 9.948865,0.88741 -3.665234,0.79766 -1.834923,5.4772 -6.122824,4.10056 -4.454915,0.29333 1.685948,4.96572 4.038322,3.2115 1.902923,0.17859 8.55577,-4.81855 4.100099,-0.82863 -3.209718,1.26972 -4.303064,5.08049 -5.138415,7.72645 -2.483184,0.18468 -1.233958,3.66387 -3.05908,4.70047 2.537338,1.75829 6.82598,-3.88831 7.848242,-1.61038 -2.164273,0.7773 -8.516772,5.09569 -2.975116,4.88422 2.6022,0.83595 5.20953,-2.21436 6.06569,-1.63999 1.286053,-5.94234 7.868459,-2.41621 10.713708,-6.82645 3.109595,-4.7607 5.612622,-0.37641 8.656433,1.58494 3.969252,2.36416 7.497439,5.76518 9.708707,9.8968 1.754268,1.79632 2.202798,4.04246 2.850017,4.81032 0.597694,0.99614 1.621311,3.20763 2.191597,4.41684 0.330144,1.54006 1.210131,2.55372 1.176367,5.10101 -0.238204,3.40212 0.483852,6.00976 0.194407,7.39412 0.766542,2.6235 0.30177,7.51491 0.411628,10.94056 0.438339,2.45829 -0.810026,5.78957 -0.146587,1.8953 -1.874595,1.87989 -1.24328,-0.4839 -0.06013,-1.14365 -0.0096,-1.94237 0.248343,-4.11325 -0.449062,-3.52214 -1.506802,-1.4936 -1.080976,-9.22589 -3.396344,-5.56361 0.212625,1.58434 -4.985813,2.68341 -1.873442,-0.17949 2.643482,-2.72471 4.369558,-7.03418 3.219295,-10.64123 -0.20772,-2.13966 2.509175,-0.54243 0.940334,-3.305 -3.004094,-3.77009 -8.587436,-2.95034 -10.566266,1.26903 -1.204372,2.3251 -5.625569,5.40996 -3.1046,1.26324 1.684443,-1.96348 2.53769,-8.69473 -0.639387,-4.32228 0.157236,-1.90275 1.391815,-7.8356 -1.553887,-3.47914 -1.531738,3.44919 -5.023645,5.91336 -5.126,9.7106 -2.584176,0.31213 -5.168966,-0.0792 -4.539456,3.79632 -0.634632,1.28932 1.699719,4.05602 0.08392,4.06405 -0.948309,-3.31884 -0.261785,-7.06893 0.343816,-10.42183 0.09127,-3.09632 1.344512,-7.21111 1.878737,-10.58531 0.814421,-3.15805 0.895495,-6.8433 1.200051,-10.67987 -2.268994,-1.42701 -1.536896,2.61263 -1.8575,3.7861 -0.479284,0.90253 -0.219042,0.54473 -0.261574,2.77227 -0.751941,1.19656 -1.228185,3.45835 -0.870381,3.79825 -0.222449,2.78674 -0.85914,3.53877 -1.134193,5.63927 -0.149426,0.60963 -0.747666,5.6412 -1.150728,6.76469 -0.131124,3.42015 -0.51641,5.43284 -1.254243,7.53883 -0.09514,1.56508 -0.808424,6.43322 -1.674087,5.68089 0.644704,2.39702 -1.228064,3.29113 -1.191455,3.83902 -0.608394,1.96316 0.215448,4.08876 2.36124,2.94342 -0.04403,1.29145 1.756643,-2.29767 0.947463,-1.9488 0.804582,-1.98678 1.485573,-9.74616 2.288201,-8.04083 -1.04534,0.8383 -1.022164,3.46482 -0.518739,1.87942 -0.812744,2.05434 -0.138769,3.93932 -1.278923,5.4808 1.076887,1.47937 0.963509,-6.76891 3.191446,-6.50533 0.266749,2.79731 1.425354,-2.08385 -0.57263,-0.74234 0.458571,-2.08262 2.58923,1.01002 2.957196,-2.54049 1.081373,-4.16616 2.544122,-7.86864 4.4628,-11.71995 3.372734,-3.47898 -0.547568,2.25273 1.033629,3.06663 0.455127,2.67995 -1.451016,4.64825 0.07181,7.54737 1.266606,4.7889 6.449582,-8.3404 6.260477,-2.27887 -0.425085,2.59681 1.17752,3.97308 3.88096,3.8699 0.763262,2.14716 -4.928576,3.11065 -0.645176,2.50913 0.334434,1.712 -9.399493,4.81743 -2.846672,4.25592 3.071735,-0.34674 3.817887,4.59661 1.37913,5.90726 2.806049,2.35607 2.855111,-2.87239 4.325901,-4.19906 3.223811,1.75781 -0.243783,3.37157 -1.217669,5.48107 -1.51936,1.67273 -4.575332,0.60554 -1.071803,1.63133 1.940047,0.46725 8.622982,-0.83237 7.652508,1.18019 -12.138364,-0.0586 -24.28332,0.14633 -36.416354,-0.1538 -0.466007,-3.9066 2.590421,-8.13499 4.207448,-11.74768 -0.104841,-2.63979 1.97114,-4.10515 2.051839,-4.03363 0.660302,-3.69752 -3.580678,2.2327 -3.707946,-1.97353 -2.218292,0.51282 -1.506405,2.90568 -4.096355,2.43417 2.133609,1.24959 -3.512319,0.52457 -2.347185,3.08175 -2.21934,2.22547 -1.762543,6.8081 -2.89154,10.2452 0.364596,3.5421 -3.008527,1.85604 -0.857231,-0.1033 -0.916043,-2.03493 1.995416,-7.50356 -1.525875,-7.88738 1.560896,1.35262 -2.767822,2.75849 -1.839468,5.25481 -0.744416,1.91297 -0.331709,6.54367 -3.153333,4.50726 -1.663026,0.93454 0.475286,-3.13386 -0.637238,-4.02445 1.975506,-2.87152 -4.044656,-1.82976 -0.76667,-4.15649 3.074131,-1.62627 -2.909047,-1.46899 -0.259058,-4.19189 0.476805,-1.83209 -2.021273,1.6231 -1.33853,-2.01101 0.33731,4.24423 -0.04725,8.6736 1.186349,12.78792 -1.146766,4.56302 -3.632908,-0.32994 -2.064097,-2.84714 0.171994,-3.4291 0.621221,-9.94042 -0.47396,-11.45195 0.02831,1.40719 0.0045,3.72342 -1.654969,3.14689 2.497239,2.01921 0.621453,0.41866 1.554254,0.4106 0.955969,2.61289 -1.765643,2.53917 -2.561862,2.27166 0.06268,3.18206 -1.271016,-2.81666 0.737347,-2.25381 -2.245324,-0.71962 1.178007,-6.27649 1.599752,-8.93085 1.330674,-2.49341 1.007592,-7.87006 2.607831,-8.91161 -0.448291,1.84041 1.523568,5.81062 1.302579,3.32932 -3.612556,-2.86528 2.784281,-4.4277 0.99627,-7.03561 2.682121,-0.2724 -2.32165,-3.79243 1.388393,-4.2904 2.833597,-2.43652 -3.499328,-6.52451 -3.508628,-1.64136 -4.046544,1.96302 -6.003838,7.04608 -8.725998,10.54664 -2.365703,2.39427 -0.09081,9.03706 -1.296116,9.72441 -1.34437,-0.43672 -1.830109,6.08091 -2.47476,8.2885 -1.480676,2.52901 0.275008,4.05269 -0.473458,5.74035 -1.776254,0.59589 -2.457702,-3.24078 -3.363157,-2.77701 -1.253075,-2.89202 -1.875449,3.2552 -1.26069,4.21716 -1.943202,-1.34157 -1.499763,2.81347 -2.992158,3.51891 2.130486,2.0094 -8.7901108,0.81499 -4.547416,-0.34347 2.590249,-0.5001 -2.251008,-1.18027 -1.374487,1.19406 -0.461036,-0.64841 -1.882608,0.75683 -3.0710682,-0.44143 z m 9.3165626,-1.47301 c -0.506189,-0.71075 -0.506189,0.71075 0,0 z m -7.231394,-0.89154 c -1.4991717,-1.86649 -1.6133953,1.8811 0,0 z m -0.9453437,0.17733 c -0.011681,-1.15805 1.6705297,0.2559 0,0 z m 3.9837787,-0.57746 c -1.076783,-3.73063 -0.269984,3.05977 0,0 z m 46.491657,-0.47499 c -0.718364,-0.70959 -0.431412,0.84715 -1.134246,-0.728 -0.944273,0.65389 0.766056,1.59217 1.134246,0.728 z m -2.278384,-0.21454 c -0.151724,-1.55634 -0.756478,0.42401 0,0 z m -39.624074,-1.01399 c -0.497382,-0.48556 -0.376517,1.06623 0,0 z m 39.160927,-0.81862 c -0.343689,-0.0641 0.207997,1.32381 0,0 z m -43.522608,-0.4953 c -0.546399,-2.14673 -0.515616,0.83954 0,0 z m 43.787635,-0.24766 c -0.506189,-0.71074 -0.506189,0.71075 0,0 z m -39.758411,-0.68672 c 2.06573,-0.73745 2.877561,-6.54241 4.438172,-3.45944 0.675817,-2.85551 1.998704,-4.52003 1.837882,-6.32171 1.807809,-1.79527 3.599264,-3.23031 2.502615,-6.94207 0.09597,-0.53397 -0.766086,4.22671 -0.494979,0.79425 1.529798,-2.97821 -3.0981,0.50717 -0.260189,-0.71199 -0.818503,2.99442 -3.248596,2.36378 -4.319126,5.40316 1.640577,-2.09649 2.251629,-1.82536 2.656144,-0.55838 0.818114,-1.97999 1.993545,-4.18234 0.980239,-0.47423 -1.243064,2.44165 -3.050925,3.83978 -4.452654,4.10928 -1.611172,2.27892 -0.634797,8.32903 -4.536851,7.83605 -2.518116,-0.85873 0.680288,1.90047 1.648747,0.32508 z m 2.324077,-5.60359 c -0.506046,-4.58173 3.377115,-0.35767 0.168243,0.49938 z m 1.178306,0.6887 c 0.77141,-1.88065 3.550794,-4.3245 0.99982,-0.8257 l -0.482032,0.50141 z m 0.754877,-1.83248 c 0.238893,-3.52422 1.448275,-1.18272 0,0 z m 2.250139,-6.64257 c 1.007749,-1.67664 -0.366154,1.85974 0,0 z m -4.788099,12.7655 c -0.421229,-1.49414 -0.486076,2.04396 0,0 z m 5.080644,-1.60455 c 0.154697,-3.20363 -1.526234,4.97748 0,0 z m 37.254335,1.2936 c -0.339683,-0.34062 0.171043,1.10761 0,0 z m -45.168053,-0.6367 c 2.117675,-0.30676 2.662712,-4.17382 1.244584,-0.82575 -0.59353,-0.10281 -3.35146,2.24647 -1.244584,0.82575 z m 7.475289,-1.69439 c 0.928211,-2.17272 0.95585,-5.17911 -0.63711,-1.2956 -0.823041,1.2836 -0.283208,5.36638 0.63711,1.2956 z m -0.679808,0.28736 c 0.215284,-2.3826 1.678355,-3.10056 0.453301,-0.27482 0.12094,0.0458 -0.54989,0.95828 -0.453301,0.27482 z m 35.661667,0.0123 c -0.378547,-0.7052 -0.532936,0.35279 0,0 z M 9.5147794,313.49632 c 0.00869,-0.66619 -0.6082365,0.66001 0,0 z m 26.2126846,-0.30244 c -0.560694,0.383 -0.235328,0.86176 0,0 z m 4.191821,0.11733 c 0.930292,-4.85626 -4.024963,1.59346 0,0 z m -1.142124,-0.0526 c -0.23118,-3.28778 2.39266,-0.0428 0,0 z m -5.587933,-0.69586 c -0.530286,-0.86828 0.463536,1.98769 0,0 z m -21.990882,-0.9478 c 1.680069,-2.79481 -0.601685,-3.91531 -1.3534533,-0.76069 -1.3719937,2.1574 0.1984123,2.95384 1.3534533,0.76069 z m -0.792025,-1.1993 c 0.373776,-3.06391 2.136574,0.007 0.118177,0.2756 z m 24.269746,1.89198 c -0.98232,-0.38026 0.0456,1.29228 0,0 z M 19.334393,311.2504 c -0.492007,0.85464 -0.03212,2.29722 0.111984,0.32336 z m 40.60202,1.25531 c -0.544033,-0.73958 -0.179609,0.68336 0,0 z m 0.198121,-0.59436 c -0.506189,-0.71075 -0.506189,0.71075 0,0 z m 0.396241,-1.18872 c -0.544034,-0.73958 -0.17961,0.68335 0,0 z m 2.512784,-0.43339 c -0.339683,-0.34063 0.171043,1.1076 0,0 z m -23.412806,-0.93258 c -0.861911,-1.28261 0.493092,-4.72608 -1.131595,-1.34587 -0.01168,1.00915 -1.030581,3.58565 1.131595,1.34587 z m 20.924208,0.43975 c -0.720236,-0.89999 0.478962,1.55508 0,0 z m 30.684469,-0.53658 c -1.932748,-3.42324 -1.264884,2.73202 0,0 z m -27.44107,0.0782 c -0.147747,-0.46341 -0.838466,0.72649 0,0 z m -43.123289,-2.06138 c 2.543771,-1.6576 -0.724699,0.15279 -0.299868,-1.11081 -0.338845,2.00355 -2.498745,3.2784 0.299868,1.11081 z m 16.415948,-0.0707 c -0.30872,0.0124 0.182859,1.75338 0,0 z m 21.062311,0.32332 c -0.497382,-0.48557 -0.376517,1.06623 0,0 z m 6.471066,-0.42238 c -0.343689,-0.0641 0.207997,1.32381 0,0 z m -26.385884,-1.25104 c 0.701486,-2.69567 0.0435,-4.61533 -0.483657,-0.70408 -0.477105,1.77048 0.206529,3.38655 0.483657,0.70408 z m 26.25467,0.83601 c -1.026432,-1.20084 -0.958366,-0.56627 0,0 z m -27.077299,-1.31849 c 0.0077,-2.66163 -0.451615,3.32316 0,0 z m 24.044668,0.0533 c -0.339968,-0.23035 0.245722,1.629 0,0 z m 29.133951,-4.65019 c -0.183871,0.27074 0.01468,5.96588 0.02748,1.60928 l -0.0067,-0.85057 -0.02067,-0.75871 z m -26.753677,3.36095 c -0.331633,-0.21148 0.262534,2.13225 0,0 z m -4.498773,-0.26374 c -0.869594,-1.04912 -1.491885,1.18017 0,0 z m -21.662026,-0.53105 c -0.343689,-0.0641 0.207997,1.32382 0,0 z m 26.350009,-0.39624 c -0.343689,-0.064 0.207997,1.32382 0,0 z m -3.077298,-0.68836 c 4.172359,-3.0995 -9.404944,-2.77498 -3.36741,-1.51118 2.999766,-0.54824 0.336111,4.3605 3.36741,1.51118 z m -0.620083,-1.44143 c 0.429211,-0.82163 1.442756,1.04072 0,0 z m 1.524137,1.63826 c -0.339967,-0.23036 0.245723,1.629 0,0 z m -23.507178,-1.7336 c 0.620367,-1.74465 -0.366566,-6.28643 -0.259576,-2.01864 -0.02254,1.82931 -0.586588,6.5526 0.259576,2.01864 z m -14.445834,0.93736 c 0.612018,-0.89193 -1.105769,1.05462 0,0 z m -0.691175,-0.1877 c 1.423886,-1.19766 3.427389,-2.22698 0.366273,-0.72854 -1.479238,0.6441 -2.229299,1.12659 -0.366273,0.72854 z m 1.483656,-0.40666 c 0.612018,-0.89193 -1.105769,1.05462 0,0 z m 37.554818,-1.07728 c -0.339683,-0.34063 0.171043,1.1076 0,0 z m 2.180552,-0.50768 c -0.30872,0.0124 0.182859,1.75338 0,0 z m -38.496327,-0.55513 c 0.0164,-0.83393 -0.587847,0.98788 0,0 z m 1.248469,-0.32404 c -0.339683,-0.34062 0.171044,1.10761 0,0 z m 35.266654,-0.7058 c -0.30872,0.0124 0.18286,1.75339 0,0 z m -17.967401,0.54483 c -1.682593,-0.6938 0.725627,0.75586 0,0 z m -17.904119,-0.64389 c 1.080152,-2.469 0.558036,-2.80476 -0.119503,-0.19812 l -0.289528,0.81964 z m 1.972989,-2.22885 c 1.637035,-1.9336 1.320243,-5.59932 -0.141451,-1.90434 -2.501395,3.81311 2.765216,-3.45977 0.375162,0.62583 -0.492538,1.42742 -2.421557,5.84416 -0.571897,2.13913 z m 36.274747,1.44875 c -0.339683,-0.34063 0.171044,1.1076 0,0 z m -2.18345,-0.40862 c -0.343689,-0.0641 0.207998,1.32382 0,0 z M 40.061596,296.2227 c -0.339683,-0.34063 0.171044,1.1076 0,0 z m 24.963167,-0.19812 c -0.339683,-0.34063 0.171043,1.1076 0,0 z m -25.395687,0.0371 c 0.0087,-0.6662 -0.608237,0.66 0,0 z m 23.217591,-0.74295 c -0.30872,0.0124 0.182859,1.75339 0,0 z m -23.977919,-0.4953 c -0.343689,-0.064 0.207997,1.32382 0,0 z m 1.887692,-0.44577 c 0.107492,-0.9296 -0.913287,2.29559 0,0 z m -14.458069,-0.55712 c 1.879478,-2.11384 1.36157,-2.85537 -0.191014,-0.28273 -0.514014,0.42743 -1.547889,1.76718 -0.317878,0.70134 z m 13.473308,0.25121 c -0.438174,-2.5859 -0.845782,2.11289 0,0 z m 2.98181,-3.37609 c 1.418075,-0.88875 5.749968,-3.30683 1.93772,-1.36347 -2.596389,0.53339 -5.53661,6.39258 -2.331789,1.69736 z m 22.861509,2.14657 c -0.343689,-0.0641 0.207997,1.32381 0,0 z m -19.077161,-1.44351 c 3.135323,-0.57705 6.253858,-1.41461 9.366178,-3.1152 2.455425,-2.44977 8.310946,-2.71751 9.251632,-5.19872 -2.49148,-1.21401 -7.055932,4.51148 -11.162845,3.82422 -3.593655,0.99642 -7.479534,1.49263 -10.61935,3.76808 -3.717045,2.77928 2.092716,1.31332 3.164385,0.72162 z m -1.603452,-0.6777 c 1.307941,-1.39018 3.876931,0.27818 0,0 z m 3.511047,-1.35559 c 2.092215,-1.51782 1.71736,0.24594 0,0 z m 3.103888,-0.56813 c 0.827736,-1.72689 4.029995,-0.47388 0.751889,0.10607 l -0.451698,0.0188 z m 14.267924,3.06674 c -0.339683,-0.34062 0.171044,1.10761 0,0 z m -38.03911,-0.9906 c -0.339684,-0.34063 0.171043,1.1076 0,0 z m -11.803132,-1.96687 c 3.609965,-0.34755 5.115539,-5.72732 4.203907,-9.03708 -1.652356,1.60934 -3.131722,3.18229 -2.083199,4.36258 -0.134374,0.88344 -4.937689,6.39232 -2.120708,4.6745 z m 8.126897,0.27047 c 0.662728,-0.94588 -1.205503,1.16734 0,0 z m -10.327532,-0.20803 c -1.470058,-2.7457 -1.439866,1.6018 0,0 z m 72.429655,-0.33918 c -2.128471,-2.09346 -4.077094,-6.83846 -6.063914,-7.63383 -0.271226,1.64755 -6.410487,-1.66041 -7.305166,-2.1036 0.919869,-2.23566 5.284088,-0.32841 2.083708,-2.16642 -0.926368,0.94228 -7.836282,5.22945 -2.332605,4.01357 4.320129,-0.12968 8.336024,2.63655 11.468509,5.42079 0.370834,0.13117 3.090206,4.6292 2.149468,2.46949 z m -4.738526,-5.77614 c -0.608401,-0.99082 0.78423,0.20217 0,0 z m -38.197701,5.43181 c -1.155715,-1.25022 -0.535595,1.40639 0,0 z m 1.35969,0.12795 c -0.729386,-0.2247 -0.363952,0.34504 0,0 z m 3.052078,-0.38937 c 6.002446,0.47827 7.590119,-5.21023 10.192065,-9.28209 1.390369,-1.91895 5.885443,-0.26322 1.402934,-1.19307 -3.04584,0.8247 -5.508799,9.56513 -6.132079,8.22042 1.740027,-1.27083 2.342198,-5.47407 -0.557962,-2.50644 -3.177249,1.36119 -5.657505,4.63838 -2.179803,3.99078 -0.551409,-0.33642 -5.082523,1.46007 -2.725155,0.7704 z m 3.935795,-1.17496 c 2.168414,-0.9669 -1.091317,0.9542 0,0 z m -2.476505,-0.60202 c 1.409008,-1.32579 7.024205,-6.08315 4.487714,-1.29159 0.268486,1.35048 -6.407732,2.59903 -4.487714,1.29159 z m 17.466747,1.44404 c -0.343689,-0.064 0.207997,1.32381 0,0 z m -45.674211,0.0495 c 2.093338,-0.54038 3.383996,-4.81588 0.626156,-1.69608 -0.394002,0.30335 -2.630827,2.30283 -0.626156,1.69608 z m 45.872331,-1.43637 c -0.343689,-0.0641 0.207997,1.32382 0,0 z m -35.27048,-2.41329 c -0.27721,-1.63095 0.257269,-3.4674 -0.800988,-0.31318 -0.01258,1.16589 -2.407457,3.93916 -0.131843,1.45937 l 0.452012,-0.49221 0.480827,-0.65398 z m -4.682928,1.47222 c 0.485791,-1.40622 -0.941974,1.42175 0,0 z m 37.972204,-0.24765 c -0.343689,-0.0641 0.207998,1.32382 0,0 z m -17.389484,-0.26648 c 1.366685,-1.18633 -7.516031,-1.81828 -2.337974,-0.40821 0.538964,0.84828 1.605952,0.17979 2.337974,0.40821 z m 19.771055,-0.51363 c -0.339683,-0.34063 0.171043,1.1076 0,0 z m -37.084789,-0.75533 c 1.013545,-1.41702 -1.478497,1.44084 0,0 z m 37.287387,-2.03073 c -0.281538,0.0915 0.161152,2.18097 0,0 z m 0.189517,-1.18873 c -0.34369,-0.0641 0.207997,1.32382 0,0 z m -7.895417,-0.0856 c -1.266973,-2.71229 -1.847526,2.0021 0,0 z m -0.819184,0.0555 c 0.303164,-1.85985 1.24662,1.16905 0,0 z m -28.726023,-0.3537 c -0.339683,-0.34062 0.171043,1.10761 0,0 z m 35.45942,-0.40862 c -0.343689,-0.064 0.207997,1.32382 0,0 z m 2.184678,-0.4953 c -0.30872,0.0124 0.18286,1.75339 0,0 z m -39.777602,-0.0495 c -0.527238,-0.0486 -0.296896,1.62096 0,0 z m 2.380477,-0.64389 c -0.558778,-1.19006 -0.487379,2.5456 0,0 z m 37.773118,-1.77673 c 0.83732,-2.13542 3.320257,0.4073 1.122894,1.64534 1.886337,-0.28696 7.233932,-2.06946 2.451517,-1.54702 0.244292,-1.03884 -1.37761,-3.23035 -2.97507,-2.09146 -2.083484,-1.4756 -6.989139,3.98625 -3.456481,1.4807 -0.297181,3.98887 1.008648,-2.86439 2.683348,0.62659 -0.235021,2.19056 0.183773,1.65383 0.173792,-0.11415 z m -35.381746,0.62585 c -0.512688,-1.77296 -0.33355,1.95283 0,0 z m 29.815715,0.41019 c -0.147748,-0.46341 -0.838466,0.72649 0,0 z m -32.428301,-1.20638 c -0.410401,-2.52636 -0.627803,3.03646 0,0 z m -4.161771,-0.28703 c -0.560694,0.38299 -0.235328,0.86176 0,0 z m 16.034129,-0.14334 c 0.772661,-2.90893 2.39114,-1.07552 1.914335,-4.56699 0.641244,-2.96416 -1.31593,-5.53216 -3.108134,-1.98309 -2.815866,2.37607 1.124931,3.9734 0.127096,6.47271 -0.166753,0.76951 0.965105,0.55381 1.066703,0.0774 z m -10.547554,-1.55518 c -0.833127,-1.11183 -1.374158,1.34808 0,0 z m -1.896072,-1.03209 c -0.11492,-1.13681 -0.592624,1.88799 0,0 z m 1.595858,-2.10159 c -0.209352,-2.4267 -0.432767,3.46483 0,0 z m -0.573926,-1.74714 c 0.06118,-2.03501 1.193979,-1.14316 0.950219,-1.57498 -0.660893,-5.13023 -2.417678,8.35788 -1.115316,2.41859 z m 0.716777,-0.49822 c -0.281538,0.0915 0.161152,2.18098 0,0 z m -3.17853,-0.79248 c -0.343689,-0.0641 0.207998,1.32382 0,0 z m 0.534442,-2.56435 c 0.04732,-2.2728 -0.687858,4.30557 0,0 z m 10.57872,1.13215 c -1.971799,-3.24999 -0.650717,-1.05889 -0.02479,0.88737 z m 2.567365,0.26418 c 1.748526,-0.5116 -3.101544,-5.60963 -3.50576,-5.69933 1.546279,1.26223 0.898124,7.17004 3.50576,5.69933 z m -4.573639,-5.15033 c -1.017043,-1.84017 0.781069,3.04051 0,0 z m 7.205889,0.82051 c -1.734516,-0.71314 -0.477053,0.73718 0,0 z m 14.462787,-34.67113 c -1.520693,-1.43324 0.143,1.29178 0,0 z m -39.588026,95.7912 c -1.110315,-2.0037 0.629675,-4.25886 2.303566,-4.02111 -1.269002,-1.82401 1.980268,-3.58163 2.751873,-1.02826 3.642066,-0.18146 -0.346789,-3.41454 1.608453,-5.5226 0.176517,-4.471 3.59835,-7.93409 3.589836,-12.37257 -0.632939,-4.51771 0.890022,-8.45845 4.231845,-11.6954 1.614466,-0.90552 3.838561,-6.21292 5.092295,-1.68728 0.416287,1.4476 2.352068,6.92126 -0.448987,3.92907 -0.869833,-1.39356 -5.061773,-3.35978 -1.477568,-1.00283 2.444253,0.99383 1.985584,4.8137 1.137107,1.75126 -1.405324,-0.0849 -1.752083,-3.18583 -1.378509,0.3467 0.845722,7.05251 -3.365515,13.39154 -4.249598,20.22559 0.117091,3.78848 1.401991,6.91925 1.711467,10.87931 -0.43473,1.57998 -4.496377,0.6499 -2.830123,-1.84687 0.684285,-0.90394 0.763832,-6.27632 0.630169,-9.22931 1.098378,-4.67098 1.487183,-9.51165 2.648027,-14.17922 2.153265,-3.39325 -5.455978,-7.58572 -4.644596,-1.98669 4.783665,0.6588 1.182125,6.8863 1.529191,10.32571 -1.350098,3.6476 0.11975,8.49671 -2.695105,11.48266 -0.420038,1.7501 1.659155,0.34715 0.651151,2.78424 1.632572,1.91436 -2.789156,-0.35172 0.06994,1.91107 -0.568617,2.60455 -4.054683,1.00185 -6.055506,1.44412 0.31155,-1.72548 -0.729252,-6.25741 -1.333535,-2.13006 0.405242,1.93762 -1.455261,2.99571 -2.841385,1.62247 z m 3.926359,-4.25959 c -0.507184,-1.34744 -0.387359,1.3055 0,0 z m 3.750359,-3.12039 c -0.222014,-1.26483 -0.375536,1.59598 0,0 z m 0.176031,-4.69725 c -0.373881,-3.37109 -0.964865,2.84328 0,0 z m 0.702025,-2.18744 c -0.563922,-0.9598 -0.04006,0.9915 0,0 z m -0.332547,-0.92869 c -0.339683,-0.34062 0.171044,1.10761 0,0 z m 3.103799,-9.77615 c -0.604328,-0.86155 -0.014,1.22652 0,0 z m 4.685676,-3.41555 c -0.652402,-1.8768 -4.895418,-3.75556 -1.364191,-1.06655 0.290044,-0.21139 1.174577,1.68708 1.364191,1.06655 z m 2.575565,-3.90856 c -1.442105,-1.08026 0.673615,0.99047 0,0 z m 7.033273,32.5908 c 1.072439,-0.74812 0.216241,0.81009 0,0 z m 3.863347,-0.26257 c 1.356246,-2.36378 0.42167,-1.21423 1.534935,-4.40547 1.803039,-0.49866 1.538162,6.19156 -1.385106,4.8085 l -0.12598,-0.13683 z m 11.817043,-4.44558 c -0.04148,-1.11295 1.676094,-2.39556 0,0 z m -26.557474,-0.53898 c -0.291707,-3.88455 3.836008,-1.29953 0.977932,0.43178 l -0.559631,-0.11009 z m 24.250209,-0.41099 c 0.198187,-1.54135 2.548645,-3.70454 1.435425,-0.43596 -0.255397,3.28828 2.358342,-3.23511 0.442914,1.0482 -0.9636,-1.27206 -0.943464,-0.88481 -1.834257,0.016 z m 0.33346,-0.32264 c -0.339683,-0.34062 0.171043,1.10761 0,0 z m -36.991637,-0.74429 c 1.30538,-1.95068 -0.226567,1.35187 0,0 z m 61.026982,-0.40728 c 0.506188,-0.71075 0.506188,0.71075 0,0 z M 31.155248,315.3472 c 0.784671,-4.6414 0.02396,3.95937 0,0 z m 30.281573,0.9228 c 0.952981,-2.48621 -0.12914,1.17248 0,0 z m 25.27169,0.0552 c -1.914642,-2.31745 1.982267,-3.78197 0.984349,-1.05815 -0.745741,0.26581 0.331454,1.77024 -0.984349,1.05815 z M 34.138922,315.964 c 0.479673,-2.58499 3.96374,-0.44148 0,0 z m 28.026776,-2.36862 c 0.07136,-1.50755 0.187547,1.57597 0,0 z m -28.676953,0.29945 c 0.147747,-0.46341 0.838466,0.72649 0,0 z m 26.677067,-0.59663 c 0.148556,-1.09533 0.148556,1.09533 0,0 z m 27.111211,-0.68172 c 0.487303,-1.69997 0.33653,1.36328 0,0 z m -4.411535,0.12776 c -1.562956,-0.81796 2.035019,-0.0523 0,0 z m 3.420933,-0.13946 c 0.800164,-1.19763 0.700348,1.15704 0,0 z M 62.245754,311.8123 c 0.611179,-2.94016 -0.149358,2.1246 0,0 z m -30.838674,0.20982 c 0.469422,-1.08702 0.481059,0.82242 0,0 z m 1.981204,0.0126 c 1.340484,-1.56276 0.29438,0.21033 0,0 z m 28.960184,-2.13095 c 1.831479,-5.25039 -0.48982,3.34468 0,0 z m -1.192054,0.0264 c 0.148556,-1.09533 0.148556,1.09533 0,0 z m -28.941397,-0.69342 c 0.775798,-3.04246 0.135288,-7.9172 1.253382,-10.01474 0.07219,3.21886 -0.194443,7.34556 -1.253382,10.01474 z m 29.146863,-0.59437 c 0.0891,-1.12981 0.19195,1.22336 0,0 z m -4.793513,-1.88214 c 0.506189,-0.71075 0.506189,0.71075 0,0 z m 5.399211,-0.89154 c 0.07136,-1.50755 0.187547,1.57597 0,0 z m 1.184723,-1.4859 c 0.109941,-1.35251 0.109941,1.35251 0,0 z m -0.99794,-0.29718 c 0.0891,-1.12982 0.19195,1.22335 0,0 z m 0.198121,-1.18873 c 0.0891,-1.12981 0.19195,1.22336 0,0 z m 0.96762,0.18161 c 0.127448,-0.76354 0.200974,0.90177 0,0 z m 2.282039,-0.96503 c -3.114057,-2.09344 5.647247,0.70653 0.801782,0.28835 z m 25.454811,0.17255 c 0.127448,-0.76355 0.200974,0.90176 0,0 z m -5.62905,-0.61087 c -0.126998,-2.22631 -4.504373,-7.93056 0.504152,-4.71881 2.828528,1.02664 2.134665,4.88013 -0.504152,4.71881 z m -6.075692,-0.46228 c 0.506188,-0.71075 0.506188,0.71075 0,0 z m -15.612886,-1.4859 c 0.0891,-1.12981 0.19195,1.22335 0,0 z m -34.968312,-0.62184 c -0.761024,-2.11409 1.197977,-0.876 0,0 z m 34.183169,-0.86406 c 0.10994,-1.35251 0.10994,1.35251 0,0 z m -30.043818,-1.02893 c -2.130779,-1.60845 -2.339554,-5.61323 0.784619,-2.20531 1.796517,0.43091 0.487955,3.69554 -0.784619,2.20531 z m 31.202221,-0.0772 c 0.127447,-0.76355 0.200973,0.90177 0,0 z m -0.990602,-0.19812 c 0.127448,-0.76355 0.200973,0.90176 0,0 z m 0.213756,-1.07315 c 0.148556,-1.09533 0.148556,1.09533 0,0 z m -32.919259,-0.28548 c 0.469422,-1.08702 0.481058,0.82242 0,0 z m 33.51362,-2.68632 c 0.148556,-1.09533 0.148556,1.09533 0,0 z m 1.173087,-1.10618 c 0.127447,-0.76355 0.200973,0.90177 0,0 z m 0,-5.34925 c 0.127447,-0.76354 0.200973,0.90177 0,0 z m 0.822801,-5.23368 c 0.10994,-1.35251 0.10994,1.35252 0,0 z m 0.960282,-0.70993 c 0.127448,-0.76355 0.200973,0.90176 0,0 z m -0.57138,-1.76657 c 0.0891,-1.12981 0.19195,1.22335 0,0 z m -11.034304,-0.69342 c -3.378298,-0.62192 4.071831,-1.95801 2.846896,-4.83244 2.216091,-1.63048 -0.09419,-8.88629 2.304054,-3.51513 4.009919,0.67449 -2.081769,5.82392 -2.974022,7.96661 -0.474372,0.70184 -1.485304,0.71634 -2.176928,0.38096 z m 11.026958,-0.39624 c 0.148557,-1.09533 0.148557,1.09533 0,0 z m 10.443829,-0.94107 c -0.662727,-0.94588 1.205503,1.16734 0,0 z m -13.843153,-1.58079 c 1.498453,-1.31004 0.298251,0.72318 0,0 z m -1.697794,-0.47223 c 0.44382,-1.15478 1.568295,0.9444 0,0 z m -40.299748,-3.25149 c 1.057853,-0.73866 -0.467497,0.92395 0,0 z m 48.08974,0.17076 c 1.232864,-0.19654 0.01535,0.34279 0,0 z m -6.669599,-0.36409 c 0.119488,-1.24078 0.679194,-0.593 0.04875,0.0526 z m -0.512261,-1.93056 c -3.829441,-2.301 -2.014743,-7.33617 -1.072409,-10.7465 0.312044,-4.30037 4.518391,-5.35526 4.345229,-9.8729 -0.363323,-2.80736 -2.265647,5.92974 -2.240884,0.9716 1.920288,-1.49236 0.379872,-7.99491 2.088456,-7.39361 2.232205,4.28199 0.66457,9.18307 -1.085124,13.35083 -0.973634,4.36752 -3.93566,9.35763 -1.578463,13.69486 1.263326,1.48311 -0.404882,0.15922 -0.456805,-0.005 z m -1.287782,-4.31024 c -0.506189,-0.71074 -0.506189,0.71075 0,0 z m 0.818929,-1.73355 c 0.141323,-1.5413 2.828386,-8.87447 0.290142,-4.23327 -0.630065,0.34798 -1.873188,6.02025 -0.290142,4.23327 z m 0.964154,5.1016 c 0.506189,-0.71075 0.506189,0.71075 0,0 z m -4.092161,-0.30572 c -0.140747,-1.37088 1.092485,1.07128 7e-6,0 z M 22.79935,267.54946 c -0.22626,-2.08607 2.296004,-0.32237 0,0 z m 36.089058,-1.60196 c 0.133782,-1.48594 0.455262,1.43228 0,0 z m -1.838593,-0.69343 c -3.050318,-0.89894 3.191836,-7.35753 1.4406,-1.93288 -0.830791,0.5751 0.46764,4.07739 -1.4406,1.93288 z m -33.46649,-0.30041 c 0.781519,-0.44393 0.406043,0.73669 0,0 z m 20.80064,-5.30817 c -2.662427,-0.87595 4.745656,-0.68768 0,0 z m 14.453336,-1.05307 c 1.172219,-1.57184 0.4378,-7.27876 2.945171,-5.92914 -0.65205,1.83612 -2.022621,5.35298 -2.945171,5.92914 z m -28.187358,-2.20429 c 1.679912,-9.28613 0.630603,5.65085 0,0 z m 17.333211,0.11558 c -0.346812,-1.24077 1.164535,0.36741 0,0 z m -22.717805,-1.61379 c 0.876708,-4.06968 3.520242,0.40043 0,0 z m 1.053682,-2.31284 c -2.205712,-2.35662 4.200926,-6.96227 1.003593,-1.7038 -2.057926,1.51889 1.826964,1.09802 -0.639282,1.89906 z m 20.739559,-3.07362 c -3.315712,-3.54968 9.443927,-1.76053 3.555398,-0.0727 -1.919704,-0.38361 -1.82754,-1.38885 -3.555398,0.0727 z m -1.733557,-2.31098 c -0.48836,-2.60134 7.747166,-1.41243 1.851944,-0.2175 -0.598615,0.12225 -1.230716,0.3669 -1.851944,0.2175 z m 17.181404,-0.66563 c -1.090126,-1.84037 2.247376,0.81421 0,0 z M 35.47173,243.75796 c 0.837695,-4.0659 0.216137,3.40187 0,0 z m 24.625311,0.28404 c 0.944011,-1.92853 -3.482757,-8.33278 0.608371,-5.13587 2.35516,2.14224 -0.85166,2.94662 -0.608371,5.13587 z m -24.248389,-5.67335 c -2.026979,-2.22728 3.13396,-7.11232 2.75459,-4.30915 -1.143456,0.59687 -1.746728,5.71025 -2.75459,4.30915 z m 25.188019,-0.53716 c -2.614106,-2.11803 -6.525976,-4.50352 -8.215795,-6.54293 3.546825,0.36402 7.362188,4.22908 8.215795,6.54293 z M 38.830956,231.6635 c 1.301051,-1.5076 4.713929,-0.4466 1.080833,0.0705 l -0.704653,0.0456 z m 18.628953,-2.36832 c -0.01662,-0.75907 0.906053,0.79949 0,0 z"
       id="path29"
       inkscape:connector-curvature="0" />
    <g
       id="g486"
       transform="translate(-92.994219,396.55327)"
       gcodetools="Gcodetools tool definition">
      <path
         id="path404"
         d="M -20,-20 H 380 V 155 H -20 Z"
         style="fill:#00ff00;fill-opacity:0.5;stroke:#444444;stroke-width:1px"
         gcodetools="Gcodetools tool background"
         inkscape:connector-curvature="0" />
      <g
         id="g414"
         gcodetools="Gcodetools tool parameter">
        <text
           id="text408"
           xml:space="preserve"
           y="0"
           x="0"
           style="font-style:normal;font-variant:normal;font-weight:normal;font-stretch:normal;font-size:20px;font-family:'DejaVu Sans';fill:#000000;fill-opacity:1;stroke:none"
           gcodetools="Gcodetools tool definition field name"><tspan
             id="tspan406"
             sodipodi:role="line"
             y="0"
             x="0">name</tspan></text>
        <text
           id="text412"
           xml:space="preserve"
           y="0"
           x="150"
           style="font-style:normal;font-variant:normal;font-weight:normal;font-stretch:normal;font-size:20px;font-family:'DejaVu Sans';fill:#000000;fill-opacity:1;stroke:none"
           gcodetools="Gcodetools tool definition field value"><tspan
             id="tspan410"
             sodipodi:role="line"
             y="0"
             x="150">Cylindrical cutter</tspan></text>
      </g>
      <g
         id="g424"
         gcodetools="Gcodetools tool parameter">
        <text
           id="text418"
           xml:space="preserve"
           y="20"
           x="0"
           style="font-style:normal;font-variant:normal;font-weight:normal;font-stretch:normal;font-size:10px;font-family:'DejaVu Sans';fill:#000000;fill-opacity:1;stroke:none"
           gcodetools="Gcodetools tool definition field name"><tspan
             id="tspan416"
             sodipodi:role="line"
             y="20"
             x="0">id</tspan></text>
        <text
           id="text422"
           xml:space="preserve"
           y="20"
           x="150"
           style="font-style:normal;font-variant:normal;font-weight:normal;font-stretch:normal;font-size:10px;font-family:'DejaVu Sans';fill:#000000;fill-opacity:1;stroke:none"
           gcodetools="Gcodetools tool definition field value"><tspan
             id="tspan420"
             sodipodi:role="line"
             y="20"
             x="150">Cylindrical cutter 0001</tspan></text>
      </g>
      <g
         id="g434"
         gcodetools="Gcodetools tool parameter">
        <text
           id="text428"
           xml:space="preserve"
           y="35"
           x="0"
           style="font-style:normal;font-variant:normal;font-weight:normal;font-stretch:normal;font-size:10px;font-family:'DejaVu Sans';fill:#000000;fill-opacity:1;stroke:none"
           gcodetools="Gcodetools tool definition field name"><tspan
             id="tspan426"
             sodipodi:role="line"
             y="35"
             x="0">diameter</tspan></text>
        <text
           id="text432"
           xml:space="preserve"
           y="35"
           x="150"
           style="font-style:normal;font-variant:normal;font-weight:normal;font-stretch:normal;font-size:10px;font-family:'DejaVu Sans';fill:#000000;fill-opacity:1;stroke:none"
           gcodetools="Gcodetools tool definition field value"><tspan
             id="tspan430"
             sodipodi:role="line"
             y="35"
             x="150">1</tspan></text>
      </g>
      <g
         id="g444"
         gcodetools="Gcodetools tool parameter">
        <text
           id="text438"
           xml:space="preserve"
           y="50"
           x="0"
           style="font-style:normal;font-variant:normal;font-weight:normal;font-stretch:normal;font-size:10px;font-family:'DejaVu Sans';fill:#000000;fill-opacity:1;stroke:none"
           gcodetools="Gcodetools tool definition field name"><tspan
             id="tspan436"
             sodipodi:role="line"
             y="50"
             x="0">feed</tspan></text>
        <text
           id="text442"
           xml:space="preserve"
           y="50"
           x="150"
           style="font-style:normal;font-variant:normal;font-weight:normal;font-stretch:normal;font-size:10px;font-family:'DejaVu Sans';fill:#000000;fill-opacity:1;stroke:none"
           gcodetools="Gcodetools tool definition field value"><tspan
             id="tspan440"
             sodipodi:role="line"
             y="50"
             x="150">400</tspan></text>
      </g>
      <g
         id="g454"
         gcodetools="Gcodetools tool parameter">
        <text
           id="text448"
           xml:space="preserve"
           y="65"
           x="0"
           style="font-style:normal;font-variant:normal;font-weight:normal;font-stretch:normal;font-size:10px;font-family:'DejaVu Sans';fill:#000000;fill-opacity:1;stroke:none"
           gcodetools="Gcodetools tool definition field name"><tspan
             id="tspan446"
             sodipodi:role="line"
             y="65"
             x="0">penetration angle</tspan></text>
        <text
           id="text452"
           xml:space="preserve"
           y="65"
           x="150"
           style="font-style:normal;font-variant:normal;font-weight:normal;font-stretch:normal;font-size:10px;font-family:'DejaVu Sans';fill:#000000;fill-opacity:1;stroke:none"
           gcodetools="Gcodetools tool definition field value"><tspan
             id="tspan450"
             sodipodi:role="line"
             y="65"
             x="150">90</tspan></text>
      </g>
      <g
         id="g464"
         gcodetools="Gcodetools tool parameter">
        <text
           id="text458"
           xml:space="preserve"
           y="80"
           x="0"
           style="font-style:normal;font-variant:normal;font-weight:normal;font-stretch:normal;font-size:10px;font-family:'DejaVu Sans';fill:#000000;fill-opacity:1;stroke:none"
           gcodetools="Gcodetools tool definition field name"><tspan
             id="tspan456"
             sodipodi:role="line"
             y="80"
             x="0">penetration feed</tspan></text>
        <text
           id="text462"
           xml:space="preserve"
           y="80"
           x="150"
           style="font-style:normal;font-variant:normal;font-weight:normal;font-stretch:normal;font-size:10px;font-family:'DejaVu Sans';fill:#000000;fill-opacity:1;stroke:none"
           gcodetools="Gcodetools tool definition field value"><tspan
             id="tspan460"
             sodipodi:role="line"
             y="80"
             x="150">100</tspan></text>
      </g>
      <g
         id="g474"
         gcodetools="Gcodetools tool parameter">
        <text
           id="text468"
           xml:space="preserve"
           y="95"
           x="0"
           style="font-style:normal;font-variant:normal;font-weight:normal;font-stretch:normal;font-size:10px;font-family:'DejaVu Sans';fill:#000000;fill-opacity:1;stroke:none"
           gcodetools="Gcodetools tool definition field name"><tspan
             id="tspan466"
             sodipodi:role="line"
             y="95"
             x="0">depth step</tspan></text>
        <text
           id="text472"
           xml:space="preserve"
           y="95"
           x="150"
           style="font-style:normal;font-variant:normal;font-weight:normal;font-stretch:normal;font-size:10px;font-family:'DejaVu Sans';fill:#000000;fill-opacity:1;stroke:none"
           gcodetools="Gcodetools tool definition field value"><tspan
             id="tspan470"
             sodipodi:role="line"
             y="95"
             x="150">1</tspan></text>
      </g>
      <g
         id="g484"
         gcodetools="Gcodetools tool parameter">
        <text
           id="text478"
           xml:space="preserve"
           y="110"
           x="0"
           style="font-style:normal;font-variant:normal;font-weight:normal;font-stretch:normal;font-size:10px;font-family:'DejaVu Sans';fill:#000000;fill-opacity:1;stroke:none"
           gcodetools="Gcodetools tool definition field name"><tspan
             id="tspan476"
             sodipodi:role="line"
             y="110"
             x="0">tool change gcode</tspan></text>
        <text
           id="text482"
           xml:space="preserve"
           y="110"
           x="150"
           style="font-style:normal;font-variant:normal;font-weight:normal;font-stretch:normal;font-size:10px;font-family:'DejaVu Sans';fill:#000000;fill-opacity:1;stroke:none"
           gcodetools="Gcodetools tool definition field value"><tspan
             id="tspan480"
             sodipodi:role="line"
             y="110"
             x="150">(None)</tspan></text>
      </g>
    </g>
  </g>
</svg>
