DBRep_DrawableShape

CASCADE Topology V1, (c) Matra-Datavision
Locations 7
1
              1               0               0               0 
              0               1               0               0 
              0               0               1               0 
1
              1               0               0 -13.4991609999997 
              0               1               0 -4.31233738128555 
              0               0               1 -7.31233738128555 
2  1 1 2 1 0
2  1 -1 0
1
              1               0               0               0 
              0               1               0             -30 
              0               0               1               0 
2  5 -1 0
2  1 -1 5 -1 0
Curve2ds 17
2 0 0 -1 0 0 1 2
1 0 0 1 0 
1 0 10.658787384517325 1 0 
1 0 6.2221145558666908 1 0 
1 6.2831853071795862 0 0 1 
1 0 0 0 1 
1 0 4.7174208860852787 1 0 
1 0 0 1 0 
1 6.2831853071795862 0 0 1 
1 0 0 0 1 
1 0 4.8610084035080385 1 0 
1 0 4.6151456604286967 1 0 
1 6.2831853071795862 0 0 1 
1 0 0 0 1 
1 0 3.1923180492832386 1 0 
1 6.2831853071795862 0 0 1 
1 0 0 0 1 
Curves 8
2 26.998322000000002 0 0 1 0 0 0 -1 0 0 0 -1 2
2 16.339534615482677 0 0 1 0 0 0 -1 0 0 0 -1 2.0000000000000426
1 26.998322000000002 28 0 -1 -3.9997574402818992e-15 0 
2 11.309554356676005 0 0 1 0 0 0 -1 0 0 0 -1 6.7557188413869014
2 11.284068322313001 28.309125528986002 0 0 0 1 1 0 -0 -0 1 0 5.0649084921689997
2 6.4485459531679661 0 0 1 0 0 0 -1 0 0 0 -1 6.75571884138634
1 11.309554356676005 23.244281158613099 0 -1 1.1547578499255126e-13 0 
2 7.1429489999999998 30.362639999999999 0 0 0 1 1 0 -0 -0 1 0 7.152148501408
Polygon3D 0
PolygonOnTriangulations 0
Surfaces 5
1 26.998322000000002 0 0 1 0 0 -0 1 0 -0 0 -1 
2 26.998322000000002 0 0 -1 -0 -0 0 -1 0 0 -0 -1 2
7 0 0 0 1 0 0 
8 4.7174208860852787 6.2221145558666908
2 11.284068322313001 -1.6908744710139985 0 0 0 1 1 0 -0 -0 1 0 5.0649084921689997
2 11.309554356676005 0 0 -1 -0 -0 0 -1 0 0 -0 -1 6.7557188413869014
7 0 0 0 1 0 0 
8 3.1923180492832386 4.6151456604286967
2 7.1429489999999998 0.36263999999999896 0 0 0 1 1 0 -0 -0 1 0 7.152148501408
Triangulations 0

TShapes 26
Ve
1e-07
26.998322 -2 0
0 0

0101101
*
Ed
 1e-07 1 1 0
1  1 0 0 6.28318530717959
2  1 1 0 0 6.28318530717959
2  2 2 0 0 6.28318530717959
0

0101100
+26 4 -26 4 *
Wi

0101000
-25 0 *
Fa
0  1e-07 1 0

0111000
+24 0 *
Ve
1e-07
16.3395346154827 -2.00000000000004 0
0 0

0101101
*
Ed
 1e-07 1 1 0
1  2 0 0 6.28318530717959
2  3 2 0 0 6.28318530717959
2  4 3 0 0 6.28318530717959
0

0101100
+22 4 -22 4 *
Ed
 1e-07 1 1 0
1  3 0 0 10.6587873845173
3  5 6CN 2 6 0 10.6587873845173
0

0101000
+26 7 -22 7 *
Wi

0101000
+25 0 -21 0 -20 5 +20 5 *
Fa
0  1e-07 2 0

0101000
+19 0 *
Ve
1.00001013053437e-07
11.309554356676 -6.7557188413869 0
0 0

0101101
*
Ed
 1e-07 1 1 0
1  4 0 0 6.28318530717959
2  7 3 0 0 6.28318530717959
2  8 4 0 0 6.28318530717959
0

0101100
+17 4 -17 4 *
Ed
 1e-07 1 1 0
1  5 0 4.71742088608528 6.22211455586669
3  9 10CN 3 6 4.71742088608528 6.22211455586669
0

0101000
+17 7 -22 7 *
Wi

0101000
+16 0 -21 0 -15 5 +15 5 *
Fa
0  1e-07 3 0

0111000
+14 0 *
Ve
1.00001e-07
6.44854595316797 -6.75571884138634 0
0 0

0101101
*
Ed
 1e-07 1 1 0
1  6 0 0 6.28318530717959
2  11 4 0 0 6.28318530717959
2  12 5 0 0 6.28318530717959
0

0101100
+12 4 -12 4 *
Ed
 1e-07 1 1 0
1  7 0 0 4.86100840350804
3  13 14CN 4 6 0 4.86100840350804
0

0101000
+17 7 -12 7 *
Wi

0101000
+16 0 -11 0 -10 5 +10 5 *
Fa
0  1e-07 4 0

0111000
+9 0 *
Ve
1.00001009736055e-07
5.79092329644482e-13 3.19744231092045e-14 0
0 0

0101101
*
Ed
 1e-07 1 1 1
2  15 5 0 0 6.28318530717959
0

0101100
+7 4 -7 4 *
Ed
 1e-07 1 1 0
1  8 0 3.19231804928324 4.6151456604287
3  16 17CN 5 6 3.19231804928324 4.6151456604287
0

0101000
+7 7 -12 7 *
Wi

0101000
+6 0 -11 0 -5 5 +5 5 *
Fa
0  1e-07 5 0

0111000
+4 0 *
Sh

0101000
-23 3 -18 3 +13 3 -8 3 +3 3 *
So

1100000
+2 0 *

+1 0 