  0
SECTION
  2
HEADER
  9
$ACADVER
  1
AC1027
  9
$ACADMAINTVER
 70
     8
  9
$DWGCODEPAGE
  3
ANSI_1251
  9
$REQUIREDVERSIONS
160
                 0
  9
$LASTSAVEDBY
  1
Autodesk
  9
$INSBASE
 10
0.0
 20
0.0
 30
0.0
  9
$EXTMIN
 10
1.000000E+20
 20
1.000000E+20
 30
1.000000E+20
  9
$EXTMAX
 10
-1.000000E+20
 20
-1.000000E+20
 30
-1.000000E+20
  9
$LIMMIN
 10
0.0
 20
0.0
  9
$LIMMAX
 10
420.0
 20
297.0
  9
$ORTHOMODE
 70
     0
  9
$REGENMODE
 70
     1
  9
$FILLMODE
 70
     1
  9
$QTEXTMODE
 70
     0
  9
$MIRRTEXT
 70
     0
  9
$LTSCALE
 40
1.0
  9
$ATTMODE
 70
     1
  9
$TEXTSIZE
 40
2.5
  9
$TRACEWID
 40
1.0
  9
$TEXTSTYLE
  7
Standard
  9
$CLAYER
  8
0
  9
$CELTYPE
  6
ByLayer
  9
$CECOLOR
 62
   256
  9
$CELTSCALE
 40
1.0
  9
$DISPSILH
 70
     0
  9
$DIMSCALE
 40
1.0
  9
$DIMASZ
 40
2.5
  9
$DIMEXO
 40
0.5
  9
$DIMDLI
 40
6.0
  9
$DIMRND
 40
0.0
  9
$DIMDLE
 40
0.0
  9
$DIMEXE
 40
0.0
  9
$DIMTP
 40
0.0
  9
$DIMTM
 40
0.0
  9
$DIMTXT
 40
2.5
  9
$DIMCEN
 40
2.5
  9
$DIMTSZ
 40
0.0
  9
$DIMTOL
 70
     0
  9
$DIMLIM
 70
     0
  9
$DIMTIH
 70
     0
  9
$DIMTOH
 70
     1
  9
$DIMSE1
 70
     0
  9
$DIMSE2
 70
     0
  9
$DIMTAD
 70
     0
  9
$DIMZIN
 70
     0
  9
$DIMBLK
  1

  9
$DIMASO
 70
     1
  9
$DIMSHO
 70
     1
  9
$DIMPOST
  1

  9
$DIMAPOST
  1

  9
$DIMALT
 70
     0
  9
$DIMALTD
 70
     2
  9
$DIMALTF
 40
25.4
  9
$DIMLFAC
 40
1.0
  9
$DIMTOFL
 70
     0
  9
$DIMTVP
 40
0.0
  9
$DIMTIX
 70
     0
  9
$DIMSOXD
 70
     0
  9
$DIMSAH
 70
     0
  9
$DIMBLK1
  1

  9
$DIMBLK2
  1

  9
$DIMSTYLE
  2
Standard
  9
$DIMCLRD
 70
     0
  9
$DIMCLRE
 70
     0
  9
$DIMCLRT
 70
     0
  9
$DIMTFAC
 40
1.0
  9
$DIMGAP
 40
1.0
  9
$DIMJUST
 70
     0
  9
$DIMSD1
 70
     0
  9
$DIMSD2
 70
     0
  9
$DIMTOLJ
 70
     1
  9
$DIMTZIN
 70
     0
  9
$DIMALTZ
 70
     0
  9
$DIMALTTZ
 70
     0
  9
$DIMUPT
 70
     0
  9
$DIMDEC
 70
     4
  9
$DIMTDEC
 70
     4
  9
$DIMALTU
 70
     2
  9
$DIMALTTD
 70
     2
  9
$DIMTXSTY
  7
Standard
  9
$DIMAUNIT
 70
     0
  9
$DIMADEC
 70
     0
  9
$DIMALTRND
 40
0.0
  9
$DIMAZIN
 70
     0
  9
$DIMDSEP
 70
    46
  9
$DIMATFIT
 70
     3
  9
$DIMFRAC
 70
     0
  9
$DIMLDRBLK
  1

  9
$DIMLUNIT
 70
     2
  9
$DIMLWD
 70
    -2
  9
$DIMLWE
 70
    -2
  9
$DIMTMOVE
 70
     0
  9
$DIMFXL
 40
1.0
  9
$DIMFXLON
 70
     0
  9
$DIMJOGANG
 40
0.785398
  9
$DIMTFILL
 70
     0
  9
$DIMTFILLCLR
 70
     0
  9
$DIMARCSYM
 70
     0
  9
$DIMLTYPE
  6
ByLayer
  9
$DIMLTEX1
  6
ByLayer
  9
$DIMLTEX2
  6
ByLayer
  9
$DIMTXTDIRECTION
 70
     0
  9
$LUNITS
 70
     2
  9
$LUPREC
 70
     4
  9
$SKETCHINC
 40
1.0
  9
$FILLETRAD
 40
0.0
  9
$AUNITS
 70
     0
  9
$AUPREC
 70
     0
  9
$MENU
  1
.
  9
$ELEVATION
 40
0.0
  9
$PELEVATION
 40
0.0
  9
$THICKNESS
 40
0.0
  9
$LIMCHECK
 70
     0
  9
$CHAMFERA
 40
0.0
  9
$CHAMFERB
 40
0.0
  9
$CHAMFERC
 40
0.0
  9
$CHAMFERD
 40
0.0
  9
$SKPOLY
 70
     0
  9
$TDCREATE
 40
2454082.950050046
  9
$TDUCREATE
 40
2454082.90838338
  9
$TDUPDATE
 40
2459252.936086447
  9
$TDUUPDATE
 40
2459252.89441978
  9
$TDINDWG
 40
0.0105753588
  9
$TDUSRTIMER
 40
0.0105751736
  9
$USRTIMER
 70
     1
  9
$ANGBASE
 50
0.0
  9
$ANGDIR
 70
     0
  9
$PDMODE
 70
     0
  9
$PDSIZE
 40
0.0
  9
$PLINEWID
 40
0.0
  9
$SPLFRAME
 70
     0
  9
$SPLINETYPE
 70
     6
  9
$SPLINESEGS
 70
     8
  9
$HANDSEED
  5
4FB
  9
$SURFTAB1
 70
     6
  9
$SURFTAB2
 70
     6
  9
$SURFTYPE
 70
     6
  9
$SURFU
 70
     6
  9
$SURFV
 70
     6
  9
$UCSBASE
  2

  9
$UCSNAME
  2

  9
$UCSORG
 10
0.0
 20
0.0
 30
0.0
  9
$UCSXDIR
 10
1.0
 20
0.0
 30
0.0
  9
$UCSYDIR
 10
0.0
 20
1.0
 30
0.0
  9
$UCSORTHOREF
  2

  9
$UCSORTHOVIEW
 70
     0
  9
$UCSORGTOP
 10
0.0
 20
0.0
 30
0.0
  9
$UCSORGBOTTOM
 10
0.0
 20
0.0
 30
0.0
  9
$UCSORGLEFT
 10
0.0
 20
0.0
 30
0.0
  9
$UCSORGRIGHT
 10
0.0
 20
0.0
 30
0.0
  9
$UCSORGFRONT
 10
0.0
 20
0.0
 30
0.0
  9
$UCSORGBACK
 10
0.0
 20
0.0
 30
0.0
  9
$PUCSBASE
  2

  9
$PUCSNAME
  2

  9
$PUCSORG
 10
0.0
 20
0.0
 30
0.0
  9
$PUCSXDIR
 10
1.0
 20
0.0
 30
0.0
  9
$PUCSYDIR
 10
0.0
 20
1.0
 30
0.0
  9
$PUCSORTHOREF
  2

  9
$PUCSORTHOVIEW
 70
     0
  9
$PUCSORGTOP
 10
0.0
 20
0.0
 30
0.0
  9
$PUCSORGBOTTOM
 10
0.0
 20
0.0
 30
0.0
  9
$PUCSORGLEFT
 10
0.0
 20
0.0
 30
0.0
  9
$PUCSORGRIGHT
 10
0.0
 20
0.0
 30
0.0
  9
$PUCSORGFRONT
 10
0.0
 20
0.0
 30
0.0
  9
$PUCSORGBACK
 10
0.0
 20
0.0
 30
0.0
  9
$USERI1
 70
     0
  9
$USERI2
 70
     0
  9
$USERI3
 70
     0
  9
$USERI4
 70
     0
  9
$USERI5
 70
     0
  9
$USERR1
 40
0.0
  9
$USERR2
 40
0.0
  9
$USERR3
 40
0.0
  9
$USERR4
 40
0.0
  9
$USERR5
 40
0.0
  9
$WORLDVIEW
 70
     1
  9
$SHADEDGE
 70
     3
  9
$SHADEDIF
 70
    70
  9
$TILEMODE
 70
     1
  9
$MAXACTVP
 70
    64
  9
$PINSBASE
 10
0.0
 20
0.0
 30
0.0
  9
$PLIMCHECK
 70
     0
  9
$PEXTMIN
 10
0.0
 20
0.0
 30
0.0
  9
$PEXTMAX
 10
0.0
 20
0.0
 30
0.0
  9
$PLIMMIN
 10
-20.0
 20
-7.5
  9
$PLIMMAX
 10
277.0
 20
202.5
  9
$UNITMODE
 70
     0
  9
$VISRETAIN
 70
     1
  9
$PLINEGEN
 70
     0
  9
$PSLTSCALE
 70
     0
  9
$TREEDEPTH
 70
  3020
  9
$CMLSTYLE
  2
Standard
  9
$CMLJUST
 70
     0
  9
$CMLSCALE
 40
20.0
  9
$PROXYGRAPHICS
 70
     1
  9
$MEASUREMENT
 70
     1
  9
$CELWEIGHT
370
    -1
  9
$ENDCAPS
280
     0
  9
$JOINSTYLE
280
     0
  9
$LWDISPLAY
290
     1
  9
$INSUNITS
 70
     4
  9
$HYPERLINKBASE
  1

  9
$STYLESHEET
  1

  9
$XEDIT
290
     1
  9
$CEPSNTYPE
380
     0
  9
$PSTYLEMODE
290
     1
  9
$FINGERPRINTGUID
  2
{78B0F746-B111-4909-95E5-2EF5CBA97683}
  9
$VERSIONGUID
  2
{88884FFE-1838-4093-901C-E4DA6EFB818F}
  9
$EXTNAMES
290
     1
  9
$PSVPSCALE
 40
0.0
  9
$OLESTARTUP
290
     0
  9
$SORTENTS
280
   127
  9
$INDEXCTL
280
     0
  9
$HIDETEXT
280
     1
  9
$XCLIPFRAME
280
     0
  9
$HALOGAP
280
     0
  9
$OBSCOLOR
 70
   257
  9
$OBSLTYPE
280
     0
  9
$INTERSECTIONDISPLAY
280
     0
  9
$INTERSECTIONCOLOR
 70
   257
  9
$DIMASSOC
280
     2
  9
$PROJECTNAME
  1

  9
$CAMERADISPLAY
290
     0
  9
$LENSLENGTH
 40
50.0
  9
$CAMERAHEIGHT
 40
0.0
  9
$STEPSPERSEC
 40
2.0
  9
$STEPSIZE
 40
6.0
  9
$3DDWFPREC
 40
2.0
  9
$PSOLWIDTH
 40
5.0
  9
$PSOLHEIGHT
 40
80.0
  9
$LOFTANG1
 40
1.570796
  9
$LOFTANG2
 40
1.570796
  9
$LOFTMAG1
 40
0.0
  9
$LOFTMAG2
 40
0.0
  9
$LOFTPARAM
 70
     7
  9
$LOFTNORMALS
280
     1
  9
$LATITUDE
 40
37.795
  9
$LONGITUDE
 40
-122.394
  9
$NORTHDIRECTION
 40
0.0
  9
$TIMEZONE
 70
 -8000
  9
$LIGHTGLYPHDISPLAY
280
     1
  9
$TILEMODELIGHTSYNCH
280
     1
  9
$CMATERIAL
347
EC
  9
$SOLIDHIST
280
     1
  9
$SHOWHIST
280
     1
  9
$DWFFRAME
280
     2
  9
$DGNFRAME
280
     0
  9
$REALWORLDSCALE
290
     1
  9
$INTERFERECOLOR
 62
     1
  9
$CSHADOW
280
     0
  9
$SHADOWPLANELOCATION
 40
0.0
  0
ENDSEC
  0
SECTION
  2
CLASSES
  0
CLASS
  1
ACDBDICTIONARYWDFLT
  2
AcDbDictionaryWithDefault
  3
ObjectDBX Classes
 90
        0
 91
        6
280
     0
281
     0
  0
CLASS
  1
ACDBPLACEHOLDER
  2
AcDbPlaceHolder
  3
ObjectDBX Classes
 90
        0
 91
        1
280
     0
281
     0
  0
CLASS
  1
LAYOUT
  2
AcDbLayout
  3
ObjectDBX Classes
 90
        0
 91
        1
280
     0
281
     0
  0
CLASS
  1
DICTIONARYVAR
  2
AcDbDictionaryVar
  3
ObjectDBX Classes
 90
        0
 91
        4
280
     0
281
     0
  0
CLASS
  1
TABLESTYLE
  2
AcDbTableStyle
  3
ObjectDBX Classes
 90
     4095
 91
        5
280
     0
281
     0
  0
CLASS
  1
MATERIAL
  2
AcDbMaterial
  3
ObjectDBX Classes
 90
     1153
 91
        5
280
     0
281
     0
  0
CLASS
  1
VISUALSTYLE
  2
AcDbVisualStyle
  3
ObjectDBX Classes
 90
     4095
 91
        5
280
     0
281
     0
  0
CLASS
  1
SCALE
  2
AcDbScale
  3
ObjectDBX Classes
 90
     1153
 91
        5
280
     0
281
     0
  0
CLASS
  1
MLEADERSTYLE
  2
AcDbMLeaderStyle
  3
ACDB_MLEADERSTYLE_CLASS
 90
     4095
 91
        4
280
     0
281
     0
  0
CLASS
  1
CELLSTYLEMAP
  2
AcDbCellStyleMap
  3
ObjectDBX Classes
 90
     1152
 91
        4
280
     0
281
     0
  0
CLASS
  1
EXACXREFPANELOBJECT
  2
ExAcXREFPanelObject
  3
EXAC_ESW
 90
     1025
 91
        1
280
     1
281
     0
  0
CLASS
  1
NPOCOLLECTION
  2
AcDbImpNonPersistentObjectsCollection
  3
ObjectDBX Classes
 90
     1153
 91
        1
280
     1
281
     0
  0
CLASS
  1
LAYER_INDEX
  2
AcDbLayerIndex
  3
ObjectDBX Classes
 90
        0
 91
        4
280
     0
281
     0
  0
CLASS
  1
SPATIAL_INDEX
  2
AcDbSpatialIndex
  3
AutoCAD 2000
 90
        0
 91
        4
280
     0
281
     0
  0
CLASS
  1
IDBUFFER
  2
AcDbIdBuffer
  3
ObjectDBX Classes
 90
        0
 91
        4
280
     0
281
     0
  0
CLASS
  1
Wall
  2
PtDbWall
  3
NanoSPDS
 90
      893
 91
        1
280
     1
281
     1
  0
CLASS
  1
SORTENTSTABLE
  2
AcDbSortentsTable
  3
ObjectDBX Classes
 90
        0
 91
        4
280
     0
281
     0
  0
CLASS
  1
Format
  2
mcsDbObjectFormat
  3
NanoSPDS
 90
      893
 91
        1
280
     1
281
     1
  0
CLASS
  1
NOTEPOSITION
  2
mcsDbObjectNotePosition
  3
NanoSPDS
 90
      893
 91
        4
280
     0
281
     1
  0
CLASS
  1
mcsDbObject
  2
mcsDbObject
  3
NanoSPDS
 90
      893
 91
       21
280
     0
281
     1
  0
CLASS
  1
McDbContainer2
  2
McDbContainer2
  3
NanoSPDS
 90
      893
 91
        4
280
     0
281
     0
  0
CLASS
  1
spdsLevelMark
  2
mcsDbObjectLevelMark
  3
NanoSPDS
 90
      893
 91
        1
280
     1
281
     1
  0
CLASS
  1
spdsRelationMark
  2
mcsDbObjectRelationMark
  3
NanoSPDS
 90
      893
 91
        1
280
     1
281
     1
  0
CLASS
  1
LAYOUTPRINTCONFIG
  2
CAcLayoutPrintConfig
  3
"CSD_APP"
 90
     4095
 91
        4
280
     0
281
     1
  0
CLASS
  1
SUN
  2
AcDbSun
  3
SCENEOE
 90
     1153
 91
        5
280
     0
281
     0
  0
CLASS
  1
McDbMarker
  2
McDbMarker
  3
NanoSPDS
 90
      893
 91
        4
280
     0
281
     1
  0
ENDSEC
  0
SECTION
  2
TABLES
  0
TABLE
  2
VPORT
  5
8
330
0
100
AcDbSymbolTable
 70
     1
  0
VPORT
  5
EA
330
8
100
AcDbSymbolTableRecord
100
AcDbViewportTableRecord
  2
*Active
 70
     0
 10
0.0
 20
0.0
 11
1.0
 21
1.0
 12
61.415894
 22
258.665792
 13
0.0
 23
0.0
 14
10.0
 24
10.0
 15
10.0
 25
10.0
 16
0.0
 26
0.0
 36
1.0
 17
210.0
 27
148.5
 37
0.0
 40
48.465608
 41
2.358079
 42
50.0
 43
0.0
 44
0.0
 50
0.0
 51
0.0
 71
    16
 72
  1000
 73
     1
 74
     3
 75
     0
 76
     0
 77
     0
 78
     0
281
     0
 65
     1
110
0.0
120
0.0
130
0.0
111
1.0
121
0.0
131
0.0
112
0.0
122
1.0
132
0.0
 79
     0
146
0.0
 60
     2
 61
     5
292
     1
282
     1
141
0.0
142
0.0
 63
   250
421
  3355443
361
364
  0
ENDTAB
  0
TABLE
  2
LTYPE
  5
5
330
0
100
AcDbSymbolTable
 70
     1
  0
LTYPE
  5
14
330
5
100
AcDbSymbolTableRecord
100
AcDbLinetypeTableRecord
  2
ByBlock
 70
     0
  3

 72
    65
 73
     0
 40
0.0
  0
LTYPE
  5
15
330
5
100
AcDbSymbolTableRecord
100
AcDbLinetypeTableRecord
  2
ByLayer
 70
     0
  3

 72
    65
 73
     0
 40
0.0
  0
LTYPE
  5
16
330
5
100
AcDbSymbolTableRecord
100
AcDbLinetypeTableRecord
  2
Continuous
 70
     0
  3
Solid line
 72
    65
 73
     0
 40
0.0
  0
ENDTAB
  0
TABLE
  2
LAYER
  5
2
102
{ACAD_XDICTIONARY
360
44B
102
}
330
0
100
AcDbSymbolTable
 70
    31
  0
LAYER
  5
10
330
2
100
AcDbSymbolTableRecord
100
AcDbLayerTableRecord
  2
0
 70
     0
 62
     7
  6
Continuous
370
    -3
390
F
347
EE
348
0
  0
LAYER
  5
22D
330
2
100
AcDbSymbolTableRecord
100
AcDbLayerTableRecord
  2
Defpoints
 70
     0
 62
     7
  6
Continuous
290
     0
370
    -3
390
F
347
EE
348
0
  0
LAYER
  5
37E
330
2
100
AcDbSymbolTableRecord
100
AcDbLayerTableRecord
  2
DIMENSION
 70
     0
 62
     3
  6
Continuous
370
    25
390
F
347
EE
348
0
  0
LAYER
  5
3ED
330
2
100
AcDbSymbolTableRecord
100
AcDbLayerTableRecord
  2
TOP_Full_CutOut_45
 70
     0
 62
     5
  6
Continuous
370
    -3
390
F
347
EE
348
0
  0
LAYER
  5
3EF
330
2
100
AcDbSymbolTableRecord
100
AcDbLayerTableRecord
  2
TOP_Full_CutOut_90_1
 70
     0
 62
     7
  6
Continuous
370
    18
390
F
347
EE
348
0
  0
LAYER
  5
3F0
330
2
100
AcDbSymbolTableRecord
100
AcDbLayerTableRecord
  2
TOP_Full_CutOut_90
 70
     0
 62
     7
  6
Continuous
370
    -3
390
F
347
EE
348
0
  0
LAYER
  5
3F1
330
2
100
AcDbSymbolTableRecord
100
AcDbLayerTableRecord
  2
TOP_Drill
 70
     0
 62
     1
  6
Continuous
370
    -3
390
F
347
EE
348
0
  0
LAYER
  5
3F3
330
2
100
AcDbSymbolTableRecord
100
AcDbLayerTableRecord
  2
BOT_Full_CutOut_90
 70
     0
 62
     4
  6
Continuous
370
    -3
390
F
347
EE
348
0
  0
LAYER
  5
3F4
330
2
100
AcDbSymbolTableRecord
100
AcDbLayerTableRecord
  2
BOT_Drill
 70
     0
 62
     6
  6
Continuous
370
    -3
390
F
347
EE
348
0
  0
LAYER
  5
3F5
330
2
100
AcDbSymbolTableRecord
100
AcDbLayerTableRecord
  2
BOT_Drill_1
 70
     0
 62
     6
  6
Continuous
370
    25
390
F
347
EE
348
0
  0
LAYER
  5
4B2
330
2
100
AcDbSymbolTableRecord
100
AcDbLayerTableRecord
  2
BOT_Full_CutOut_45
 70
     0
 62
     3
  6
Continuous
370
    -3
390
F
347
EE
348
0
  0
LAYER
  5
4B3
330
2
100
AcDbSymbolTableRecord
100
AcDbLayerTableRecord
  2
TOP_Partial_CutOut_45
 70
     0
 62
     1
  6
Continuous
370
    -3
390
F
347
EE
348
0
  0
LAYER
  5
4B4
330
2
100
AcDbSymbolTableRecord
100
AcDbLayerTableRecord
  2
BOT_Partial_CutOut_45
 70
     0
 62
     7
  6
Continuous
370
    -3
390
F
347
EE
348
0
  0
LAYER
  5
4B5
330
2
100
AcDbSymbolTableRecord
100
AcDbLayerTableRecord
  2
BOT_Full_CutOut_90_1
 70
     0
 62
     4
  6
Continuous
370
    18
390
F
347
EE
348
0
  0
LAYER
  5
4B6
330
2
100
AcDbSymbolTableRecord
100
AcDbLayerTableRecord
  2
BOT_Full_CutOut_90_2
 70
     0
 62
     4
  6
Continuous
370
    18
390
F
347
EE
348
0
  0
LAYER
  5
4B7
330
2
100
AcDbSymbolTableRecord
100
AcDbLayerTableRecord
  2
TOP_Full_CutOut_90_2
 70
     0
 62
     7
  6
Continuous
370
    18
390
F
347
EE
348
0
  0
LAYER
  5
4B8
330
2
100
AcDbSymbolTableRecord
100
AcDbLayerTableRecord
  2
BOT_Full_CutOut_90_3
 70
     0
 62
     4
  6
Continuous
370
    18
390
F
347
EE
348
0
  0
LAYER
  5
4B9
330
2
100
AcDbSymbolTableRecord
100
AcDbLayerTableRecord
  2
TOP_Full_CutOut_90_3
 70
     0
 62
     7
  6
Continuous
370
    18
390
F
347
EE
348
0
  0
LAYER
  5
4BA
330
2
100
AcDbSymbolTableRecord
100
AcDbLayerTableRecord
  2
TOP_Full_CutOut_90_4
 70
     0
 62
     7
  6
Continuous
370
    -3
390
F
347
EE
348
0
  0
LAYER
  5
4BB
330
2
100
AcDbSymbolTableRecord
100
AcDbLayerTableRecord
  2
TOP_Full_CutOut_90_5
 70
     0
 62
     7
  6
Continuous
370
    -3
390
F
347
EE
348
0
  0
LAYER
  5
4BC
330
2
100
AcDbSymbolTableRecord
100
AcDbLayerTableRecord
  2
BOT_Full_CutOut_90_4
 70
     0
 62
    -4
  6
Continuous
370
    -3
390
F
347
EE
348
0
  0
LAYER
  5
4BD
330
2
100
AcDbSymbolTableRecord
100
AcDbLayerTableRecord
  2
BOT_Full_CutOut_90_5
 70
     0
 62
     4
  6
Continuous
370
    -3
390
F
347
EE
348
0
  0
LAYER
  5
4BE
330
2
100
AcDbSymbolTableRecord
100
AcDbLayerTableRecord
  2
TOP_Drill_1
 70
     0
 62
     1
  6
Continuous
370
    -3
390
F
347
EE
348
0
  0
LAYER
  5
4BF
330
2
100
AcDbSymbolTableRecord
100
AcDbLayerTableRecord
  2
TOP_Drill_2
 70
     0
 62
     1
  6
Continuous
370
    25
390
F
347
EE
348
0
  0
LAYER
  5
4C0
330
2
100
AcDbSymbolTableRecord
100
AcDbLayerTableRecord
  2
BOT_Drill_2
 70
     0
 62
     6
  6
Continuous
370
    -3
390
F
347
EE
348
0
  0
LAYER
  5
4C1
330
2
100
AcDbSymbolTableRecord
100
AcDbLayerTableRecord
  2
BOT_Full_CutOut_45_1
 70
     0
 62
     3
  6
Continuous
370
    -3
390
F
347
EE
348
0
  0
LAYER
  5
4C2
330
2
100
AcDbSymbolTableRecord
100
AcDbLayerTableRecord
  2
BOT_Full_CutOut_45_2
 70
     0
 62
     3
  6
Continuous
370
    -3
390
F
347
EE
348
0
  0
LAYER
  5
4C3
330
2
100
AcDbSymbolTableRecord
100
AcDbLayerTableRecord
  2
BOT_Full_CutOut_45_3
 70
     0
 62
     3
  6
Continuous
370
    -3
390
F
347
EE
348
0
  0
LAYER
  5
4C4
330
2
100
AcDbSymbolTableRecord
100
AcDbLayerTableRecord
  2
TOP_Full_CutOut_45_1
 70
     0
 62
     5
  6
Continuous
370
    -3
390
F
347
EE
348
0
  0
LAYER
  5
4C5
330
2
100
AcDbSymbolTableRecord
100
AcDbLayerTableRecord
  2
TOP_Full_CutOut_45_2
 70
     0
 62
     5
  6
Continuous
370
    -3
390
F
347
EE
348
0
  0
LAYER
  5
4C6
330
2
100
AcDbSymbolTableRecord
100
AcDbLayerTableRecord
  2
TOP_Full_CutOut_45_3
 70
     0
 62
     5
  6
Continuous
370
    -3
390
F
347
EE
348
0
  0
ENDTAB
  0
TABLE
  2
STYLE
  5
3
330
0
100
AcDbSymbolTable
 70
     3
  0
STYLE
  5
11
330
3
100
AcDbSymbolTableRecord
100
AcDbTextStyleTableRecord
  2
Standard
 70
     0
 40
0.0
 41
1.0
 50
0.0
 71
     0
 42
2.5
  3
txt.shx
  4

  0
STYLE
  5
1E3
330
3
100
AcDbSymbolTableRecord
100
AcDbTextStyleTableRecord
  2

 70
     1
 40
0.0
 41
1.0
 50
0.0
 71
     0
 42
0.2
  3
GOST 2.303-68.shx
  4

  0
ENDTAB
  0
TABLE
  2
VIEW
  5
6
330
0
100
AcDbSymbolTable
 70
     0
  0
ENDTAB
  0
TABLE
  2
UCS
  5
7
330
0
100
AcDbSymbolTable
 70
     0
  0
ENDTAB
  0
TABLE
  2
APPID
  5
9
330
0
100
AcDbSymbolTable
 70
    15
  0
APPID
  5
12
330
9
100
AcDbSymbolTableRecord
100
AcDbRegAppTableRecord
  2
ACAD
 70
     0
  0
APPID
  5
9E
330
9
100
AcDbSymbolTableRecord
100
AcDbRegAppTableRecord
  2
ACAD_PSEXT
 70
     0
  0
APPID
  5
133
330
9
100
AcDbSymbolTableRecord
100
AcDbRegAppTableRecord
  2
AcadAnnoPO
 70
     0
  0
APPID
  5
134
330
9
100
AcDbSymbolTableRecord
100
AcDbRegAppTableRecord
  2
AcadAnnotative
 70
     0
  0
APPID
  5
135
330
9
100
AcDbSymbolTableRecord
100
AcDbRegAppTableRecord
  2
ACAD_DSTYLE_DIMJAG
 70
     0
  0
APPID
  5
136
330
9
100
AcDbSymbolTableRecord
100
AcDbRegAppTableRecord
  2
ACAD_DSTYLE_DIMTALN
 70
     0
  0
APPID
  5
165
330
9
100
AcDbSymbolTableRecord
100
AcDbRegAppTableRecord
  2
ACAD_MLEADERVER
 70
     0
  0
APPID
  5
1E1
330
9
100
AcDbSymbolTableRecord
100
AcDbRegAppTableRecord
  2
MCS_DIM1
 70
     0
  0
APPID
  5
1E2
330
9
100
AcDbSymbolTableRecord
100
AcDbRegAppTableRecord
  2
McsXdata5
 70
     0
  0
APPID
  5
209
330
9
100
AcDbSymbolTableRecord
100
AcDbRegAppTableRecord
  2
MCS_PARAMS_DATA
 70
     0
  0
APPID
  5
20C
330
9
100
AcDbSymbolTableRecord
100
AcDbRegAppTableRecord
  2
MCS_PARAMS_HIDDEN_DATA
 70
     0
  0
APPID
  5
34D
330
9
100
AcDbSymbolTableRecord
100
AcDbRegAppTableRecord
  2
MCS_DOCUMENT_ID
 70
     0
  0
APPID
  5
353
330
9
100
AcDbSymbolTableRecord
100
AcDbRegAppTableRecord
  2
McSubentIdentification
 70
     0
  0
APPID
  5
355
330
9
100
AcDbSymbolTableRecord
100
AcDbRegAppTableRecord
  2
MC_VERSION_DATA
 70
     0
  0
APPID
  5
36F
330
9
100
AcDbSymbolTableRecord
100
AcDbRegAppTableRecord
  2
ACAD_DSTYLE_DIMRADIAL_EXTENSION
 70
     0
  0
ENDTAB
  0
TABLE
  2
DIMSTYLE
  5
A
330
0
100
AcDbSymbolTable
 70
     1
100
AcDbDimStyleTable
  0
DIMSTYLE
105
1B0
102
{ACAD_REACTORS
330
4D7
102
}
330
A
100
AcDbSymbolTableRecord
100
AcDbDimStyleTableRecord
  2
Standard
 70
     0
 40
100.0
 41
2.5
 42
0.5
 43
6.0
 44
0.0
 50
45.000001
 73
     0
140
2.5
141
2.5
143
25.4
147
1.0
178
     0
340
11
345
15
346
15
347
15
  0
ENDTAB
  0
TABLE
  2
BLOCK_RECORD
  5
1
330
0
100
AcDbSymbolTable
 70
    15
  0
BLOCK_RECORD
  5
1F
102
{ACAD_XDICTIONARY
360
234
102
}
330
1
100
AcDbSymbolTableRecord
100
AcDbBlockTableRecord
  2
*Model_Space
340
22
 70
     0
280
     1
281
     0
  0
BLOCK_RECORD
  5
D6
330
1
100
AcDbSymbolTableRecord
100
AcDbBlockTableRecord
  2
*Paper_Space
340
D7
 70
     0
280
     1
281
     0
  0
BLOCK_RECORD
  5
21A
330
1
100
AcDbSymbolTableRecord
100
AcDbBlockTableRecord
  2
*Paper_Space0
340
21B
 70
     0
280
     1
281
     0
  0
BLOCK_RECORD
  5
1EC
330
1
100
AcDbSymbolTableRecord
100
AcDbBlockTableRecord
  2
_ARCHTICK
340
0
 70
     0
280
     1
281
     0
  0
BLOCK_RECORD
  5
1F4
330
1
100
AcDbSymbolTableRecord
100
AcDbBlockTableRecord
  2
_OPEN30
340
0
 70
     0
280
     1
281
     0
  0
BLOCK_RECORD
  5
1FC
330
1
100
AcDbSymbolTableRecord
100
AcDbBlockTableRecord
  2
_DOT
340
0
 70
     0
280
     1
281
     0
  0
BLOCK_RECORD
  5
224
330
1
100
AcDbSymbolTableRecord
100
AcDbBlockTableRecord
  2
*Paper_Space4
340
225
 70
     0
280
     1
281
     0
  0
BLOCK_RECORD
  5
D2
330
1
100
AcDbSymbolTableRecord
100
AcDbBlockTableRecord
  2
*Paper_Space5
340
D3
 70
     0
280
     1
281
     0
  0
BLOCK_RECORD
  5
21F
330
1
100
AcDbSymbolTableRecord
100
AcDbBlockTableRecord
  2
*Paper_Space6
340
220
 70
     0
280
     1
281
     0
  0
BLOCK_RECORD
  5
210
330
1
100
AcDbSymbolTableRecord
100
AcDbBlockTableRecord
  2
*Paper_Space7
340
211
 70
     0
280
     1
281
     0
  0
BLOCK_RECORD
  5
215
330
1
100
AcDbSymbolTableRecord
100
AcDbBlockTableRecord
  2
*Paper_Space8
340
216
 70
     0
280
     1
281
     0
  0
BLOCK_RECORD
  5
370
330
1
100
AcDbSymbolTableRecord
100
AcDbBlockTableRecord
  2
*D9
340
0
 70
     0
280
     1
281
     0
  0
BLOCK_RECORD
  5
37B
330
1
100
AcDbSymbolTableRecord
100
AcDbBlockTableRecord
  2
_NONE
340
0
 70
     0
280
     1
281
     0
  0
BLOCK_RECORD
  5
43D
330
1
100
AcDbSymbolTableRecord
100
AcDbBlockTableRecord
  2
*D11
340
0
 70
     0
280
     1
281
     0
  0
BLOCK_RECORD
  5
49E
330
1
100
AcDbSymbolTableRecord
100
AcDbBlockTableRecord
  2
*D12
340
0
 70
     0
280
     1
281
     0
  0
BLOCK_RECORD
  5
4D8
330
1
100
AcDbSymbolTableRecord
100
AcDbBlockTableRecord
  2
*D13
340
0
 70
     0
280
     1
281
     0
  0
BLOCK_RECORD
  5
4E8
330
1
100
AcDbSymbolTableRecord
100
AcDbBlockTableRecord
  2
*D14
340
0
 70
     0
280
     1
281
     0
  0
ENDTAB
  0
ENDSEC
  0
SECTION
  2
BLOCKS
  0
BLOCK
  5
20
330
1F
100
AcDbEntity
  8
0
100
AcDbBlockBegin
  2
*Model_Space
 70
     0
 10
0.0
 20
0.0
 30
0.0
  3
*Model_Space
  1
*Model_Space
  0
ENDBLK
  5
21
330
1F
100
AcDbEntity
  8
0
100
AcDbBlockEnd
  0
BLOCK
  5
D8
330
D6
100
AcDbEntity
 67
     1
  8
0
100
AcDbBlockBegin
  2
*Paper_Space
 70
     0
 10
0.0
 20
0.0
 30
0.0
  3
*Paper_Space
  1
*Paper_Space
  0
ENDBLK
  5
D9
330
D6
100
AcDbEntity
 67
     1
  8
0
100
AcDbBlockEnd
  0
BLOCK
  5
21C
330
21A
100
AcDbEntity
  8
0
100
AcDbBlockBegin
  2
*Paper_Space0
 70
     0
 10
0.0
 20
0.0
 30
0.0
  3
*Paper_Space0
  1
*Paper_Space0
  0
VIEWPORT
  5
21E
330
21A
100
AcDbEntity
  8
0
 48
100.0
100
AcDbViewport
 10
0.0
 20
0.0
 30
0.0
 40
840.779612
 41
486.114466
 68
     1
 69
     1
 12
328.692132
 22
196.71883
 13
0.0
 23
0.0
 14
10.0
 24
10.0
 15
10.0
 25
10.0
 16
0.0
 26
0.0
 36
1.0
 17
0.0
 27
0.0
 37
0.0
 42
50.0
 43
0.0
 44
0.0
 45
486.114466
 50
0.0
 51
0.0
 72
   100
 90
   557168
  1

281
     0
 71
     1
 74
     0
110
0.0
120
0.0
130
0.0
111
1.0
121
0.0
131
0.0
112
0.0
122
1.0
132
0.0
 79
     0
146
0.0
170
     0
 61
     5
348
F5
292
     1
282
     1
141
0.0
142
0.0
 63
   256
  0
ENDBLK
  5
21D
330
21A
100
AcDbEntity
  8
0
100
AcDbBlockEnd
  0
BLOCK
  5
1ED
330
1EC
100
AcDbEntity
  8
0
100
AcDbBlockBegin
  2
_ARCHTICK
 70
     0
 10
0.0
 20
0.0
 30
0.0
  3
_ARCHTICK
  1
_ARCHTICK
  0
POLYLINE
  5
1EF
330
1EC
100
AcDbEntity
  8
0
  6
ByBlock
 62
     0
100
AcDb2dPolyline
 66
     1
 10
0.0
 20
0.0
 30
0.0
 40
0.15
 41
0.15
  0
VERTEX
  5
1F0
330
1EF
100
AcDbEntity
  8
0
  6
ByBlock
 62
     0
100
AcDbVertex
100
AcDb2dVertex
 10
-0.5
 20
-0.5
 30
0.0
  0
VERTEX
  5
1F1
330
1EF
100
AcDbEntity
  8
0
  6
ByBlock
 62
     0
100
AcDbVertex
100
AcDb2dVertex
 10
0.5
 20
0.5
 30
0.0
  0
SEQEND
  5
1F2
330
1EF
100
AcDbEntity
  8
0
  6
ByBlock
 62
     0
  0
ENDBLK
  5
1EE
330
1EC
100
AcDbEntity
  8
0
100
AcDbBlockEnd
  0
BLOCK
  5
1F5
330
1F4
100
AcDbEntity
  8
0
100
AcDbBlockBegin
  2
_OPEN30
 70
     0
 10
0.0
 20
0.0
 30
0.0
  3
_OPEN30
  1
_OPEN30
  0
LINE
  5
1F7
330
1F4
100
AcDbEntity
  8
0
  6
ByBlock
 62
     0
370
    -2
100
AcDbLine
 10
-1.0
 20
0.267949
 30
0.0
 11
0.0
 21
0.0
 31
0.0
  0
LINE
  5
1F8
330
1F4
100
AcDbEntity
  8
0
  6
ByBlock
 62
     0
370
    -2
100
AcDbLine
 10
0.0
 20
0.0
 30
0.0
 11
-1.0
 21
-0.267949
 31
0.0
  0
LINE
  5
1F9
330
1F4
100
AcDbEntity
  8
0
  6
ByBlock
 62
     0
370
    -2
100
AcDbLine
 10
0.0
 20
0.0
 30
0.0
 11
-1.0
 21
0.0
 31
0.0
  0
ENDBLK
  5
1F6
330
1F4
100
AcDbEntity
  8
0
100
AcDbBlockEnd
  0
BLOCK
  5
1FD
330
1FC
100
AcDbEntity
  8
0
100
AcDbBlockBegin
  2
_DOT
 70
     0
 10
0.0
 20
0.0
 30
0.0
  3
_DOT
  1
_DOT
  0
POLYLINE
  5
1FF
330
1FC
100
AcDbEntity
  8
0
  6
ByBlock
 62
     0
100
AcDb2dPolyline
 66
     1
 10
0.0
 20
0.0
 30
0.0
 70
     1
 40
0.5
 41
0.5
  0
VERTEX
  5
201
330
1FF
100
AcDbEntity
  8
0
  6
ByBlock
 62
     0
100
AcDbVertex
100
AcDb2dVertex
 10
-0.25
 20
0.0
 30
0.0
 42
1.0
  0
VERTEX
  5
202
330
1FF
100
AcDbEntity
  8
0
  6
ByBlock
 62
     0
100
AcDbVertex
100
AcDb2dVertex
 10
0.25
 20
0.0
 30
0.0
 42
1.0
  0
SEQEND
  5
203
330
1FF
100
AcDbEntity
  8
0
  6
ByBlock
 62
     0
  0
LINE
  5
200
330
1FC
100
AcDbEntity
  8
0
  6
ByBlock
 62
     0
370
    -2
100
AcDbLine
 10
-0.5
 20
0.0
 30
0.0
 11
-1.0
 21
0.0
 31
0.0
  0
ENDBLK
  5
1FE
330
1FC
100
AcDbEntity
  8
0
100
AcDbBlockEnd
  0
BLOCK
  5
226
330
224
100
AcDbEntity
  8
0
100
AcDbBlockBegin
  2
*Paper_Space4
 70
     0
 10
0.0
 20
0.0
 30
0.0
  3
*Paper_Space4
  1
*Paper_Space4
  0
VIEWPORT
  5
228
330
224
100
AcDbEntity
  8
0
 48
100.0
100
AcDbViewport
 10
0.0
 20
0.0
 30
0.0
 40
1715.87676
 41
992.070339
 68
     1
 69
     1
 12
497.20797
 22
380.27835
 13
0.0
 23
0.0
 14
10.0
 24
10.0
 15
10.0
 25
10.0
 16
0.0
 26
0.0
 36
1.0
 17
0.0
 27
0.0
 37
0.0
 42
50.0
 43
0.0
 44
0.0
 45
992.070339
 50
0.0
 51
0.0
 72
   100
 90
   557168
  1

281
     0
 71
     1
 74
     0
110
0.0
120
0.0
130
0.0
111
1.0
121
0.0
131
0.0
112
0.0
122
1.0
132
0.0
 79
     0
146
0.0
170
     0
 61
     5
348
F5
292
     1
282
     1
141
0.0
142
0.0
 63
   256
  0
ENDBLK
  5
227
330
224
100
AcDbEntity
  8
0
100
AcDbBlockEnd
  0
BLOCK
  5
D4
330
D2
100
AcDbEntity
  8
0
100
AcDbBlockBegin
  2
*Paper_Space5
 70
     0
 10
0.0
 20
0.0
 30
0.0
  3
*Paper_Space5
  1
*Paper_Space5
  0
VIEWPORT
  5
229
330
D2
100
AcDbEntity
  8
0
 48
100.0
100
AcDbViewport
 10
0.0
 20
0.0
 30
0.0
 40
460.802478
 41
238.196088
 68
     1
 69
     1
 12
128.5
 22
97.5
 13
0.0
 23
0.0
 14
10.0
 24
10.0
 15
10.0
 25
10.0
 16
0.0
 26
0.0
 36
1.0
 17
0.0
 27
0.0
 37
0.0
 42
50.0
 43
0.0
 44
0.0
 45
238.196088
 50
0.0
 51
0.0
 72
   100
 90
   557168
  1

281
     0
 71
     1
 74
     0
110
0.0
120
0.0
130
0.0
111
1.0
121
0.0
131
0.0
112
0.0
122
1.0
132
0.0
 79
     0
146
0.0
170
     0
 61
     5
348
F5
292
     1
282
     1
141
0.0
142
0.0
 63
   256
  0
ENDBLK
  5
D5
330
D2
100
AcDbEntity
  8
0
100
AcDbBlockEnd
  0
BLOCK
  5
221
330
21F
100
AcDbEntity
  8
0
100
AcDbBlockBegin
  2
*Paper_Space6
 70
     0
 10
0.0
 20
0.0
 30
0.0
  3
*Paper_Space6
  1
*Paper_Space6
  0
VIEWPORT
  5
223
330
21F
100
AcDbEntity
  8
0
 48
100.0
100
AcDbViewport
 10
0.0
 20
0.0
 30
0.0
 40
1201.113732
 41
694.449237
 68
     1
 69
     1
 12
454.893705
 22
285.342469
 13
0.0
 23
0.0
 14
10.0
 24
10.0
 15
10.0
 25
10.0
 16
0.0
 26
0.0
 36
1.0
 17
0.0
 27
0.0
 37
0.0
 42
50.0
 43
0.0
 44
0.0
 45
694.449237
 50
0.0
 51
0.0
 72
   100
 90
   557168
  1

281
     0
 71
     1
 74
     0
110
0.0
120
0.0
130
0.0
111
1.0
121
0.0
131
0.0
112
0.0
122
1.0
132
0.0
 79
     0
146
0.0
170
     0
 61
     5
348
F5
292
     1
282
     1
141
0.0
142
0.0
 63
   256
  0
ENDBLK
  5
222
330
21F
100
AcDbEntity
  8
0
100
AcDbBlockEnd
  0
BLOCK
  5
212
330
210
100
AcDbEntity
  8
0
100
AcDbBlockBegin
  2
*Paper_Space7
 70
     0
 10
0.0
 20
0.0
 30
0.0
  3
*Paper_Space7
  1
*Paper_Space7
  0
VIEWPORT
  5
214
330
210
100
AcDbEntity
  8
0
 48
100.0
100
AcDbViewport
 10
0.0
 20
0.0
 30
0.0
 40
588.545729
 41
340.280126
 68
     1
 69
     1
 12
151.627136
 22
129.479246
 13
0.0
 23
0.0
 14
10.0
 24
10.0
 15
10.0
 25
10.0
 16
0.0
 26
0.0
 36
1.0
 17
0.0
 27
0.0
 37
0.0
 42
50.0
 43
0.0
 44
0.0
 45
340.280126
 50
0.0
 51
0.0
 72
   100
 90
   557168
  1

281
     0
 71
     1
 74
     0
110
0.0
120
0.0
130
0.0
111
1.0
121
0.0
131
0.0
112
0.0
122
1.0
132
0.0
 79
     0
146
0.0
170
     0
 61
     5
348
F5
292
     1
282
     1
141
0.0
142
0.0
 63
   256
  0
ENDBLK
  5
213
330
210
100
AcDbEntity
  8
0
100
AcDbBlockEnd
  0
BLOCK
  5
217
330
215
100
AcDbEntity
  8
0
100
AcDbBlockBegin
  2
*Paper_Space8
 70
     0
 10
0.0
 20
0.0
 30
0.0
  3
*Paper_Space8
  1
*Paper_Space8
  0
VIEWPORT
  5
219
330
215
100
AcDbEntity
  8
0
 48
100.0
100
AcDbViewport
 10
0.0
 20
0.0
 30
0.0
 40
588.545729
 41
340.280126
 68
     1
 69
     1
 12
213.910905
 22
130.914724
 13
0.0
 23
0.0
 14
10.0
 24
10.0
 15
10.0
 25
10.0
 16
0.0
 26
0.0
 36
1.0
 17
0.0
 27
0.0
 37
0.0
 42
50.0
 43
0.0
 44
0.0
 45
340.280126
 50
0.0
 51
0.0
 72
   100
 90
   557168
  1

281
     0
 71
     1
 74
     0
110
0.0
120
0.0
130
0.0
111
1.0
121
0.0
131
0.0
112
0.0
122
1.0
132
0.0
 79
     0
146
0.0
170
     0
 61
     5
348
F5
292
     1
282
     1
141
0.0
142
0.0
 63
   256
  0
ENDBLK
  5
218
330
215
100
AcDbEntity
  8
0
100
AcDbBlockEnd
  0
BLOCK
  5
371
330
370
100
AcDbEntity
  8
0
100
AcDbBlockBegin
  2
*D9
 70
     1
 10
0.0
 20
0.0
 30
0.0
  3
*D9
  1
*D9
  0
LINE
  5
373
330
370
100
AcDbEntity
  8
DIMENSION
 62
     0
370
    -2
100
AcDbLine
 10
30.40333
 20
117.584308
 30
0.0
 11
27.90333
 21
117.584308
 31
0.0
  0
LINE
  5
374
330
370
100
AcDbEntity
  8
DIMENSION
 62
     0
370
    -2
100
AcDbLine
 10
24.367796
 20
114.048774
 30
0.0
 11
27.90333
 21
117.584308
 31
0.0
  0
MTEXT
  5
375
330
370
100
AcDbEntity
  8
DIMENSION
 62
     0
100
AcDbMText
 10
38.069997
 20
117.584308
 30
0.0
 40
2.5
 41
0.0
 46
0.0
 71
     5
 72
     1
  1
\A1;R2.0000
 73
     1
 44
1.0
  0
SOLID
  5
376
330
370
100
AcDbEntity
  8
DIMENSION
 62
     0
100
AcDbTrace
 10
25.840935
 20
116.111168
 30
0.0
 11
26.430191
 21
115.521913
 31
0.0
 12
24.367796
 22
114.048774
 32
0.0
 13
24.367796
 23
114.048774
 33
0.0
  0
LINE
  5
377
330
370
100
AcDbEntity
  8
DIMENSION
 62
     0
100
AcDbLine
 10
20.453582
 20
112.63456
 30
0.0
 11
25.453582
 21
112.63456
 31
0.0
  0
LINE
  5
378
330
370
100
AcDbEntity
  8
DIMENSION
 62
     0
100
AcDbLine
 10
22.953582
 20
110.13456
 30
0.0
 11
22.953582
 21
115.13456
 31
0.0
  0
POINT
  5
379
330
370
100
AcDbEntity
  8
Defpoints
 62
     0
100
AcDbPoint
 10
24.367796
 20
114.048774
 30
0.0
  0
POINT
  5
37A
330
370
100
AcDbEntity
  8
Defpoints
 62
     0
100
AcDbPoint
 10
22.953582
 20
112.63456
 30
0.0
  0
ENDBLK
  5
372
330
370
100
AcDbEntity
  8
0
100
AcDbBlockEnd
  0
BLOCK
  5
37C
330
37B
100
AcDbEntity
  8
0
100
AcDbBlockBegin
  2
_NONE
 70
     0
 10
0.0
 20
0.0
 30
0.0
  3
_NONE
  1
_NONE
  0
ENDBLK
  5
37D
330
37B
100
AcDbEntity
  8
0
100
AcDbBlockEnd
  0
BLOCK
  5
43E
330
43D
100
AcDbEntity
  8
0
100
AcDbBlockBegin
  2
*D11
 70
     1
 10
0.0
 20
0.0
 30
0.0
  3
*D11
  1
*D11
  0
LINE
  5
43F
330
43D
100
AcDbEntity
  8
DIMENSION
 62
     0
370
    -2
100
AcDbLine
 10
293.832406
 20
83.242702
 30
0.0
 11
370.532886
 21
83.242702
 31
0.0
  0
LINE
  5
440
330
43D
100
AcDbEntity
  8
DIMENSION
 62
     0
370
    -2
100
AcDbLine
 10
293.832406
 20
75.734492
 30
0.0
 11
370.532886
 21
75.734492
 31
0.0
  0
LINE
  5
441
330
43D
100
AcDbEntity
  8
DIMENSION
 62
     0
370
    -2
100
AcDbLine
 10
370.532886
 20
73.234492
 30
0.0
 11
368.032886
 21
73.234492
 31
0.0
  0
LINE
  5
442
330
43D
100
AcDbEntity
  8
DIMENSION
 62
     0
370
    -2
100
AcDbLine
 10
370.532886
 20
80.742702
 30
0.0
 11
370.532886
 21
78.234492
 31
0.0
  0
LINE
  5
443
330
43D
100
AcDbEntity
  8
DIMENSION
 62
     0
370
    -2
100
AcDbLine
 10
370.532886
 20
75.734492
 30
0.0
 11
370.532886
 21
73.234492
 31
0.0
  0
SOLID
  5
444
330
43D
100
AcDbEntity
  8
DIMENSION
 62
     0
100
AcDbTrace
 10
370.949553
 20
80.742702
 30
0.0
 11
370.116219
 21
80.742702
 31
0.0
 12
370.532886
 22
83.242702
 32
0.0
 13
370.532886
 23
83.242702
 33
0.0
  0
SOLID
  5
445
330
43D
100
AcDbEntity
  8
DIMENSION
 62
     0
100
AcDbTrace
 10
370.116219
 20
78.234492
 30
0.0
 11
370.949553
 21
78.234492
 31
0.0
 12
370.532886
 22
75.734492
 32
0.0
 13
370.532886
 23
75.734492
 33
0.0
  0
MTEXT
  5
446
330
43D
100
AcDbEntity
  8
DIMENSION
 62
     0
100
AcDbMText
 10
360.991219
 20
73.234492
 30
0.0
 40
2.5
 41
0.0
 46
0.0
 71
     5
 72
     1
  1
\A1;7.5082
 73
     1
 44
1.0
  0
POINT
  5
447
330
43D
100
AcDbEntity
  8
Defpoints
 62
     0
100
AcDbPoint
 10
293.332406
 20
83.242702
 30
0.0
  0
POINT
  5
448
330
43D
100
AcDbEntity
  8
Defpoints
 62
     0
100
AcDbPoint
 10
293.332406
 20
75.734492
 30
0.0
  0
POINT
  5
449
330
43D
100
AcDbEntity
  8
Defpoints
 62
     0
100
AcDbPoint
 10
370.532886
 20
75.734492
 30
0.0
  0
ENDBLK
  5
44A
330
43D
100
AcDbEntity
  8
0
100
AcDbBlockEnd
  0
BLOCK
  5
49F
330
49E
100
AcDbEntity
  8
0
100
AcDbBlockBegin
  2
*D12
 70
     1
 10
0.0
 20
0.0
 30
0.0
  3
*D12
  1
*D12
  0
LINE
  5
4A0
330
49E
100
AcDbEntity
  8
DIMENSION
 62
     0
370
    -2
100
AcDbLine
 10
659.657293
 20
178.769843
 30
0.0
 11
736.357773
 21
178.769843
 31
0.0
  0
LINE
  5
4A1
330
49E
100
AcDbEntity
  8
DIMENSION
 62
     0
370
    -2
100
AcDbLine
 10
659.657293
 20
171.261632
 30
0.0
 11
736.357773
 21
171.261632
 31
0.0
  0
LINE
  5
4A2
330
49E
100
AcDbEntity
  8
DIMENSION
 62
     0
370
    -2
100
AcDbLine
 10
736.357773
 20
168.761632
 30
0.0
 11
733.857773
 21
168.761632
 31
0.0
  0
LINE
  5
4A3
330
49E
100
AcDbEntity
  8
DIMENSION
 62
     0
370
    -2
100
AcDbLine
 10
736.357773
 20
176.269843
 30
0.0
 11
736.357773
 21
173.761632
 31
0.0
  0
LINE
  5
4A4
330
49E
100
AcDbEntity
  8
DIMENSION
 62
     0
370
    -2
100
AcDbLine
 10
736.357773
 20
171.261632
 30
0.0
 11
736.357773
 21
168.761632
 31
0.0
  0
SOLID
  5
4A5
330
49E
100
AcDbEntity
  8
DIMENSION
 62
     0
100
AcDbTrace
 10
736.77444
 20
176.269843
 30
0.0
 11
735.941107
 21
176.269843
 31
0.0
 12
736.357773
 22
178.769843
 32
0.0
 13
736.357773
 23
178.769843
 33
0.0
  0
SOLID
  5
4A6
330
49E
100
AcDbEntity
  8
DIMENSION
 62
     0
100
AcDbTrace
 10
735.941107
 20
173.761632
 30
0.0
 11
736.77444
 21
173.761632
 31
0.0
 12
736.357773
 22
171.261632
 32
0.0
 13
736.357773
 23
171.261632
 33
0.0
  0
MTEXT
  5
4A7
330
49E
100
AcDbEntity
  8
DIMENSION
 62
     0
100
AcDbMText
 10
726.816107
 20
168.761632
 30
0.0
 40
2.5
 41
0.0
 46
0.0
 71
     5
 72
     1
  1
\A1;7.5082
 73
     1
 44
1.0
  0
POINT
  5
4A8
330
49E
100
AcDbEntity
  8
Defpoints
 62
     0
100
AcDbPoint
 10
659.157293
 20
178.769843
 30
0.0
  0
POINT
  5
4A9
330
49E
100
AcDbEntity
  8
Defpoints
 62
     0
100
AcDbPoint
 10
659.157293
 20
171.261632
 30
0.0
  0
POINT
  5
4AA
330
49E
100
AcDbEntity
  8
Defpoints
 62
     0
100
AcDbPoint
 10
736.357773
 20
171.261632
 30
0.0
  0
ENDBLK
  5
4AB
330
49E
100
AcDbEntity
  8
0
100
AcDbBlockEnd
  0
BLOCK
  5
4D9
330
4D8
100
AcDbEntity
  8
0
100
AcDbBlockBegin
  2
*D13
 70
     1
 10
0.0
 20
0.0
 30
0.0
  3
*D13
  1
*D13
  0
LINE
  5
4DB
330
4D8
100
AcDbEntity
  8
DIMENSION
 62
     0
370
    -2
100
AcDbLine
 10
265.092526
 20
418.622678
 30
0.0
 11
279.592526
 21
418.622678
 31
0.0
  0
LINE
  5
4DC
330
4D8
100
AcDbEntity
  8
DIMENSION
 62
     0
370
    -2
100
AcDbLine
 10
265.092526
 20
382.622678
 30
0.0
 11
279.592526
 21
382.622678
 31
0.0
  0
LINE
  5
4DD
330
4D8
100
AcDbEntity
  8
DIMENSION
 62
     0
370
    -2
100
AcDbLine
 10
279.592526
 20
416.122678
 30
0.0
 11
279.592526
 21
408.289344
 31
0.0
  0
LINE
  5
4DE
330
4D8
100
AcDbEntity
  8
DIMENSION
 62
     0
370
    -2
100
AcDbLine
 10
279.592526
 20
385.122678
 30
0.0
 11
279.592526
 21
392.956011
 31
0.0
  0
SOLID
  5
4DF
330
4D8
100
AcDbEntity
  8
DIMENSION
 62
     0
100
AcDbTrace
 10
280.009192
 20
416.122678
 30
0.0
 11
279.175859
 21
416.122678
 31
0.0
 12
279.592526
 22
418.622678
 32
0.0
 13
279.592526
 23
418.622678
 33
0.0
  0
SOLID
  5
4E0
330
4D8
100
AcDbEntity
  8
DIMENSION
 62
     0
100
AcDbTrace
 10
279.175859
 20
385.122678
 30
0.0
 11
280.009192
 21
385.122678
 31
0.0
 12
279.592526
 22
382.622678
 32
0.0
 13
279.592526
 23
382.622678
 33
0.0
  0
MTEXT
  5
4E1
330
4D8
100
AcDbEntity
  8
DIMENSION
 62
     0
100
AcDbMText
 10
279.592526
 20
400.622678
 30
0.0
 40
2.5
 41
0.0
 46
0.0
 71
     5
 72
     1
  1
\A1;36.0000
 11
0.0
 21
1.0
 31
0.0
 73
     1
 44
1.0
  0
POINT
  5
4E2
330
4D8
100
AcDbEntity
  8
Defpoints
 62
     0
100
AcDbPoint
 10
264.592526
 20
418.622678
 30
0.0
  0
POINT
  5
4E3
330
4D8
100
AcDbEntity
  8
Defpoints
 62
     0
100
AcDbPoint
 10
264.592526
 20
382.622678
 30
0.0
  0
POINT
  5
4E4
330
4D8
100
AcDbEntity
  8
Defpoints
 62
     0
100
AcDbPoint
 10
279.592526
 20
382.622678
 30
0.0
  0
ENDBLK
  5
4DA
330
4D8
100
AcDbEntity
  8
0
100
AcDbBlockEnd
  0
BLOCK
  5
4E9
330
4E8
100
AcDbEntity
  8
0
100
AcDbBlockBegin
  2
*D14
 70
     1
 10
0.0
 20
0.0
 30
0.0
  3
*D14
  1
*D14
  0
LINE
  5
4EB
330
4E8
100
AcDbEntity
  8
DIMENSION
 62
     0
370
    -2
100
AcDbLine
 10
259.108659
 20
416.522678
 30
0.0
 11
259.108659
 21
409.811295
 31
0.0
  0
LINE
  5
4EC
330
4E8
100
AcDbEntity
  8
DIMENSION
 62
     0
370
    -2
100
AcDbLine
 10
292.579915
 20
409.311295
 30
0.0
 11
292.579915
 21
409.811295
 31
0.0
  0
LINE
  5
4ED
330
4E8
100
AcDbEntity
  8
DIMENSION
 62
     0
370
    -2
100
AcDbLine
 10
261.608659
 20
409.811295
 30
0.0
 11
267.760953
 21
409.811295
 31
0.0
  0
LINE
  5
4EE
330
4E8
100
AcDbEntity
  8
DIMENSION
 62
     0
370
    -2
100
AcDbLine
 10
290.079915
 20
409.811295
 30
0.0
 11
283.92762
 21
409.811295
 31
0.0
  0
SOLID
  5
4EF
330
4E8
100
AcDbEntity
  8
DIMENSION
 62
     0
100
AcDbTrace
 10
261.608659
 20
410.227962
 30
0.0
 11
261.608659
 21
409.394628
 31
0.0
 12
259.108659
 22
409.811295
 32
0.0
 13
259.108659
 23
409.811295
 33
0.0
  0
SOLID
  5
4F0
330
4E8
100
AcDbEntity
  8
DIMENSION
 62
     0
100
AcDbTrace
 10
290.079915
 20
409.394628
 30
0.0
 11
290.079915
 21
410.227962
 31
0.0
 12
292.579915
 22
409.811295
 32
0.0
 13
292.579915
 23
409.811295
 33
0.0
  0
MTEXT
  5
4F1
330
4E8
100
AcDbEntity
  8
DIMENSION
 62
     0
100
AcDbMText
 10
275.844287
 20
409.811295
 30
0.0
 40
2.5
 41
0.0
 46
0.0
 71
     5
 72
     1
  1
\A1;33.4713
 73
     1
 44
1.0
  0
POINT
  5
4F2
330
4E8
100
AcDbEntity
  8
Defpoints
 62
     0
100
AcDbPoint
 10
259.108659
 20
417.022678
 30
0.0
  0
POINT
  5
4F3
330
4E8
100
AcDbEntity
  8
Defpoints
 62
     0
100
AcDbPoint
 10
292.579915
 20
409.811295
 30
0.0
  0
POINT
  5
4F4
330
4E8
100
AcDbEntity
  8
Defpoints
 62
     0
100
AcDbPoint
 10
292.579915
 20
409.811295
 30
0.0
  0
ENDBLK
  5
4EA
330
4E8
100
AcDbEntity
  8
0
100
AcDbBlockEnd
  0
ENDSEC
  0
SECTION
  2
ENTITIES
  0
LWPOLYLINE
  5
3EB
330
1F
100
AcDbEntity
  8
TOP_Full_CutOut_90
100
AcDbPolyline
 90
      204
 70
     1
 43
0.0
 10
237.096878
 20
402.222678
 10
237.001856
 20
402.22417
 10
236.895159
 20
402.229202
 10
236.788673
 20
402.237583
 10
236.682503
 20
402.249304
 10
236.576753
 20
402.264354
 10
236.471528
 20
402.282719
 10
236.366931
 20
402.30438
 10
236.263067
 20
402.329316
 10
236.160037
 20
402.357501
 10
236.057944
 20
402.388909
 10
235.956887
 20
402.423509
 10
235.856967
 20
402.461265
 10
235.758283
 20
402.502142
 10
235.66093
 20
402.546098
 10
235.565007
 20
402.59309
 10
235.470607
 20
402.643073
 10
235.377824
 20
402.695995
 10
235.286749
 20
402.751806
 10
235.197471
 20
402.810451
 10
235.11008
 20
402.87187
 10
235.024661
 20
402.936004
 10
234.941299
 20
403.00279
 10
234.860076
 20
403.072161
 10
234.781072
 20
403.144049
 10
234.704365
 20
403.218384
 10
234.630031
 20
403.295091
 10
234.558142
 20
403.374095
 10
234.488771
 20
403.455318
 10
234.421986
 20
403.53868
 10
234.357851
 20
403.624099
 10
234.296432
 20
403.71149
 10
234.237788
 20
403.800767
 10
234.181977
 20
403.891843
 10
234.129054
 20
403.984626
 10
234.079072
 20
404.079026
 10
234.032079
 20
404.174949
 10
233.988123
 20
404.272301
 10
233.947247
 20
404.370986
 10
233.90949
 20
404.470906
 10
233.874891
 20
404.571963
 10
233.843483
 20
404.674056
 10
233.815297
 20
404.777086
 10
233.790361
 20
404.88095
 10
233.7687
 20
404.985546
 10
233.750336
 20
405.090771
 10
233.735285
 20
405.196521
 10
233.723564
 20
405.302692
 10
233.715183
 20
405.409178
 10
233.710152
 20
405.515875
 10
233.708659
 20
405.610896
 10
233.708659
 20
413.634459
 10
233.710152
 20
413.72948
 10
233.715183
 20
413.836177
 10
233.723564
 20
413.942663
 10
233.735285
 20
414.048834
 10
233.750336
 20
414.154584
 10
233.7687
 20
414.259809
 10
233.790361
 20
414.364405
 10
233.815297
 20
414.468269
 10
233.843483
 20
414.571299
 10
233.874891
 20
414.673393
 10
233.90949
 20
414.774449
 10
233.947247
 20
414.874369
 10
233.988123
 20
414.973054
 10
234.032079
 20
415.070406
 10
234.079072
 20
415.166329
 10
234.129054
 20
415.260729
 10
234.181977
 20
415.353513
 10
234.237788
 20
415.444588
 10
234.296432
 20
415.533865
 10
234.357851
 20
415.621256
 10
234.421986
 20
415.706675
 10
234.488771
 20
415.790037
 10
234.558142
 20
415.87126
 10
234.630031
 20
415.950264
 10
234.704365
 20
416.026972
 10
234.781072
 20
416.101306
 10
234.860076
 20
416.173194
 10
234.941299
 20
416.242565
 10
235.024661
 20
416.309351
 10
235.11008
 20
416.373485
 10
235.197471
 20
416.434905
 10
235.286749
 20
416.493549
 10
235.377824
 20
416.54936
 10
235.470607
 20
416.602282
 10
235.565007
 20
416.652265
 10
235.66093
 20
416.699257
 10
235.758283
 20
416.743213
 10
235.856967
 20
416.78409
 10
235.956887
 20
416.821846
 10
236.057944
 20
416.856446
 10
236.160037
 20
416.887854
 10
236.263067
 20
416.91604
 10
236.366931
 20
416.940975
 10
236.471528
 20
416.962636
 10
236.576753
 20
416.981001
 10
236.682503
 20
416.996051
 10
236.788673
 20
417.007773
 10
236.895159
 20
417.016153
 10
237.001856
 20
417.021185
 10
237.096878
 20
417.022678
 10
245.12044
 20
417.022678
 10
245.215461
 20
417.021185
 10
245.322158
 20
417.016153
 10
245.428645
 20
417.007773
 10
245.534815
 20
416.996051
 10
245.640565
 20
416.981001
 10
245.74579
 20
416.962636
 10
245.850386
 20
416.940975
 10
245.95425
 20
416.91604
 10
246.05728
 20
416.887854
 10
246.159374
 20
416.856446
 10
246.26043
 20
416.821846
 10
246.36035
 20
416.78409
 10
246.459035
 20
416.743213
 10
246.556387
 20
416.699257
 10
246.652311
 20
416.652265
 10
246.74671
 20
416.602282
 10
246.839494
 20
416.54936
 10
246.930569
 20
416.493549
 10
247.019846
 20
416.434905
 10
247.107237
 20
416.373485
 10
247.192656
 20
416.309351
 10
247.276018
 20
416.242565
 10
247.357242
 20
416.173194
 10
247.436246
 20
416.101306
 10
247.512953
 20
416.026972
 10
247.587287
 20
415.950264
 10
247.659175
 20
415.87126
 10
247.728546
 20
415.790037
 10
247.795332
 20
415.706675
 10
247.859466
 20
415.621256
 10
247.920886
 20
415.533865
 10
247.97953
 20
415.444588
 10
248.035341
 20
415.353513
 10
248.088264
 20
415.260729
 10
248.138246
 20
415.166329
 10
248.185238
 20
415.070406
 10
248.229194
 20
414.973054
 10
248.270071
 20
414.874369
 10
248.307828
 20
414.774449
 10
248.342427
 20
414.673393
 10
248.373835
 20
414.571299
 10
248.402021
 20
414.468269
 10
248.426956
 20
414.364405
 10
248.448617
 20
414.259809
 10
248.466982
 20
414.154584
 10
248.482032
 20
414.048834
 10
248.493754
 20
413.942663
 10
248.502134
 20
413.836177
 10
248.507166
 20
413.72948
 10
248.508659
 20
413.634459
 10
248.508659
 20
405.610896
 10
248.507166
 20
405.515875
 10
248.502134
 20
405.409178
 10
248.493754
 20
405.302692
 10
248.482032
 20
405.196521
 10
248.466982
 20
405.090771
 10
248.448617
 20
404.985546
 10
248.426956
 20
404.88095
 10
248.402021
 20
404.777086
 10
248.373835
 20
404.674056
 10
248.342427
 20
404.571963
 10
248.307828
 20
404.470906
 10
248.270071
 20
404.370986
 10
248.229194
 20
404.272301
 10
248.185238
 20
404.174949
 10
248.138246
 20
404.079026
 10
248.088264
 20
403.984626
 10
248.035341
 20
403.891843
 10
247.97953
 20
403.800767
 10
247.920886
 20
403.71149
 10
247.859466
 20
403.624099
 10
247.795332
 20
403.53868
 10
247.728546
 20
403.455318
 10
247.659175
 20
403.374095
 10
247.587287
 20
403.295091
 10
247.512953
 20
403.218384
 10
247.436246
 20
403.144049
 10
247.357242
 20
403.072161
 10
247.276018
 20
403.00279
 10
247.192656
 20
402.936004
 10
247.107237
 20
402.87187
 10
247.019846
 20
402.810451
 10
246.930569
 20
402.751806
 10
246.839494
 20
402.695995
 10
246.74671
 20
402.643073
 10
246.652311
 20
402.59309
 10
246.556387
 20
402.546098
 10
246.459035
 20
402.502142
 10
246.36035
 20
402.461265
 10
246.26043
 20
402.423509
 10
246.159374
 20
402.388909
 10
246.05728
 20
402.357501
 10
245.95425
 20
402.329316
 10
245.850386
 20
402.30438
 10
245.74579
 20
402.282719
 10
245.640565
 20
402.264354
 10
245.534815
 20
402.249304
 10
245.428645
 20
402.237583
 10
245.322158
 20
402.229202
 10
245.215461
 20
402.22417
 10
245.12044
 20
402.222678
  0
LWPOLYLINE
  5
3EC
330
1F
100
AcDbEntity
  8
TOP_Full_CutOut_90_2
100
AcDbPolyline
 90
      404
 70
     1
 43
0.0
 10
246.614549
 20
418.622678
 10
246.663635
 20
418.622292
 10
246.718598
 20
418.620997
 10
246.773534
 20
418.618838
 10
246.828429
 20
418.615817
 10
246.883269
 20
418.611934
 10
246.938042
 20
418.607191
 10
246.992734
 20
418.601587
 10
247.047331
 20
418.595125
 10
247.10182
 20
418.587806
 10
247.156187
 20
418.579632
 10
247.210419
 20
418.570606
 10
247.264502
 20
418.560728
 10
247.318424
 20
418.550003
 10
247.37217
 20
418.538431
 10
247.425728
 20
418.526017
 10
247.479085
 20
418.512763
 10
247.532227
 20
418.498673
 10
247.585141
 20
418.48375
 10
247.637814
 20
418.467997
 10
247.690233
 20
418.451419
 10
247.742385
 20
418.43402
 10
247.794257
 20
418.415804
 10
247.845837
 20
418.396775
 10
247.897112
 20
418.376938
 10
247.948069
 20
418.356299
 10
247.998695
 20
418.334861
 10
248.048978
 20
418.312631
 10
248.098906
 20
418.289614
 10
248.148466
 20
418.265816
 10
248.197647
 20
418.241242
 10
248.246435
 20
418.215898
 10
248.294819
 20
418.189792
 10
248.342787
 20
418.162928
 10
248.390327
 20
418.135314
 10
248.437428
 20
418.106958
 10
248.484077
 20
418.077864
 10
248.530264
 20
418.048042
 10
248.575977
 20
418.017498
 10
248.621204
 20
417.986239
 10
248.665934
 20
417.954274
 10
248.710157
 20
417.921611
 10
248.753862
 20
417.888257
 10
248.797037
 20
417.85422
 10
248.839672
 20
417.81951
 10
248.881757
 20
417.784134
 10
248.923281
 20
417.748101
 10
248.964234
 20
417.711421
 10
249.004605
 20
417.674102
 10
249.044386
 20
417.636153
 10
249.083565
 20
417.597584
 10
249.122134
 20
417.558405
 10
249.160083
 20
417.518624
 10
249.197402
 20
417.478253
 10
249.234082
 20
417.4373
 10
249.270115
 20
417.395776
 10
249.305491
 20
417.353691
 10
249.340201
 20
417.311056
 10
249.374238
 20
417.267881
 10
249.407592
 20
417.224176
 10
249.440256
 20
417.179953
 10
249.472221
 20
417.135223
 10
249.503479
 20
417.089995
 10
249.534023
 20
417.044283
 10
249.563846
 20
416.998096
 10
249.592939
 20
416.951447
 10
249.621296
 20
416.904346
 10
249.648909
 20
416.856806
 10
249.675773
 20
416.808838
 10
249.701879
 20
416.760454
 10
249.727223
 20
416.711665
 10
249.751797
 20
416.662485
 10
249.775595
 20
416.612925
 10
249.798612
 20
416.562997
 10
249.820842
 20
416.512714
 10
249.84228
 20
416.462087
 10
249.86292
 20
416.411131
 10
249.882756
 20
416.359856
 10
249.901785
 20
416.308276
 10
249.920001
 20
416.256404
 10
249.937401
 20
416.204251
 10
249.953979
 20
416.151832
 10
249.969731
 20
416.099159
 10
249.984654
 20
416.046245
 10
249.998745
 20
415.993104
 10
250.011999
 20
415.939747
 10
250.024413
 20
415.886189
 10
250.035984
 20
415.832442
 10
250.04671
 20
415.778521
 10
250.056587
 20
415.724437
 10
250.065614
 20
415.670205
 10
250.073787
 20
415.615838
 10
250.081106
 20
415.56135
 10
250.087568
 20
415.506753
 10
250.093172
 20
415.452061
 10
250.097916
 20
415.397288
 10
250.101799
 20
415.342447
 10
250.10482
 20
415.287552
 10
250.106978
 20
415.232617
 10
250.108273
 20
415.177654
 10
250.108659
 20
415.128568
 10
250.108659
 20
404.116787
 10
250.108273
 20
404.067701
 10
250.106978
 20
404.012738
 10
250.10482
 20
403.957803
 10
250.101799
 20
403.902908
 10
250.097916
 20
403.848067
 10
250.093172
 20
403.793294
 10
250.087568
 20
403.738602
 10
250.081106
 20
403.684005
 10
250.073787
 20
403.629517
 10
250.065614
 20
403.57515
 10
250.056587
 20
403.520918
 10
250.04671
 20
403.466834
 10
250.035984
 20
403.412913
 10
250.024413
 20
403.359166
 10
250.011999
 20
403.305608
 10
249.998745
 20
403.252251
 10
249.984654
 20
403.19911
 10
249.969731
 20
403.146196
 10
249.953979
 20
403.093523
 10
249.937401
 20
403.041104
 10
249.920001
 20
402.988952
 10
249.901785
 20
402.937079
 10
249.882756
 20
402.885499
 10
249.86292
 20
402.834225
 10
249.84228
 20
402.783268
 10
249.820842
 20
402.732642
 10
249.798612
 20
402.682358
 10
249.775595
 20
402.63243
 10
249.751797
 20
402.58287
 10
249.727223
 20
402.53369
 10
249.701879
 20
402.484902
 10
249.675773
 20
402.436517
 10
249.648909
 20
402.388549
 10
249.621296
 20
402.341009
 10
249.592939
 20
402.293908
 10
249.563846
 20
402.247259
 10
249.534023
 20
402.201072
 10
249.503479
 20
402.15536
 10
249.472221
 20
402.110133
 10
249.440256
 20
402.065402
 10
249.407592
 20
402.021179
 10
249.374238
 20
401.977475
 10
249.340201
 20
401.934299
 10
249.305491
 20
401.891664
 10
249.270115
 20
401.849579
 10
249.234082
 20
401.808055
 10
249.197402
 20
401.767103
 10
249.160083
 20
401.726731
 10
249.122134
 20
401.686951
 10
249.083565
 20
401.647771
 10
249.044386
 20
401.609202
 10
249.004605
 20
401.571254
 10
248.964234
 20
401.533935
 10
248.923281
 20
401.497254
 10
248.881757
 20
401.461222
 10
248.839672
 20
401.425846
 10
248.797037
 20
401.391135
 10
248.753862
 20
401.357098
 10
248.710157
 20
401.323744
 10
248.665934
 20
401.291081
 10
248.621204
 20
401.259116
 10
248.575977
 20
401.227857
 10
248.530264
 20
401.197313
 10
248.484077
 20
401.167491
 10
248.437428
 20
401.138398
 10
248.390327
 20
401.110041
 10
248.342787
 20
401.082427
 10
248.294819
 20
401.055564
 10
248.246435
 20
401.029457
 10
248.197647
 20
401.004114
 10
248.148466
 20
400.97954
 10
248.098906
 20
400.955741
 10
248.048978
 20
400.932724
 10
247.998695
 20
400.910494
 10
247.948069
 20
400.889056
 10
247.897112
 20
400.868417
 10
247.845837
 20
400.84858
 10
247.794257
 20
400.829551
 10
247.742385
 20
400.811335
 10
247.690233
 20
400.793936
 10
247.637814
 20
400.777358
 10
247.585141
 20
400.761605
 10
247.532227
 20
400.746682
 10
247.479085
 20
400.732592
 10
247.425728
 20
400.719338
 10
247.37217
 20
400.706924
 10
247.318424
 20
400.695352
 10
247.264502
 20
400.684627
 10
247.210419
 20
400.674749
 10
247.156187
 20
400.665723
 10
247.10182
 20
400.657549
 10
247.047331
 20
400.65023
 10
246.992734
 20
400.643768
 10
246.938042
 20
400.638165
 10
246.883269
 20
400.633421
 10
246.828429
 20
400.629538
 10
246.773534
 20
400.626517
 10
246.718598
 20
400.624358
 10
246.663635
 20
400.623063
 10
246.614549
 20
400.622678
 10
235.602768
 20
400.622678
 10
235.553683
 20
400.623063
 10
235.49872
 20
400.624358
 10
235.443784
 20
400.626517
 10
235.388889
 20
400.629538
 10
235.334048
 20
400.633421
 10
235.279275
 20
400.638165
 10
235.224584
 20
400.643768
 10
235.169987
 20
400.65023
 10
235.115498
 20
400.657549
 10
235.061131
 20
400.665723
 10
235.006899
 20
400.674749
 10
234.952816
 20
400.684627
 10
234.898894
 20
400.695352
 10
234.845147
 20
400.706924
 10
234.791589
 20
400.719338
 10
234.738233
 20
400.732592
 10
234.685091
 20
400.746682
 10
234.632177
 20
400.761605
 10
234.579504
 20
400.777358
 10
234.527085
 20
400.793936
 10
234.474933
 20
400.811335
 10
234.42306
 20
400.829551
 10
234.371481
 20
400.84858
 10
234.320206
 20
400.868417
 10
234.269249
 20
400.889056
 10
234.218623
 20
400.910494
 10
234.16834
 20
400.932724
 10
234.118412
 20
400.955741
 10
234.068851
 20
400.97954
 10
234.019671
 20
401.004114
 10
233.970883
 20
401.029457
 10
233.922499
 20
401.055564
 10
233.874531
 20
401.082427
 10
233.82699
 20
401.110041
 10
233.77989
 20
401.138398
 10
233.73324
 20
401.167491
 10
233.687054
 20
401.197313
 10
233.641341
 20
401.227857
 10
233.596114
 20
401.259116
 10
233.551383
 20
401.291081
 10
233.50716
 20
401.323744
 10
233.463456
 20
401.357098
 10
233.420281
 20
401.391135
 10
233.377645
 20
401.425846
 10
233.335561
 20
401.461222
 10
233.294037
 20
401.497254
 10
233.253084
 20
401.533935
 10
233.212712
 20
401.571254
 10
233.172932
 20
401.609202
 10
233.133752
 20
401.647771
 10
233.095184
 20
401.686951
 10
233.057235
 20
401.726731
 10
233.019916
 20
401.767103
 10
232.983235
 20
401.808055
 10
232.947203
 20
401.849579
 10
232.911827
 20
401.891664
 10
232.877116
 20
401.934299
 10
232.84308
 20
401.977475
 10
232.809726
 20
402.021179
 10
232.777062
 20
402.065402
 10
232.745097
 20
402.110133
 10
232.713839
 20
402.15536
 10
232.683294
 20
402.201072
 10
232.653472
 20
402.247259
 10
232.624379
 20
402.293908
 10
232.596022
 20
402.341009
 10
232.568408
 20
402.388549
 10
232.541545
 20
402.436517
 10
232.515438
 20
402.484902
 10
232.490095
 20
402.53369
 10
232.465521
 20
402.58287
 10
232.441722
 20
402.63243
 10
232.418705
 20
402.682358
 10
232.396475
 20
402.732642
 10
232.375038
 20
402.783268
 10
232.354398
 20
402.834225
 10
232.334561
 20
402.885499
 10
232.315533
 20
402.937079
 10
232.297316
 20
402.988952
 10
232.279917
 20
403.041104
 10
232.263339
 20
403.093523
 10
232.247587
 20
403.146196
 10
232.232663
 20
403.19911
 10
232.218573
 20
403.252251
 10
232.205319
 20
403.305608
 10
232.192905
 20
403.359166
 10
232.181334
 20
403.412913
 10
232.170608
 20
403.466834
 10
232.160731
 20
403.520918
 10
232.151704
 20
403.57515
 10
232.14353
 20
403.629517
 10
232.136211
 20
403.684005
 10
232.12975
 20
403.738602
 10
232.124146
 20
403.793294
 10
232.119402
 20
403.848067
 10
232.115519
 20
403.902908
 10
232.112498
 20
403.957803
 10
232.11034
 20
404.012738
 10
232.109044
 20
404.067701
 10
232.108659
 20
404.116787
 10
232.108659
 20
415.128568
 10
232.109044
 20
415.177654
 10
232.11034
 20
415.232617
 10
232.112498
 20
415.287552
 10
232.115519
 20
415.342447
 10
232.119402
 20
415.397288
 10
232.124146
 20
415.452061
 10
232.12975
 20
415.506753
 10
232.136211
 20
415.56135
 10
232.14353
 20
415.615838
 10
232.151704
 20
415.670205
 10
232.160731
 20
415.724437
 10
232.170608
 20
415.778521
 10
232.181334
 20
415.832442
 10
232.192905
 20
415.886189
 10
232.205319
 20
415.939747
 10
232.218573
 20
415.993104
 10
232.232663
 20
416.046245
 10
232.247587
 20
416.099159
 10
232.263339
 20
416.151832
 10
232.279917
 20
416.204251
 10
232.297316
 20
416.256404
 10
232.315533
 20
416.308276
 10
232.334561
 20
416.359856
 10
232.354398
 20
416.411131
 10
232.375038
 20
416.462087
 10
232.396475
 20
416.512714
 10
232.418705
 20
416.562997
 10
232.441722
 20
416.612925
 10
232.465521
 20
416.662485
 10
232.490095
 20
416.711665
 10
232.515438
 20
416.760454
 10
232.541545
 20
416.808838
 10
232.568408
 20
416.856806
 10
232.596022
 20
416.904346
 10
232.624379
 20
416.951447
 10
232.653472
 20
416.998096
 10
232.683294
 20
417.044283
 10
232.713839
 20
417.089995
 10
232.745097
 20
417.135223
 10
232.777062
 20
417.179953
 10
232.809726
 20
417.224176
 10
232.84308
 20
417.267881
 10
232.877116
 20
417.311056
 10
232.911827
 20
417.353691
 10
232.947203
 20
417.395776
 10
232.983235
 20
417.4373
 10
233.019916
 20
417.478253
 10
233.057235
 20
417.518624
 10
233.095184
 20
417.558405
 10
233.133752
 20
417.597584
 10
233.172932
 20
417.636153
 10
233.212712
 20
417.674102
 10
233.253084
 20
417.711421
 10
233.294037
 20
417.748101
 10
233.335561
 20
417.784134
 10
233.377645
 20
417.81951
 10
233.420281
 20
417.85422
 10
233.463456
 20
417.888257
 10
233.50716
 20
417.921611
 10
233.551383
 20
417.954274
 10
233.596114
 20
417.986239
 10
233.641341
 20
418.017498
 10
233.687054
 20
418.048042
 10
233.73324
 20
418.077864
 10
233.77989
 20
418.106958
 10
233.82699
 20
418.135314
 10
233.874531
 20
418.162928
 10
233.922499
 20
418.189792
 10
233.970883
 20
418.215898
 10
234.019671
 20
418.241242
 10
234.068851
 20
418.265816
 10
234.118412
 20
418.289614
 10
234.16834
 20
418.312631
 10
234.218623
 20
418.334861
 10
234.269249
 20
418.356299
 10
234.320206
 20
418.376938
 10
234.371481
 20
418.396775
 10
234.42306
 20
418.415804
 10
234.474933
 20
418.43402
 10
234.527085
 20
418.451419
 10
234.579504
 20
418.467997
 10
234.632177
 20
418.48375
 10
234.685091
 20
418.498673
 10
234.738233
 20
418.512763
 10
234.791589
 20
418.526017
 10
234.845147
 20
418.538431
 10
234.898894
 20
418.550003
 10
234.952816
 20
418.560728
 10
235.006899
 20
418.570606
 10
235.061131
 20
418.579632
 10
235.115498
 20
418.587806
 10
235.169987
 20
418.595125
 10
235.224584
 20
418.601587
 10
235.279275
 20
418.607191
 10
235.334048
 20
418.611934
 10
235.388889
 20
418.615817
 10
235.443784
 20
418.618838
 10
235.49872
 20
418.620997
 10
235.553683
 20
418.622292
 10
235.602768
 20
418.622678
  0
MTEXT
  5
476
330
1F
100
AcDbEntity
  8
0
100
AcDbMText
 10
-222.778752
 20
443.657435
 30
0.0
 40
5.0
 41
378.90625
 46
92.209821
 71
     1
 72
     1
  3
{\f@Arial Unicode MS|b0|i0|c238|p34;MATERIAL (plexi, balsa, plywood, brass) = plywood^J\PTOP_Full_CutOut_90^S(thickness^S, toolDiameter, bothSideMilled, shouldGenSerialGcode) = 8, 3, no, yes\PTOP_Full_CutOut_90_1^S(thickness^S, toolDiameter, bothSideMille
  1
d, shouldGenSerialGcode) = 6, 3, no, yes\PTOP_Full_CutOut_90_2^S(thickness^S, toolDiameter, bothSideMilled, shouldGenSerialGcode) = 12.5, 3, yes, yes}
 73
     1
 44
1.0
1001
ACAD
1000
ACAD_MTEXT_DEFINED_HEIGHT_BEGIN
1070
    46
1040
92.209821
1000
ACAD_MTEXT_DEFINED_HEIGHT_END
  0
LWPOLYLINE
  5
4AC
330
1F
100
AcDbEntity
  8
TOP_Full_CutOut_90
100
AcDbPolyline
 90
      204
 70
     1
 43
0.0
 10
255.096878
 20
402.222678
 10
255.001856
 20
402.22417
 10
254.895159
 20
402.229202
 10
254.788673
 20
402.237583
 10
254.682503
 20
402.249304
 10
254.576753
 20
402.264354
 10
254.471528
 20
402.282719
 10
254.366931
 20
402.30438
 10
254.263067
 20
402.329316
 10
254.160037
 20
402.357501
 10
254.057944
 20
402.388909
 10
253.956887
 20
402.423509
 10
253.856967
 20
402.461265
 10
253.758283
 20
402.502142
 10
253.66093
 20
402.546098
 10
253.565007
 20
402.59309
 10
253.470607
 20
402.643073
 10
253.377824
 20
402.695995
 10
253.286749
 20
402.751806
 10
253.197471
 20
402.810451
 10
253.11008
 20
402.87187
 10
253.024661
 20
402.936004
 10
252.941299
 20
403.00279
 10
252.860076
 20
403.072161
 10
252.781072
 20
403.144049
 10
252.704365
 20
403.218384
 10
252.630031
 20
403.295091
 10
252.558142
 20
403.374095
 10
252.488771
 20
403.455318
 10
252.421986
 20
403.53868
 10
252.357851
 20
403.624099
 10
252.296432
 20
403.71149
 10
252.237788
 20
403.800767
 10
252.181977
 20
403.891843
 10
252.129054
 20
403.984626
 10
252.079072
 20
404.079026
 10
252.032079
 20
404.174949
 10
251.988123
 20
404.272301
 10
251.947247
 20
404.370986
 10
251.90949
 20
404.470906
 10
251.874891
 20
404.571963
 10
251.843483
 20
404.674056
 10
251.815297
 20
404.777086
 10
251.790361
 20
404.88095
 10
251.7687
 20
404.985546
 10
251.750336
 20
405.090771
 10
251.735285
 20
405.196521
 10
251.723564
 20
405.302692
 10
251.715183
 20
405.409178
 10
251.710152
 20
405.515875
 10
251.708659
 20
405.610896
 10
251.708659
 20
413.634459
 10
251.710152
 20
413.72948
 10
251.715183
 20
413.836177
 10
251.723564
 20
413.942663
 10
251.735285
 20
414.048834
 10
251.750336
 20
414.154584
 10
251.7687
 20
414.259809
 10
251.790361
 20
414.364405
 10
251.815297
 20
414.468269
 10
251.843483
 20
414.571299
 10
251.874891
 20
414.673393
 10
251.90949
 20
414.774449
 10
251.947247
 20
414.874369
 10
251.988123
 20
414.973054
 10
252.032079
 20
415.070406
 10
252.079072
 20
415.166329
 10
252.129054
 20
415.260729
 10
252.181977
 20
415.353513
 10
252.237788
 20
415.444588
 10
252.296432
 20
415.533865
 10
252.357851
 20
415.621256
 10
252.421986
 20
415.706675
 10
252.488771
 20
415.790037
 10
252.558142
 20
415.87126
 10
252.630031
 20
415.950264
 10
252.704365
 20
416.026972
 10
252.781072
 20
416.101306
 10
252.860076
 20
416.173194
 10
252.941299
 20
416.242565
 10
253.024661
 20
416.309351
 10
253.11008
 20
416.373485
 10
253.197471
 20
416.434905
 10
253.286749
 20
416.493549
 10
253.377824
 20
416.54936
 10
253.470607
 20
416.602282
 10
253.565007
 20
416.652265
 10
253.66093
 20
416.699257
 10
253.758283
 20
416.743213
 10
253.856967
 20
416.78409
 10
253.956887
 20
416.821846
 10
254.057944
 20
416.856446
 10
254.160037
 20
416.887854
 10
254.263067
 20
416.91604
 10
254.366931
 20
416.940975
 10
254.471528
 20
416.962636
 10
254.576753
 20
416.981001
 10
254.682503
 20
416.996051
 10
254.788673
 20
417.007773
 10
254.895159
 20
417.016153
 10
255.001856
 20
417.021185
 10
255.096878
 20
417.022678
 10
263.12044
 20
417.022678
 10
263.215461
 20
417.021185
 10
263.322158
 20
417.016153
 10
263.428645
 20
417.007773
 10
263.534815
 20
416.996051
 10
263.640565
 20
416.981001
 10
263.74579
 20
416.962636
 10
263.850386
 20
416.940975
 10
263.95425
 20
416.91604
 10
264.05728
 20
416.887854
 10
264.159374
 20
416.856446
 10
264.26043
 20
416.821846
 10
264.36035
 20
416.78409
 10
264.459035
 20
416.743213
 10
264.556387
 20
416.699257
 10
264.652311
 20
416.652265
 10
264.74671
 20
416.602282
 10
264.839494
 20
416.54936
 10
264.930569
 20
416.493549
 10
265.019846
 20
416.434905
 10
265.107237
 20
416.373485
 10
265.192656
 20
416.309351
 10
265.276018
 20
416.242565
 10
265.357242
 20
416.173194
 10
265.436246
 20
416.101306
 10
265.512953
 20
416.026972
 10
265.587287
 20
415.950264
 10
265.659175
 20
415.87126
 10
265.728546
 20
415.790037
 10
265.795332
 20
415.706675
 10
265.859466
 20
415.621256
 10
265.920886
 20
415.533865
 10
265.97953
 20
415.444588
 10
266.035341
 20
415.353513
 10
266.088264
 20
415.260729
 10
266.138246
 20
415.166329
 10
266.185238
 20
415.070406
 10
266.229194
 20
414.973054
 10
266.270071
 20
414.874369
 10
266.307828
 20
414.774449
 10
266.342427
 20
414.673393
 10
266.373835
 20
414.571299
 10
266.402021
 20
414.468269
 10
266.426956
 20
414.364405
 10
266.448617
 20
414.259809
 10
266.466982
 20
414.154584
 10
266.482032
 20
414.048834
 10
266.493754
 20
413.942663
 10
266.502134
 20
413.836177
 10
266.507166
 20
413.72948
 10
266.508659
 20
413.634459
 10
266.508659
 20
405.610896
 10
266.507166
 20
405.515875
 10
266.502134
 20
405.409178
 10
266.493754
 20
405.302692
 10
266.482032
 20
405.196521
 10
266.466982
 20
405.090771
 10
266.448617
 20
404.985546
 10
266.426956
 20
404.88095
 10
266.402021
 20
404.777086
 10
266.373835
 20
404.674056
 10
266.342427
 20
404.571963
 10
266.307828
 20
404.470906
 10
266.270071
 20
404.370986
 10
266.229194
 20
404.272301
 10
266.185238
 20
404.174949
 10
266.138246
 20
404.079026
 10
266.088264
 20
403.984626
 10
266.035341
 20
403.891843
 10
265.97953
 20
403.800767
 10
265.920886
 20
403.71149
 10
265.859466
 20
403.624099
 10
265.795332
 20
403.53868
 10
265.728546
 20
403.455318
 10
265.659175
 20
403.374095
 10
265.587287
 20
403.295091
 10
265.512953
 20
403.218384
 10
265.436246
 20
403.144049
 10
265.357242
 20
403.072161
 10
265.276018
 20
403.00279
 10
265.192656
 20
402.936004
 10
265.107237
 20
402.87187
 10
265.019846
 20
402.810451
 10
264.930569
 20
402.751806
 10
264.839494
 20
402.695995
 10
264.74671
 20
402.643073
 10
264.652311
 20
402.59309
 10
264.556387
 20
402.546098
 10
264.459035
 20
402.502142
 10
264.36035
 20
402.461265
 10
264.26043
 20
402.423509
 10
264.159374
 20
402.388909
 10
264.05728
 20
402.357501
 10
263.95425
 20
402.329316
 10
263.850386
 20
402.30438
 10
263.74579
 20
402.282719
 10
263.640565
 20
402.264354
 10
263.534815
 20
402.249304
 10
263.428645
 20
402.237583
 10
263.322158
 20
402.229202
 10
263.215461
 20
402.22417
 10
263.12044
 20
402.222678
  0
LWPOLYLINE
  5
4AD
102
{ACAD_REACTORS
330
4E6
102
}
330
1F
100
AcDbEntity
  8
TOP_Full_CutOut_90_2
100
AcDbPolyline
 90
      404
 70
     1
 43
0.0
 10
264.614549
 20
418.622678
 10
264.663635
 20
418.622292
 10
264.718598
 20
418.620997
 10
264.773534
 20
418.618838
 10
264.828429
 20
418.615817
 10
264.883269
 20
418.611934
 10
264.938042
 20
418.607191
 10
264.992734
 20
418.601587
 10
265.047331
 20
418.595125
 10
265.10182
 20
418.587806
 10
265.156187
 20
418.579632
 10
265.210419
 20
418.570606
 10
265.264502
 20
418.560728
 10
265.318424
 20
418.550003
 10
265.37217
 20
418.538431
 10
265.425728
 20
418.526017
 10
265.479085
 20
418.512763
 10
265.532227
 20
418.498673
 10
265.585141
 20
418.48375
 10
265.637814
 20
418.467997
 10
265.690233
 20
418.451419
 10
265.742385
 20
418.43402
 10
265.794257
 20
418.415804
 10
265.845837
 20
418.396775
 10
265.897112
 20
418.376938
 10
265.948069
 20
418.356299
 10
265.998695
 20
418.334861
 10
266.048978
 20
418.312631
 10
266.098906
 20
418.289614
 10
266.148466
 20
418.265816
 10
266.197647
 20
418.241242
 10
266.246435
 20
418.215898
 10
266.294819
 20
418.189792
 10
266.342787
 20
418.162928
 10
266.390327
 20
418.135314
 10
266.437428
 20
418.106958
 10
266.484077
 20
418.077864
 10
266.530264
 20
418.048042
 10
266.575977
 20
418.017498
 10
266.621204
 20
417.986239
 10
266.665934
 20
417.954274
 10
266.710157
 20
417.921611
 10
266.753862
 20
417.888257
 10
266.797037
 20
417.85422
 10
266.839672
 20
417.81951
 10
266.881757
 20
417.784134
 10
266.923281
 20
417.748101
 10
266.964234
 20
417.711421
 10
267.004605
 20
417.674102
 10
267.044386
 20
417.636153
 10
267.083565
 20
417.597584
 10
267.122134
 20
417.558405
 10
267.160083
 20
417.518624
 10
267.197402
 20
417.478253
 10
267.234082
 20
417.4373
 10
267.270115
 20
417.395776
 10
267.305491
 20
417.353691
 10
267.340201
 20
417.311056
 10
267.374238
 20
417.267881
 10
267.407592
 20
417.224176
 10
267.440256
 20
417.179953
 10
267.472221
 20
417.135223
 10
267.503479
 20
417.089995
 10
267.534023
 20
417.044283
 10
267.563846
 20
416.998096
 10
267.592939
 20
416.951447
 10
267.621296
 20
416.904346
 10
267.648909
 20
416.856806
 10
267.675773
 20
416.808838
 10
267.701879
 20
416.760454
 10
267.727223
 20
416.711665
 10
267.751797
 20
416.662485
 10
267.775595
 20
416.612925
 10
267.798612
 20
416.562997
 10
267.820842
 20
416.512714
 10
267.84228
 20
416.462087
 10
267.86292
 20
416.411131
 10
267.882756
 20
416.359856
 10
267.901785
 20
416.308276
 10
267.920001
 20
416.256404
 10
267.937401
 20
416.204251
 10
267.953979
 20
416.151832
 10
267.969731
 20
416.099159
 10
267.984654
 20
416.046245
 10
267.998745
 20
415.993104
 10
268.011999
 20
415.939747
 10
268.024413
 20
415.886189
 10
268.035984
 20
415.832442
 10
268.04671
 20
415.778521
 10
268.056587
 20
415.724437
 10
268.065614
 20
415.670205
 10
268.073787
 20
415.615838
 10
268.081106
 20
415.56135
 10
268.087568
 20
415.506753
 10
268.093172
 20
415.452061
 10
268.097916
 20
415.397288
 10
268.101799
 20
415.342447
 10
268.10482
 20
415.287552
 10
268.106978
 20
415.232617
 10
268.108273
 20
415.177654
 10
268.108659
 20
415.128568
 10
268.108659
 20
404.116787
 10
268.108273
 20
404.067701
 10
268.106978
 20
404.012738
 10
268.10482
 20
403.957803
 10
268.101799
 20
403.902908
 10
268.097916
 20
403.848067
 10
268.093172
 20
403.793294
 10
268.087568
 20
403.738602
 10
268.081106
 20
403.684005
 10
268.073787
 20
403.629517
 10
268.065614
 20
403.57515
 10
268.056587
 20
403.520918
 10
268.04671
 20
403.466834
 10
268.035984
 20
403.412913
 10
268.024413
 20
403.359166
 10
268.011999
 20
403.305608
 10
267.998745
 20
403.252251
 10
267.984654
 20
403.19911
 10
267.969731
 20
403.146196
 10
267.953979
 20
403.093523
 10
267.937401
 20
403.041104
 10
267.920001
 20
402.988952
 10
267.901785
 20
402.937079
 10
267.882756
 20
402.885499
 10
267.86292
 20
402.834225
 10
267.84228
 20
402.783268
 10
267.820842
 20
402.732642
 10
267.798612
 20
402.682358
 10
267.775595
 20
402.63243
 10
267.751797
 20
402.58287
 10
267.727223
 20
402.53369
 10
267.701879
 20
402.484902
 10
267.675773
 20
402.436517
 10
267.648909
 20
402.388549
 10
267.621296
 20
402.341009
 10
267.592939
 20
402.293908
 10
267.563846
 20
402.247259
 10
267.534023
 20
402.201072
 10
267.503479
 20
402.15536
 10
267.472221
 20
402.110133
 10
267.440256
 20
402.065402
 10
267.407592
 20
402.021179
 10
267.374238
 20
401.977475
 10
267.340201
 20
401.934299
 10
267.305491
 20
401.891664
 10
267.270115
 20
401.849579
 10
267.234082
 20
401.808055
 10
267.197402
 20
401.767103
 10
267.160083
 20
401.726731
 10
267.122134
 20
401.686951
 10
267.083565
 20
401.647771
 10
267.044386
 20
401.609202
 10
267.004605
 20
401.571254
 10
266.964234
 20
401.533935
 10
266.923281
 20
401.497254
 10
266.881757
 20
401.461222
 10
266.839672
 20
401.425846
 10
266.797037
 20
401.391135
 10
266.753862
 20
401.357098
 10
266.710157
 20
401.323744
 10
266.665934
 20
401.291081
 10
266.621204
 20
401.259116
 10
266.575977
 20
401.227857
 10
266.530264
 20
401.197313
 10
266.484077
 20
401.167491
 10
266.437428
 20
401.138398
 10
266.390327
 20
401.110041
 10
266.342787
 20
401.082427
 10
266.294819
 20
401.055564
 10
266.246435
 20
401.029457
 10
266.197647
 20
401.004114
 10
266.148466
 20
400.97954
 10
266.098906
 20
400.955741
 10
266.048978
 20
400.932724
 10
265.998695
 20
400.910494
 10
265.948069
 20
400.889056
 10
265.897112
 20
400.868417
 10
265.845837
 20
400.84858
 10
265.794257
 20
400.829551
 10
265.742385
 20
400.811335
 10
265.690233
 20
400.793936
 10
265.637814
 20
400.777358
 10
265.585141
 20
400.761605
 10
265.532227
 20
400.746682
 10
265.479085
 20
400.732592
 10
265.425728
 20
400.719338
 10
265.37217
 20
400.706924
 10
265.318424
 20
400.695352
 10
265.264502
 20
400.684627
 10
265.210419
 20
400.674749
 10
265.156187
 20
400.665723
 10
265.10182
 20
400.657549
 10
265.047331
 20
400.65023
 10
264.992734
 20
400.643768
 10
264.938042
 20
400.638165
 10
264.883269
 20
400.633421
 10
264.828429
 20
400.629538
 10
264.773534
 20
400.626517
 10
264.718598
 20
400.624358
 10
264.663635
 20
400.623063
 10
264.614549
 20
400.622678
 10
253.602768
 20
400.622678
 10
253.553683
 20
400.623063
 10
253.49872
 20
400.624358
 10
253.443784
 20
400.626517
 10
253.388889
 20
400.629538
 10
253.334048
 20
400.633421
 10
253.279275
 20
400.638165
 10
253.224584
 20
400.643768
 10
253.169987
 20
400.65023
 10
253.115498
 20
400.657549
 10
253.061131
 20
400.665723
 10
253.006899
 20
400.674749
 10
252.952816
 20
400.684627
 10
252.898894
 20
400.695352
 10
252.845147
 20
400.706924
 10
252.791589
 20
400.719338
 10
252.738233
 20
400.732592
 10
252.685091
 20
400.746682
 10
252.632177
 20
400.761605
 10
252.579504
 20
400.777358
 10
252.527085
 20
400.793936
 10
252.474933
 20
400.811335
 10
252.42306
 20
400.829551
 10
252.371481
 20
400.84858
 10
252.320206
 20
400.868417
 10
252.269249
 20
400.889056
 10
252.218623
 20
400.910494
 10
252.16834
 20
400.932724
 10
252.118412
 20
400.955741
 10
252.068851
 20
400.97954
 10
252.019671
 20
401.004114
 10
251.970883
 20
401.029457
 10
251.922499
 20
401.055564
 10
251.874531
 20
401.082427
 10
251.82699
 20
401.110041
 10
251.77989
 20
401.138398
 10
251.73324
 20
401.167491
 10
251.687054
 20
401.197313
 10
251.641341
 20
401.227857
 10
251.596114
 20
401.259116
 10
251.551383
 20
401.291081
 10
251.50716
 20
401.323744
 10
251.463456
 20
401.357098
 10
251.420281
 20
401.391135
 10
251.377645
 20
401.425846
 10
251.335561
 20
401.461222
 10
251.294037
 20
401.497254
 10
251.253084
 20
401.533935
 10
251.212712
 20
401.571254
 10
251.172932
 20
401.609202
 10
251.133752
 20
401.647771
 10
251.095184
 20
401.686951
 10
251.057235
 20
401.726731
 10
251.019916
 20
401.767103
 10
250.983235
 20
401.808055
 10
250.947203
 20
401.849579
 10
250.911827
 20
401.891664
 10
250.877116
 20
401.934299
 10
250.84308
 20
401.977475
 10
250.809726
 20
402.021179
 10
250.777062
 20
402.065402
 10
250.745097
 20
402.110133
 10
250.713839
 20
402.15536
 10
250.683294
 20
402.201072
 10
250.653472
 20
402.247259
 10
250.624379
 20
402.293908
 10
250.596022
 20
402.341009
 10
250.568408
 20
402.388549
 10
250.541545
 20
402.436517
 10
250.515438
 20
402.484902
 10
250.490095
 20
402.53369
 10
250.465521
 20
402.58287
 10
250.441722
 20
402.63243
 10
250.418705
 20
402.682358
 10
250.396475
 20
402.732642
 10
250.375038
 20
402.783268
 10
250.354398
 20
402.834225
 10
250.334561
 20
402.885499
 10
250.315533
 20
402.937079
 10
250.297316
 20
402.988952
 10
250.279917
 20
403.041104
 10
250.263339
 20
403.093523
 10
250.247587
 20
403.146196
 10
250.232663
 20
403.19911
 10
250.218573
 20
403.252251
 10
250.205319
 20
403.305608
 10
250.192905
 20
403.359166
 10
250.181334
 20
403.412913
 10
250.170608
 20
403.466834
 10
250.160731
 20
403.520918
 10
250.151704
 20
403.57515
 10
250.14353
 20
403.629517
 10
250.136211
 20
403.684005
 10
250.12975
 20
403.738602
 10
250.124146
 20
403.793294
 10
250.119402
 20
403.848067
 10
250.115519
 20
403.902908
 10
250.112498
 20
403.957803
 10
250.11034
 20
404.012738
 10
250.109044
 20
404.067701
 10
250.108659
 20
404.116787
 10
250.108659
 20
415.128568
 10
250.109044
 20
415.177654
 10
250.11034
 20
415.232617
 10
250.112498
 20
415.287552
 10
250.115519
 20
415.342447
 10
250.119402
 20
415.397288
 10
250.124146
 20
415.452061
 10
250.12975
 20
415.506753
 10
250.136211
 20
415.56135
 10
250.14353
 20
415.615838
 10
250.151704
 20
415.670205
 10
250.160731
 20
415.724437
 10
250.170608
 20
415.778521
 10
250.181334
 20
415.832442
 10
250.192905
 20
415.886189
 10
250.205319
 20
415.939747
 10
250.218573
 20
415.993104
 10
250.232663
 20
416.046245
 10
250.247587
 20
416.099159
 10
250.263339
 20
416.151832
 10
250.279917
 20
416.204251
 10
250.297316
 20
416.256404
 10
250.315533
 20
416.308276
 10
250.334561
 20
416.359856
 10
250.354398
 20
416.411131
 10
250.375038
 20
416.462087
 10
250.396475
 20
416.512714
 10
250.418705
 20
416.562997
 10
250.441722
 20
416.612925
 10
250.465521
 20
416.662485
 10
250.490095
 20
416.711665
 10
250.515438
 20
416.760454
 10
250.541545
 20
416.808838
 10
250.568408
 20
416.856806
 10
250.596022
 20
416.904346
 10
250.624379
 20
416.951447
 10
250.653472
 20
416.998096
 10
250.683294
 20
417.044283
 10
250.713839
 20
417.089995
 10
250.745097
 20
417.135223
 10
250.777062
 20
417.179953
 10
250.809726
 20
417.224176
 10
250.84308
 20
417.267881
 10
250.877116
 20
417.311056
 10
250.911827
 20
417.353691
 10
250.947203
 20
417.395776
 10
250.983235
 20
417.4373
 10
251.019916
 20
417.478253
 10
251.057235
 20
417.518624
 10
251.095184
 20
417.558405
 10
251.133752
 20
417.597584
 10
251.172932
 20
417.636153
 10
251.212712
 20
417.674102
 10
251.253084
 20
417.711421
 10
251.294037
 20
417.748101
 10
251.335561
 20
417.784134
 10
251.377645
 20
417.81951
 10
251.420281
 20
417.85422
 10
251.463456
 20
417.888257
 10
251.50716
 20
417.921611
 10
251.551383
 20
417.954274
 10
251.596114
 20
417.986239
 10
251.641341
 20
418.017498
 10
251.687054
 20
418.048042
 10
251.73324
 20
418.077864
 10
251.77989
 20
418.106958
 10
251.82699
 20
418.135314
 10
251.874531
 20
418.162928
 10
251.922499
 20
418.189792
 10
251.970883
 20
418.215898
 10
252.019671
 20
418.241242
 10
252.068851
 20
418.265816
 10
252.118412
 20
418.289614
 10
252.16834
 20
418.312631
 10
252.218623
 20
418.334861
 10
252.269249
 20
418.356299
 10
252.320206
 20
418.376938
 10
252.371481
 20
418.396775
 10
252.42306
 20
418.415804
 10
252.474933
 20
418.43402
 10
252.527085
 20
418.451419
 10
252.579504
 20
418.467997
 10
252.632177
 20
418.48375
 10
252.685091
 20
418.498673
 10
252.738233
 20
418.512763
 10
252.791589
 20
418.526017
 10
252.845147
 20
418.538431
 10
252.898894
 20
418.550003
 10
252.952816
 20
418.560728
 10
253.006899
 20
418.570606
 10
253.061131
 20
418.579632
 10
253.115498
 20
418.587806
 10
253.169987
 20
418.595125
 10
253.224584
 20
418.601587
 10
253.279275
 20
418.607191
 10
253.334048
 20
418.611934
 10
253.388889
 20
418.615817
 10
253.443784
 20
418.618838
 10
253.49872
 20
418.620997
 10
253.553683
 20
418.622292
 10
253.602768
 20
418.622678
  0
LWPOLYLINE
  5
4AE
330
1F
100
AcDbEntity
  8
TOP_Full_CutOut_90_1
100
AcDbPolyline
 90
      204
 70
     1
 43
0.0
 10
237.096878
 20
384.222678
 10
237.001856
 20
384.22417
 10
236.895159
 20
384.229202
 10
236.788673
 20
384.237583
 10
236.682503
 20
384.249304
 10
236.576753
 20
384.264354
 10
236.471528
 20
384.282719
 10
236.366931
 20
384.30438
 10
236.263067
 20
384.329316
 10
236.160037
 20
384.357501
 10
236.057944
 20
384.388909
 10
235.956887
 20
384.423509
 10
235.856967
 20
384.461265
 10
235.758283
 20
384.502142
 10
235.66093
 20
384.546098
 10
235.565007
 20
384.59309
 10
235.470607
 20
384.643073
 10
235.377824
 20
384.695995
 10
235.286749
 20
384.751806
 10
235.197471
 20
384.810451
 10
235.11008
 20
384.87187
 10
235.024661
 20
384.936004
 10
234.941299
 20
385.00279
 10
234.860076
 20
385.072161
 10
234.781072
 20
385.144049
 10
234.704365
 20
385.218384
 10
234.630031
 20
385.295091
 10
234.558142
 20
385.374095
 10
234.488771
 20
385.455318
 10
234.421986
 20
385.53868
 10
234.357851
 20
385.624099
 10
234.296432
 20
385.71149
 10
234.237788
 20
385.800767
 10
234.181977
 20
385.891843
 10
234.129054
 20
385.984626
 10
234.079072
 20
386.079026
 10
234.032079
 20
386.174949
 10
233.988123
 20
386.272301
 10
233.947247
 20
386.370986
 10
233.90949
 20
386.470906
 10
233.874891
 20
386.571963
 10
233.843483
 20
386.674056
 10
233.815297
 20
386.777086
 10
233.790361
 20
386.88095
 10
233.7687
 20
386.985546
 10
233.750336
 20
387.090771
 10
233.735285
 20
387.196521
 10
233.723564
 20
387.302692
 10
233.715183
 20
387.409178
 10
233.710152
 20
387.515875
 10
233.708659
 20
387.610896
 10
233.708659
 20
395.634459
 10
233.710152
 20
395.72948
 10
233.715183
 20
395.836177
 10
233.723564
 20
395.942663
 10
233.735285
 20
396.048834
 10
233.750336
 20
396.154584
 10
233.7687
 20
396.259809
 10
233.790361
 20
396.364405
 10
233.815297
 20
396.468269
 10
233.843483
 20
396.571299
 10
233.874891
 20
396.673393
 10
233.90949
 20
396.774449
 10
233.947247
 20
396.874369
 10
233.988123
 20
396.973054
 10
234.032079
 20
397.070406
 10
234.079072
 20
397.166329
 10
234.129054
 20
397.260729
 10
234.181977
 20
397.353513
 10
234.237788
 20
397.444588
 10
234.296432
 20
397.533865
 10
234.357851
 20
397.621256
 10
234.421986
 20
397.706675
 10
234.488771
 20
397.790037
 10
234.558142
 20
397.87126
 10
234.630031
 20
397.950264
 10
234.704365
 20
398.026972
 10
234.781072
 20
398.101306
 10
234.860076
 20
398.173194
 10
234.941299
 20
398.242565
 10
235.024661
 20
398.309351
 10
235.11008
 20
398.373485
 10
235.197471
 20
398.434905
 10
235.286749
 20
398.493549
 10
235.377824
 20
398.54936
 10
235.470607
 20
398.602282
 10
235.565007
 20
398.652265
 10
235.66093
 20
398.699257
 10
235.758283
 20
398.743213
 10
235.856967
 20
398.78409
 10
235.956887
 20
398.821846
 10
236.057944
 20
398.856446
 10
236.160037
 20
398.887854
 10
236.263067
 20
398.91604
 10
236.366931
 20
398.940975
 10
236.471528
 20
398.962636
 10
236.576753
 20
398.981001
 10
236.682503
 20
398.996051
 10
236.788673
 20
399.007773
 10
236.895159
 20
399.016153
 10
237.001856
 20
399.021185
 10
237.096878
 20
399.022678
 10
245.12044
 20
399.022678
 10
245.215461
 20
399.021185
 10
245.322158
 20
399.016153
 10
245.428645
 20
399.007773
 10
245.534815
 20
398.996051
 10
245.640565
 20
398.981001
 10
245.74579
 20
398.962636
 10
245.850386
 20
398.940975
 10
245.95425
 20
398.91604
 10
246.05728
 20
398.887854
 10
246.159374
 20
398.856446
 10
246.26043
 20
398.821846
 10
246.36035
 20
398.78409
 10
246.459035
 20
398.743213
 10
246.556387
 20
398.699257
 10
246.652311
 20
398.652265
 10
246.74671
 20
398.602282
 10
246.839494
 20
398.54936
 10
246.930569
 20
398.493549
 10
247.019846
 20
398.434905
 10
247.107237
 20
398.373485
 10
247.192656
 20
398.309351
 10
247.276018
 20
398.242565
 10
247.357242
 20
398.173194
 10
247.436246
 20
398.101306
 10
247.512953
 20
398.026972
 10
247.587287
 20
397.950264
 10
247.659175
 20
397.87126
 10
247.728546
 20
397.790037
 10
247.795332
 20
397.706675
 10
247.859466
 20
397.621256
 10
247.920886
 20
397.533865
 10
247.97953
 20
397.444588
 10
248.035341
 20
397.353513
 10
248.088264
 20
397.260729
 10
248.138246
 20
397.166329
 10
248.185238
 20
397.070406
 10
248.229194
 20
396.973054
 10
248.270071
 20
396.874369
 10
248.307828
 20
396.774449
 10
248.342427
 20
396.673393
 10
248.373835
 20
396.571299
 10
248.402021
 20
396.468269
 10
248.426956
 20
396.364405
 10
248.448617
 20
396.259809
 10
248.466982
 20
396.154584
 10
248.482032
 20
396.048834
 10
248.493754
 20
395.942663
 10
248.502134
 20
395.836177
 10
248.507166
 20
395.72948
 10
248.508659
 20
395.634459
 10
248.508659
 20
387.610896
 10
248.507166
 20
387.515875
 10
248.502134
 20
387.409178
 10
248.493754
 20
387.302692
 10
248.482032
 20
387.196521
 10
248.466982
 20
387.090771
 10
248.448617
 20
386.985546
 10
248.426956
 20
386.88095
 10
248.402021
 20
386.777086
 10
248.373835
 20
386.674056
 10
248.342427
 20
386.571963
 10
248.307828
 20
386.470906
 10
248.270071
 20
386.370986
 10
248.229194
 20
386.272301
 10
248.185238
 20
386.174949
 10
248.138246
 20
386.079026
 10
248.088264
 20
385.984626
 10
248.035341
 20
385.891843
 10
247.97953
 20
385.800767
 10
247.920886
 20
385.71149
 10
247.859466
 20
385.624099
 10
247.795332
 20
385.53868
 10
247.728546
 20
385.455318
 10
247.659175
 20
385.374095
 10
247.587287
 20
385.295091
 10
247.512953
 20
385.218384
 10
247.436246
 20
385.144049
 10
247.357242
 20
385.072161
 10
247.276018
 20
385.00279
 10
247.192656
 20
384.936004
 10
247.107237
 20
384.87187
 10
247.019846
 20
384.810451
 10
246.930569
 20
384.751806
 10
246.839494
 20
384.695995
 10
246.74671
 20
384.643073
 10
246.652311
 20
384.59309
 10
246.556387
 20
384.546098
 10
246.459035
 20
384.502142
 10
246.36035
 20
384.461265
 10
246.26043
 20
384.423509
 10
246.159374
 20
384.388909
 10
246.05728
 20
384.357501
 10
245.95425
 20
384.329316
 10
245.850386
 20
384.30438
 10
245.74579
 20
384.282719
 10
245.640565
 20
384.264354
 10
245.534815
 20
384.249304
 10
245.428645
 20
384.237583
 10
245.322158
 20
384.229202
 10
245.215461
 20
384.22417
 10
245.12044
 20
384.222678
  0
LWPOLYLINE
  5
4AF
330
1F
100
AcDbEntity
  8
TOP_Full_CutOut_90_2
100
AcDbPolyline
 90
      404
 70
     1
 43
0.0
 10
246.614549
 20
400.622678
 10
246.663635
 20
400.622292
 10
246.718598
 20
400.620997
 10
246.773534
 20
400.618838
 10
246.828429
 20
400.615817
 10
246.883269
 20
400.611934
 10
246.938042
 20
400.607191
 10
246.992734
 20
400.601587
 10
247.047331
 20
400.595125
 10
247.10182
 20
400.587806
 10
247.156187
 20
400.579632
 10
247.210419
 20
400.570606
 10
247.264502
 20
400.560728
 10
247.318424
 20
400.550003
 10
247.37217
 20
400.538431
 10
247.425728
 20
400.526017
 10
247.479085
 20
400.512763
 10
247.532227
 20
400.498673
 10
247.585141
 20
400.48375
 10
247.637814
 20
400.467997
 10
247.690233
 20
400.451419
 10
247.742385
 20
400.43402
 10
247.794257
 20
400.415804
 10
247.845837
 20
400.396775
 10
247.897112
 20
400.376938
 10
247.948069
 20
400.356299
 10
247.998695
 20
400.334861
 10
248.048978
 20
400.312631
 10
248.098906
 20
400.289614
 10
248.148466
 20
400.265816
 10
248.197647
 20
400.241242
 10
248.246435
 20
400.215898
 10
248.294819
 20
400.189792
 10
248.342787
 20
400.162928
 10
248.390327
 20
400.135314
 10
248.437428
 20
400.106958
 10
248.484077
 20
400.077864
 10
248.530264
 20
400.048042
 10
248.575977
 20
400.017498
 10
248.621204
 20
399.986239
 10
248.665934
 20
399.954274
 10
248.710157
 20
399.921611
 10
248.753862
 20
399.888257
 10
248.797037
 20
399.85422
 10
248.839672
 20
399.81951
 10
248.881757
 20
399.784134
 10
248.923281
 20
399.748101
 10
248.964234
 20
399.711421
 10
249.004605
 20
399.674102
 10
249.044386
 20
399.636153
 10
249.083565
 20
399.597584
 10
249.122134
 20
399.558405
 10
249.160083
 20
399.518624
 10
249.197402
 20
399.478253
 10
249.234082
 20
399.4373
 10
249.270115
 20
399.395776
 10
249.305491
 20
399.353691
 10
249.340201
 20
399.311056
 10
249.374238
 20
399.267881
 10
249.407592
 20
399.224176
 10
249.440256
 20
399.179953
 10
249.472221
 20
399.135223
 10
249.503479
 20
399.089995
 10
249.534023
 20
399.044283
 10
249.563846
 20
398.998096
 10
249.592939
 20
398.951447
 10
249.621296
 20
398.904346
 10
249.648909
 20
398.856806
 10
249.675773
 20
398.808838
 10
249.701879
 20
398.760454
 10
249.727223
 20
398.711665
 10
249.751797
 20
398.662485
 10
249.775595
 20
398.612925
 10
249.798612
 20
398.562997
 10
249.820842
 20
398.512714
 10
249.84228
 20
398.462087
 10
249.86292
 20
398.411131
 10
249.882756
 20
398.359856
 10
249.901785
 20
398.308276
 10
249.920001
 20
398.256404
 10
249.937401
 20
398.204251
 10
249.953979
 20
398.151832
 10
249.969731
 20
398.099159
 10
249.984654
 20
398.046245
 10
249.998745
 20
397.993104
 10
250.011999
 20
397.939747
 10
250.024413
 20
397.886189
 10
250.035984
 20
397.832442
 10
250.04671
 20
397.778521
 10
250.056587
 20
397.724437
 10
250.065614
 20
397.670205
 10
250.073787
 20
397.615838
 10
250.081106
 20
397.56135
 10
250.087568
 20
397.506753
 10
250.093172
 20
397.452061
 10
250.097916
 20
397.397288
 10
250.101799
 20
397.342447
 10
250.10482
 20
397.287552
 10
250.106978
 20
397.232617
 10
250.108273
 20
397.177654
 10
250.108659
 20
397.128568
 10
250.108659
 20
386.116787
 10
250.108273
 20
386.067701
 10
250.106978
 20
386.012738
 10
250.10482
 20
385.957803
 10
250.101799
 20
385.902908
 10
250.097916
 20
385.848067
 10
250.093172
 20
385.793294
 10
250.087568
 20
385.738602
 10
250.081106
 20
385.684005
 10
250.073787
 20
385.629517
 10
250.065614
 20
385.57515
 10
250.056587
 20
385.520918
 10
250.04671
 20
385.466834
 10
250.035984
 20
385.412913
 10
250.024413
 20
385.359166
 10
250.011999
 20
385.305608
 10
249.998745
 20
385.252251
 10
249.984654
 20
385.19911
 10
249.969731
 20
385.146196
 10
249.953979
 20
385.093523
 10
249.937401
 20
385.041104
 10
249.920001
 20
384.988952
 10
249.901785
 20
384.937079
 10
249.882756
 20
384.885499
 10
249.86292
 20
384.834225
 10
249.84228
 20
384.783268
 10
249.820842
 20
384.732642
 10
249.798612
 20
384.682358
 10
249.775595
 20
384.63243
 10
249.751797
 20
384.58287
 10
249.727223
 20
384.53369
 10
249.701879
 20
384.484902
 10
249.675773
 20
384.436517
 10
249.648909
 20
384.388549
 10
249.621296
 20
384.341009
 10
249.592939
 20
384.293908
 10
249.563846
 20
384.247259
 10
249.534023
 20
384.201072
 10
249.503479
 20
384.15536
 10
249.472221
 20
384.110133
 10
249.440256
 20
384.065402
 10
249.407592
 20
384.021179
 10
249.374238
 20
383.977475
 10
249.340201
 20
383.934299
 10
249.305491
 20
383.891664
 10
249.270115
 20
383.849579
 10
249.234082
 20
383.808055
 10
249.197402
 20
383.767103
 10
249.160083
 20
383.726731
 10
249.122134
 20
383.686951
 10
249.083565
 20
383.647771
 10
249.044386
 20
383.609202
 10
249.004605
 20
383.571254
 10
248.964234
 20
383.533935
 10
248.923281
 20
383.497254
 10
248.881757
 20
383.461222
 10
248.839672
 20
383.425846
 10
248.797037
 20
383.391135
 10
248.753862
 20
383.357098
 10
248.710157
 20
383.323744
 10
248.665934
 20
383.291081
 10
248.621204
 20
383.259116
 10
248.575977
 20
383.227857
 10
248.530264
 20
383.197313
 10
248.484077
 20
383.167491
 10
248.437428
 20
383.138398
 10
248.390327
 20
383.110041
 10
248.342787
 20
383.082427
 10
248.294819
 20
383.055564
 10
248.246435
 20
383.029457
 10
248.197647
 20
383.004114
 10
248.148466
 20
382.97954
 10
248.098906
 20
382.955741
 10
248.048978
 20
382.932724
 10
247.998695
 20
382.910494
 10
247.948069
 20
382.889056
 10
247.897112
 20
382.868417
 10
247.845837
 20
382.84858
 10
247.794257
 20
382.829551
 10
247.742385
 20
382.811335
 10
247.690233
 20
382.793936
 10
247.637814
 20
382.777358
 10
247.585141
 20
382.761605
 10
247.532227
 20
382.746682
 10
247.479085
 20
382.732592
 10
247.425728
 20
382.719338
 10
247.37217
 20
382.706924
 10
247.318424
 20
382.695352
 10
247.264502
 20
382.684627
 10
247.210419
 20
382.674749
 10
247.156187
 20
382.665723
 10
247.10182
 20
382.657549
 10
247.047331
 20
382.65023
 10
246.992734
 20
382.643768
 10
246.938042
 20
382.638165
 10
246.883269
 20
382.633421
 10
246.828429
 20
382.629538
 10
246.773534
 20
382.626517
 10
246.718598
 20
382.624358
 10
246.663635
 20
382.623063
 10
246.614549
 20
382.622678
 10
235.602768
 20
382.622678
 10
235.553683
 20
382.623063
 10
235.49872
 20
382.624358
 10
235.443784
 20
382.626517
 10
235.388889
 20
382.629538
 10
235.334048
 20
382.633421
 10
235.279275
 20
382.638165
 10
235.224584
 20
382.643768
 10
235.169987
 20
382.65023
 10
235.115498
 20
382.657549
 10
235.061131
 20
382.665723
 10
235.006899
 20
382.674749
 10
234.952816
 20
382.684627
 10
234.898894
 20
382.695352
 10
234.845147
 20
382.706924
 10
234.791589
 20
382.719338
 10
234.738233
 20
382.732592
 10
234.685091
 20
382.746682
 10
234.632177
 20
382.761605
 10
234.579504
 20
382.777358
 10
234.527085
 20
382.793936
 10
234.474933
 20
382.811335
 10
234.42306
 20
382.829551
 10
234.371481
 20
382.84858
 10
234.320206
 20
382.868417
 10
234.269249
 20
382.889056
 10
234.218623
 20
382.910494
 10
234.16834
 20
382.932724
 10
234.118412
 20
382.955741
 10
234.068851
 20
382.97954
 10
234.019671
 20
383.004114
 10
233.970883
 20
383.029457
 10
233.922499
 20
383.055564
 10
233.874531
 20
383.082427
 10
233.82699
 20
383.110041
 10
233.77989
 20
383.138398
 10
233.73324
 20
383.167491
 10
233.687054
 20
383.197313
 10
233.641341
 20
383.227857
 10
233.596114
 20
383.259116
 10
233.551383
 20
383.291081
 10
233.50716
 20
383.323744
 10
233.463456
 20
383.357098
 10
233.420281
 20
383.391135
 10
233.377645
 20
383.425846
 10
233.335561
 20
383.461222
 10
233.294037
 20
383.497254
 10
233.253084
 20
383.533935
 10
233.212712
 20
383.571254
 10
233.172932
 20
383.609202
 10
233.133752
 20
383.647771
 10
233.095184
 20
383.686951
 10
233.057235
 20
383.726731
 10
233.019916
 20
383.767103
 10
232.983235
 20
383.808055
 10
232.947203
 20
383.849579
 10
232.911827
 20
383.891664
 10
232.877116
 20
383.934299
 10
232.84308
 20
383.977475
 10
232.809726
 20
384.021179
 10
232.777062
 20
384.065402
 10
232.745097
 20
384.110133
 10
232.713839
 20
384.15536
 10
232.683294
 20
384.201072
 10
232.653472
 20
384.247259
 10
232.624379
 20
384.293908
 10
232.596022
 20
384.341009
 10
232.568408
 20
384.388549
 10
232.541545
 20
384.436517
 10
232.515438
 20
384.484902
 10
232.490095
 20
384.53369
 10
232.465521
 20
384.58287
 10
232.441722
 20
384.63243
 10
232.418705
 20
384.682358
 10
232.396475
 20
384.732642
 10
232.375038
 20
384.783268
 10
232.354398
 20
384.834225
 10
232.334561
 20
384.885499
 10
232.315533
 20
384.937079
 10
232.297316
 20
384.988952
 10
232.279917
 20
385.041104
 10
232.263339
 20
385.093523
 10
232.247587
 20
385.146196
 10
232.232663
 20
385.19911
 10
232.218573
 20
385.252251
 10
232.205319
 20
385.305608
 10
232.192905
 20
385.359166
 10
232.181334
 20
385.412913
 10
232.170608
 20
385.466834
 10
232.160731
 20
385.520918
 10
232.151704
 20
385.57515
 10
232.14353
 20
385.629517
 10
232.136211
 20
385.684005
 10
232.12975
 20
385.738602
 10
232.124146
 20
385.793294
 10
232.119402
 20
385.848067
 10
232.115519
 20
385.902908
 10
232.112498
 20
385.957803
 10
232.11034
 20
386.012738
 10
232.109044
 20
386.067701
 10
232.108659
 20
386.116787
 10
232.108659
 20
397.128568
 10
232.109044
 20
397.177654
 10
232.11034
 20
397.232617
 10
232.112498
 20
397.287552
 10
232.115519
 20
397.342447
 10
232.119402
 20
397.397288
 10
232.124146
 20
397.452061
 10
232.12975
 20
397.506753
 10
232.136211
 20
397.56135
 10
232.14353
 20
397.615838
 10
232.151704
 20
397.670205
 10
232.160731
 20
397.724437
 10
232.170608
 20
397.778521
 10
232.181334
 20
397.832442
 10
232.192905
 20
397.886189
 10
232.205319
 20
397.939747
 10
232.218573
 20
397.993104
 10
232.232663
 20
398.046245
 10
232.247587
 20
398.099159
 10
232.263339
 20
398.151832
 10
232.279917
 20
398.204251
 10
232.297316
 20
398.256404
 10
232.315533
 20
398.308276
 10
232.334561
 20
398.359856
 10
232.354398
 20
398.411131
 10
232.375038
 20
398.462087
 10
232.396475
 20
398.512714
 10
232.418705
 20
398.562997
 10
232.441722
 20
398.612925
 10
232.465521
 20
398.662485
 10
232.490095
 20
398.711665
 10
232.515438
 20
398.760454
 10
232.541545
 20
398.808838
 10
232.568408
 20
398.856806
 10
232.596022
 20
398.904346
 10
232.624379
 20
398.951447
 10
232.653472
 20
398.998096
 10
232.683294
 20
399.044283
 10
232.713839
 20
399.089995
 10
232.745097
 20
399.135223
 10
232.777062
 20
399.179953
 10
232.809726
 20
399.224176
 10
232.84308
 20
399.267881
 10
232.877116
 20
399.311056
 10
232.911827
 20
399.353691
 10
232.947203
 20
399.395776
 10
232.983235
 20
399.4373
 10
233.019916
 20
399.478253
 10
233.057235
 20
399.518624
 10
233.095184
 20
399.558405
 10
233.133752
 20
399.597584
 10
233.172932
 20
399.636153
 10
233.212712
 20
399.674102
 10
233.253084
 20
399.711421
 10
233.294037
 20
399.748101
 10
233.335561
 20
399.784134
 10
233.377645
 20
399.81951
 10
233.420281
 20
399.85422
 10
233.463456
 20
399.888257
 10
233.50716
 20
399.921611
 10
233.551383
 20
399.954274
 10
233.596114
 20
399.986239
 10
233.641341
 20
400.017498
 10
233.687054
 20
400.048042
 10
233.73324
 20
400.077864
 10
233.77989
 20
400.106958
 10
233.82699
 20
400.135314
 10
233.874531
 20
400.162928
 10
233.922499
 20
400.189792
 10
233.970883
 20
400.215898
 10
234.019671
 20
400.241242
 10
234.068851
 20
400.265816
 10
234.118412
 20
400.289614
 10
234.16834
 20
400.312631
 10
234.218623
 20
400.334861
 10
234.269249
 20
400.356299
 10
234.320206
 20
400.376938
 10
234.371481
 20
400.396775
 10
234.42306
 20
400.415804
 10
234.474933
 20
400.43402
 10
234.527085
 20
400.451419
 10
234.579504
 20
400.467997
 10
234.632177
 20
400.48375
 10
234.685091
 20
400.498673
 10
234.738233
 20
400.512763
 10
234.791589
 20
400.526017
 10
234.845147
 20
400.538431
 10
234.898894
 20
400.550003
 10
234.952816
 20
400.560728
 10
235.006899
 20
400.570606
 10
235.061131
 20
400.579632
 10
235.115498
 20
400.587806
 10
235.169987
 20
400.595125
 10
235.224584
 20
400.601587
 10
235.279275
 20
400.607191
 10
235.334048
 20
400.611934
 10
235.388889
 20
400.615817
 10
235.443784
 20
400.618838
 10
235.49872
 20
400.620997
 10
235.553683
 20
400.622292
 10
235.602768
 20
400.622678
  0
LWPOLYLINE
  5
4B0
330
1F
100
AcDbEntity
  8
TOP_Full_CutOut_90_1
100
AcDbPolyline
 90
      204
 70
     1
 43
0.0
 10
255.096878
 20
384.222678
 10
255.001856
 20
384.22417
 10
254.895159
 20
384.229202
 10
254.788673
 20
384.237583
 10
254.682503
 20
384.249304
 10
254.576753
 20
384.264354
 10
254.471528
 20
384.282719
 10
254.366931
 20
384.30438
 10
254.263067
 20
384.329316
 10
254.160037
 20
384.357501
 10
254.057944
 20
384.388909
 10
253.956887
 20
384.423509
 10
253.856967
 20
384.461265
 10
253.758283
 20
384.502142
 10
253.66093
 20
384.546098
 10
253.565007
 20
384.59309
 10
253.470607
 20
384.643073
 10
253.377824
 20
384.695995
 10
253.286749
 20
384.751806
 10
253.197471
 20
384.810451
 10
253.11008
 20
384.87187
 10
253.024661
 20
384.936004
 10
252.941299
 20
385.00279
 10
252.860076
 20
385.072161
 10
252.781072
 20
385.144049
 10
252.704365
 20
385.218384
 10
252.630031
 20
385.295091
 10
252.558142
 20
385.374095
 10
252.488771
 20
385.455318
 10
252.421986
 20
385.53868
 10
252.357851
 20
385.624099
 10
252.296432
 20
385.71149
 10
252.237788
 20
385.800767
 10
252.181977
 20
385.891843
 10
252.129054
 20
385.984626
 10
252.079072
 20
386.079026
 10
252.032079
 20
386.174949
 10
251.988123
 20
386.272301
 10
251.947247
 20
386.370986
 10
251.90949
 20
386.470906
 10
251.874891
 20
386.571963
 10
251.843483
 20
386.674056
 10
251.815297
 20
386.777086
 10
251.790361
 20
386.88095
 10
251.7687
 20
386.985546
 10
251.750336
 20
387.090771
 10
251.735285
 20
387.196521
 10
251.723564
 20
387.302692
 10
251.715183
 20
387.409178
 10
251.710152
 20
387.515875
 10
251.708659
 20
387.610896
 10
251.708659
 20
395.634459
 10
251.710152
 20
395.72948
 10
251.715183
 20
395.836177
 10
251.723564
 20
395.942663
 10
251.735285
 20
396.048834
 10
251.750336
 20
396.154584
 10
251.7687
 20
396.259809
 10
251.790361
 20
396.364405
 10
251.815297
 20
396.468269
 10
251.843483
 20
396.571299
 10
251.874891
 20
396.673393
 10
251.90949
 20
396.774449
 10
251.947247
 20
396.874369
 10
251.988123
 20
396.973054
 10
252.032079
 20
397.070406
 10
252.079072
 20
397.166329
 10
252.129054
 20
397.260729
 10
252.181977
 20
397.353513
 10
252.237788
 20
397.444588
 10
252.296432
 20
397.533865
 10
252.357851
 20
397.621256
 10
252.421986
 20
397.706675
 10
252.488771
 20
397.790037
 10
252.558142
 20
397.87126
 10
252.630031
 20
397.950264
 10
252.704365
 20
398.026972
 10
252.781072
 20
398.101306
 10
252.860076
 20
398.173194
 10
252.941299
 20
398.242565
 10
253.024661
 20
398.309351
 10
253.11008
 20
398.373485
 10
253.197471
 20
398.434905
 10
253.286749
 20
398.493549
 10
253.377824
 20
398.54936
 10
253.470607
 20
398.602282
 10
253.565007
 20
398.652265
 10
253.66093
 20
398.699257
 10
253.758283
 20
398.743213
 10
253.856967
 20
398.78409
 10
253.956887
 20
398.821846
 10
254.057944
 20
398.856446
 10
254.160037
 20
398.887854
 10
254.263067
 20
398.91604
 10
254.366931
 20
398.940975
 10
254.471528
 20
398.962636
 10
254.576753
 20
398.981001
 10
254.682503
 20
398.996051
 10
254.788673
 20
399.007773
 10
254.895159
 20
399.016153
 10
255.001856
 20
399.021185
 10
255.096878
 20
399.022678
 10
263.12044
 20
399.022678
 10
263.215461
 20
399.021185
 10
263.322158
 20
399.016153
 10
263.428645
 20
399.007773
 10
263.534815
 20
398.996051
 10
263.640565
 20
398.981001
 10
263.74579
 20
398.962636
 10
263.850386
 20
398.940975
 10
263.95425
 20
398.91604
 10
264.05728
 20
398.887854
 10
264.159374
 20
398.856446
 10
264.26043
 20
398.821846
 10
264.36035
 20
398.78409
 10
264.459035
 20
398.743213
 10
264.556387
 20
398.699257
 10
264.652311
 20
398.652265
 10
264.74671
 20
398.602282
 10
264.839494
 20
398.54936
 10
264.930569
 20
398.493549
 10
265.019846
 20
398.434905
 10
265.107237
 20
398.373485
 10
265.192656
 20
398.309351
 10
265.276018
 20
398.242565
 10
265.357242
 20
398.173194
 10
265.436246
 20
398.101306
 10
265.512953
 20
398.026972
 10
265.587287
 20
397.950264
 10
265.659175
 20
397.87126
 10
265.728546
 20
397.790037
 10
265.795332
 20
397.706675
 10
265.859466
 20
397.621256
 10
265.920886
 20
397.533865
 10
265.97953
 20
397.444588
 10
266.035341
 20
397.353513
 10
266.088264
 20
397.260729
 10
266.138246
 20
397.166329
 10
266.185238
 20
397.070406
 10
266.229194
 20
396.973054
 10
266.270071
 20
396.874369
 10
266.307828
 20
396.774449
 10
266.342427
 20
396.673393
 10
266.373835
 20
396.571299
 10
266.402021
 20
396.468269
 10
266.426956
 20
396.364405
 10
266.448617
 20
396.259809
 10
266.466982
 20
396.154584
 10
266.482032
 20
396.048834
 10
266.493754
 20
395.942663
 10
266.502134
 20
395.836177
 10
266.507166
 20
395.72948
 10
266.508659
 20
395.634459
 10
266.508659
 20
387.610896
 10
266.507166
 20
387.515875
 10
266.502134
 20
387.409178
 10
266.493754
 20
387.302692
 10
266.482032
 20
387.196521
 10
266.466982
 20
387.090771
 10
266.448617
 20
386.985546
 10
266.426956
 20
386.88095
 10
266.402021
 20
386.777086
 10
266.373835
 20
386.674056
 10
266.342427
 20
386.571963
 10
266.307828
 20
386.470906
 10
266.270071
 20
386.370986
 10
266.229194
 20
386.272301
 10
266.185238
 20
386.174949
 10
266.138246
 20
386.079026
 10
266.088264
 20
385.984626
 10
266.035341
 20
385.891843
 10
265.97953
 20
385.800767
 10
265.920886
 20
385.71149
 10
265.859466
 20
385.624099
 10
265.795332
 20
385.53868
 10
265.728546
 20
385.455318
 10
265.659175
 20
385.374095
 10
265.587287
 20
385.295091
 10
265.512953
 20
385.218384
 10
265.436246
 20
385.144049
 10
265.357242
 20
385.072161
 10
265.276018
 20
385.00279
 10
265.192656
 20
384.936004
 10
265.107237
 20
384.87187
 10
265.019846
 20
384.810451
 10
264.930569
 20
384.751806
 10
264.839494
 20
384.695995
 10
264.74671
 20
384.643073
 10
264.652311
 20
384.59309
 10
264.556387
 20
384.546098
 10
264.459035
 20
384.502142
 10
264.36035
 20
384.461265
 10
264.26043
 20
384.423509
 10
264.159374
 20
384.388909
 10
264.05728
 20
384.357501
 10
263.95425
 20
384.329316
 10
263.850386
 20
384.30438
 10
263.74579
 20
384.282719
 10
263.640565
 20
384.264354
 10
263.534815
 20
384.249304
 10
263.428645
 20
384.237583
 10
263.322158
 20
384.229202
 10
263.215461
 20
384.22417
 10
263.12044
 20
384.222678
  0
LWPOLYLINE
  5
4B1
102
{ACAD_REACTORS
330
4E6
102
}
330
1F
100
AcDbEntity
  8
TOP_Full_CutOut_90_2
100
AcDbPolyline
 90
      404
 70
     1
 43
0.0
 10
264.614549
 20
400.622678
 10
264.663635
 20
400.622292
 10
264.718598
 20
400.620997
 10
264.773534
 20
400.618838
 10
264.828429
 20
400.615817
 10
264.883269
 20
400.611934
 10
264.938042
 20
400.607191
 10
264.992734
 20
400.601587
 10
265.047331
 20
400.595125
 10
265.10182
 20
400.587806
 10
265.156187
 20
400.579632
 10
265.210419
 20
400.570606
 10
265.264502
 20
400.560728
 10
265.318424
 20
400.550003
 10
265.37217
 20
400.538431
 10
265.425728
 20
400.526017
 10
265.479085
 20
400.512763
 10
265.532227
 20
400.498673
 10
265.585141
 20
400.48375
 10
265.637814
 20
400.467997
 10
265.690233
 20
400.451419
 10
265.742385
 20
400.43402
 10
265.794257
 20
400.415804
 10
265.845837
 20
400.396775
 10
265.897112
 20
400.376938
 10
265.948069
 20
400.356299
 10
265.998695
 20
400.334861
 10
266.048978
 20
400.312631
 10
266.098906
 20
400.289614
 10
266.148466
 20
400.265816
 10
266.197647
 20
400.241242
 10
266.246435
 20
400.215898
 10
266.294819
 20
400.189792
 10
266.342787
 20
400.162928
 10
266.390327
 20
400.135314
 10
266.437428
 20
400.106958
 10
266.484077
 20
400.077864
 10
266.530264
 20
400.048042
 10
266.575977
 20
400.017498
 10
266.621204
 20
399.986239
 10
266.665934
 20
399.954274
 10
266.710157
 20
399.921611
 10
266.753862
 20
399.888257
 10
266.797037
 20
399.85422
 10
266.839672
 20
399.81951
 10
266.881757
 20
399.784134
 10
266.923281
 20
399.748101
 10
266.964234
 20
399.711421
 10
267.004605
 20
399.674102
 10
267.044386
 20
399.636153
 10
267.083565
 20
399.597584
 10
267.122134
 20
399.558405
 10
267.160083
 20
399.518624
 10
267.197402
 20
399.478253
 10
267.234082
 20
399.4373
 10
267.270115
 20
399.395776
 10
267.305491
 20
399.353691
 10
267.340201
 20
399.311056
 10
267.374238
 20
399.267881
 10
267.407592
 20
399.224176
 10
267.440256
 20
399.179953
 10
267.472221
 20
399.135223
 10
267.503479
 20
399.089995
 10
267.534023
 20
399.044283
 10
267.563846
 20
398.998096
 10
267.592939
 20
398.951447
 10
267.621296
 20
398.904346
 10
267.648909
 20
398.856806
 10
267.675773
 20
398.808838
 10
267.701879
 20
398.760454
 10
267.727223
 20
398.711665
 10
267.751797
 20
398.662485
 10
267.775595
 20
398.612925
 10
267.798612
 20
398.562997
 10
267.820842
 20
398.512714
 10
267.84228
 20
398.462087
 10
267.86292
 20
398.411131
 10
267.882756
 20
398.359856
 10
267.901785
 20
398.308276
 10
267.920001
 20
398.256404
 10
267.937401
 20
398.204251
 10
267.953979
 20
398.151832
 10
267.969731
 20
398.099159
 10
267.984654
 20
398.046245
 10
267.998745
 20
397.993104
 10
268.011999
 20
397.939747
 10
268.024413
 20
397.886189
 10
268.035984
 20
397.832442
 10
268.04671
 20
397.778521
 10
268.056587
 20
397.724437
 10
268.065614
 20
397.670205
 10
268.073787
 20
397.615838
 10
268.081106
 20
397.56135
 10
268.087568
 20
397.506753
 10
268.093172
 20
397.452061
 10
268.097916
 20
397.397288
 10
268.101799
 20
397.342447
 10
268.10482
 20
397.287552
 10
268.106978
 20
397.232617
 10
268.108273
 20
397.177654
 10
268.108659
 20
397.128568
 10
268.108659
 20
386.116787
 10
268.108273
 20
386.067701
 10
268.106978
 20
386.012738
 10
268.10482
 20
385.957803
 10
268.101799
 20
385.902908
 10
268.097916
 20
385.848067
 10
268.093172
 20
385.793294
 10
268.087568
 20
385.738602
 10
268.081106
 20
385.684005
 10
268.073787
 20
385.629517
 10
268.065614
 20
385.57515
 10
268.056587
 20
385.520918
 10
268.04671
 20
385.466834
 10
268.035984
 20
385.412913
 10
268.024413
 20
385.359166
 10
268.011999
 20
385.305608
 10
267.998745
 20
385.252251
 10
267.984654
 20
385.19911
 10
267.969731
 20
385.146196
 10
267.953979
 20
385.093523
 10
267.937401
 20
385.041104
 10
267.920001
 20
384.988952
 10
267.901785
 20
384.937079
 10
267.882756
 20
384.885499
 10
267.86292
 20
384.834225
 10
267.84228
 20
384.783268
 10
267.820842
 20
384.732642
 10
267.798612
 20
384.682358
 10
267.775595
 20
384.63243
 10
267.751797
 20
384.58287
 10
267.727223
 20
384.53369
 10
267.701879
 20
384.484902
 10
267.675773
 20
384.436517
 10
267.648909
 20
384.388549
 10
267.621296
 20
384.341009
 10
267.592939
 20
384.293908
 10
267.563846
 20
384.247259
 10
267.534023
 20
384.201072
 10
267.503479
 20
384.15536
 10
267.472221
 20
384.110133
 10
267.440256
 20
384.065402
 10
267.407592
 20
384.021179
 10
267.374238
 20
383.977475
 10
267.340201
 20
383.934299
 10
267.305491
 20
383.891664
 10
267.270115
 20
383.849579
 10
267.234082
 20
383.808055
 10
267.197402
 20
383.767103
 10
267.160083
 20
383.726731
 10
267.122134
 20
383.686951
 10
267.083565
 20
383.647771
 10
267.044386
 20
383.609202
 10
267.004605
 20
383.571254
 10
266.964234
 20
383.533935
 10
266.923281
 20
383.497254
 10
266.881757
 20
383.461222
 10
266.839672
 20
383.425846
 10
266.797037
 20
383.391135
 10
266.753862
 20
383.357098
 10
266.710157
 20
383.323744
 10
266.665934
 20
383.291081
 10
266.621204
 20
383.259116
 10
266.575977
 20
383.227857
 10
266.530264
 20
383.197313
 10
266.484077
 20
383.167491
 10
266.437428
 20
383.138398
 10
266.390327
 20
383.110041
 10
266.342787
 20
383.082427
 10
266.294819
 20
383.055564
 10
266.246435
 20
383.029457
 10
266.197647
 20
383.004114
 10
266.148466
 20
382.97954
 10
266.098906
 20
382.955741
 10
266.048978
 20
382.932724
 10
265.998695
 20
382.910494
 10
265.948069
 20
382.889056
 10
265.897112
 20
382.868417
 10
265.845837
 20
382.84858
 10
265.794257
 20
382.829551
 10
265.742385
 20
382.811335
 10
265.690233
 20
382.793936
 10
265.637814
 20
382.777358
 10
265.585141
 20
382.761605
 10
265.532227
 20
382.746682
 10
265.479085
 20
382.732592
 10
265.425728
 20
382.719338
 10
265.37217
 20
382.706924
 10
265.318424
 20
382.695352
 10
265.264502
 20
382.684627
 10
265.210419
 20
382.674749
 10
265.156187
 20
382.665723
 10
265.10182
 20
382.657549
 10
265.047331
 20
382.65023
 10
264.992734
 20
382.643768
 10
264.938042
 20
382.638165
 10
264.883269
 20
382.633421
 10
264.828429
 20
382.629538
 10
264.773534
 20
382.626517
 10
264.718598
 20
382.624358
 10
264.663635
 20
382.623063
 10
264.614549
 20
382.622678
 10
253.602768
 20
382.622678
 10
253.553683
 20
382.623063
 10
253.49872
 20
382.624358
 10
253.443784
 20
382.626517
 10
253.388889
 20
382.629538
 10
253.334048
 20
382.633421
 10
253.279275
 20
382.638165
 10
253.224584
 20
382.643768
 10
253.169987
 20
382.65023
 10
253.115498
 20
382.657549
 10
253.061131
 20
382.665723
 10
253.006899
 20
382.674749
 10
252.952816
 20
382.684627
 10
252.898894
 20
382.695352
 10
252.845147
 20
382.706924
 10
252.791589
 20
382.719338
 10
252.738233
 20
382.732592
 10
252.685091
 20
382.746682
 10
252.632177
 20
382.761605
 10
252.579504
 20
382.777358
 10
252.527085
 20
382.793936
 10
252.474933
 20
382.811335
 10
252.42306
 20
382.829551
 10
252.371481
 20
382.84858
 10
252.320206
 20
382.868417
 10
252.269249
 20
382.889056
 10
252.218623
 20
382.910494
 10
252.16834
 20
382.932724
 10
252.118412
 20
382.955741
 10
252.068851
 20
382.97954
 10
252.019671
 20
383.004114
 10
251.970883
 20
383.029457
 10
251.922499
 20
383.055564
 10
251.874531
 20
383.082427
 10
251.82699
 20
383.110041
 10
251.77989
 20
383.138398
 10
251.73324
 20
383.167491
 10
251.687054
 20
383.197313
 10
251.641341
 20
383.227857
 10
251.596114
 20
383.259116
 10
251.551383
 20
383.291081
 10
251.50716
 20
383.323744
 10
251.463456
 20
383.357098
 10
251.420281
 20
383.391135
 10
251.377645
 20
383.425846
 10
251.335561
 20
383.461222
 10
251.294037
 20
383.497254
 10
251.253084
 20
383.533935
 10
251.212712
 20
383.571254
 10
251.172932
 20
383.609202
 10
251.133752
 20
383.647771
 10
251.095184
 20
383.686951
 10
251.057235
 20
383.726731
 10
251.019916
 20
383.767103
 10
250.983235
 20
383.808055
 10
250.947203
 20
383.849579
 10
250.911827
 20
383.891664
 10
250.877116
 20
383.934299
 10
250.84308
 20
383.977475
 10
250.809726
 20
384.021179
 10
250.777062
 20
384.065402
 10
250.745097
 20
384.110133
 10
250.713839
 20
384.15536
 10
250.683294
 20
384.201072
 10
250.653472
 20
384.247259
 10
250.624379
 20
384.293908
 10
250.596022
 20
384.341009
 10
250.568408
 20
384.388549
 10
250.541545
 20
384.436517
 10
250.515438
 20
384.484902
 10
250.490095
 20
384.53369
 10
250.465521
 20
384.58287
 10
250.441722
 20
384.63243
 10
250.418705
 20
384.682358
 10
250.396475
 20
384.732642
 10
250.375038
 20
384.783268
 10
250.354398
 20
384.834225
 10
250.334561
 20
384.885499
 10
250.315533
 20
384.937079
 10
250.297316
 20
384.988952
 10
250.279917
 20
385.041104
 10
250.263339
 20
385.093523
 10
250.247587
 20
385.146196
 10
250.232663
 20
385.19911
 10
250.218573
 20
385.252251
 10
250.205319
 20
385.305608
 10
250.192905
 20
385.359166
 10
250.181334
 20
385.412913
 10
250.170608
 20
385.466834
 10
250.160731
 20
385.520918
 10
250.151704
 20
385.57515
 10
250.14353
 20
385.629517
 10
250.136211
 20
385.684005
 10
250.12975
 20
385.738602
 10
250.124146
 20
385.793294
 10
250.119402
 20
385.848067
 10
250.115519
 20
385.902908
 10
250.112498
 20
385.957803
 10
250.11034
 20
386.012738
 10
250.109044
 20
386.067701
 10
250.108659
 20
386.116787
 10
250.108659
 20
397.128568
 10
250.109044
 20
397.177654
 10
250.11034
 20
397.232617
 10
250.112498
 20
397.287552
 10
250.115519
 20
397.342447
 10
250.119402
 20
397.397288
 10
250.124146
 20
397.452061
 10
250.12975
 20
397.506753
 10
250.136211
 20
397.56135
 10
250.14353
 20
397.615838
 10
250.151704
 20
397.670205
 10
250.160731
 20
397.724437
 10
250.170608
 20
397.778521
 10
250.181334
 20
397.832442
 10
250.192905
 20
397.886189
 10
250.205319
 20
397.939747
 10
250.218573
 20
397.993104
 10
250.232663
 20
398.046245
 10
250.247587
 20
398.099159
 10
250.263339
 20
398.151832
 10
250.279917
 20
398.204251
 10
250.297316
 20
398.256404
 10
250.315533
 20
398.308276
 10
250.334561
 20
398.359856
 10
250.354398
 20
398.411131
 10
250.375038
 20
398.462087
 10
250.396475
 20
398.512714
 10
250.418705
 20
398.562997
 10
250.441722
 20
398.612925
 10
250.465521
 20
398.662485
 10
250.490095
 20
398.711665
 10
250.515438
 20
398.760454
 10
250.541545
 20
398.808838
 10
250.568408
 20
398.856806
 10
250.596022
 20
398.904346
 10
250.624379
 20
398.951447
 10
250.653472
 20
398.998096
 10
250.683294
 20
399.044283
 10
250.713839
 20
399.089995
 10
250.745097
 20
399.135223
 10
250.777062
 20
399.179953
 10
250.809726
 20
399.224176
 10
250.84308
 20
399.267881
 10
250.877116
 20
399.311056
 10
250.911827
 20
399.353691
 10
250.947203
 20
399.395776
 10
250.983235
 20
399.4373
 10
251.019916
 20
399.478253
 10
251.057235
 20
399.518624
 10
251.095184
 20
399.558405
 10
251.133752
 20
399.597584
 10
251.172932
 20
399.636153
 10
251.212712
 20
399.674102
 10
251.253084
 20
399.711421
 10
251.294037
 20
399.748101
 10
251.335561
 20
399.784134
 10
251.377645
 20
399.81951
 10
251.420281
 20
399.85422
 10
251.463456
 20
399.888257
 10
251.50716
 20
399.921611
 10
251.551383
 20
399.954274
 10
251.596114
 20
399.986239
 10
251.641341
 20
400.017498
 10
251.687054
 20
400.048042
 10
251.73324
 20
400.077864
 10
251.77989
 20
400.106958
 10
251.82699
 20
400.135314
 10
251.874531
 20
400.162928
 10
251.922499
 20
400.189792
 10
251.970883
 20
400.215898
 10
252.019671
 20
400.241242
 10
252.068851
 20
400.265816
 10
252.118412
 20
400.289614
 10
252.16834
 20
400.312631
 10
252.218623
 20
400.334861
 10
252.269249
 20
400.356299
 10
252.320206
 20
400.376938
 10
252.371481
 20
400.396775
 10
252.42306
 20
400.415804
 10
252.474933
 20
400.43402
 10
252.527085
 20
400.451419
 10
252.579504
 20
400.467997
 10
252.632177
 20
400.48375
 10
252.685091
 20
400.498673
 10
252.738233
 20
400.512763
 10
252.791589
 20
400.526017
 10
252.845147
 20
400.538431
 10
252.898894
 20
400.550003
 10
252.952816
 20
400.560728
 10
253.006899
 20
400.570606
 10
253.061131
 20
400.579632
 10
253.115498
 20
400.587806
 10
253.169987
 20
400.595125
 10
253.224584
 20
400.601587
 10
253.279275
 20
400.607191
 10
253.334048
 20
400.611934
 10
253.388889
 20
400.615817
 10
253.443784
 20
400.618838
 10
253.49872
 20
400.620997
 10
253.553683
 20
400.622292
 10
253.602768
 20
400.622678
  0
DIMENSION
  5
4D7
102
{ACAD_REACTORS
330
4E6
102
}
102
{ACAD_XDICTIONARY
360
4E5
102
}
330
1F
100
AcDbEntity
  8
DIMENSION
100
AcDbDimension
280
     0
  2
*D13
 10
279.592526
 20
382.622678
 30
0.0
 11
279.592526
 21
400.622678
 31
0.0
 70
    32
 71
     5
 42
36.0
 73
     0
 74
     0
 75
     0
  3
Standard
100
AcDbAlignedDimension
 13
264.592526
 23
418.622678
 33
0.0
 14
264.592526
 24
382.622678
 34
0.0
 50
-90.0
100
AcDbRotatedDimension
1001
ACAD
1000
DSTYLE
1002
{
1070
   340
1005
11
1070
   144
1040
1.0
1070
    40
1040
1.0
1070
   173
1070
     1
1070
   343
1005
0
1070
   342
1005
0
1070
   344
1005
0
1070
   283
1070
     1
1002
}
  0
VIEWPORT
  5
20F
330
D6
100
AcDbEntity
 67
     1
  8
0
 48
100.0
100
AcDbViewport
 10
0.0
 20
0.0
 30
0.0
 40
466.965848
 41
238.196088
 68
     1
 69
     1
 12
128.5
 22
97.5
 13
0.0
 23
0.0
 14
10.0
 24
10.0
 15
10.0
 25
10.0
 16
0.0
 26
0.0
 36
1.0
 17
0.0
 27
0.0
 37
0.0
 42
50.0
 43
0.0
 44
0.0
 45
238.196088
 50
0.0
 51
0.0
 72
   100
 90
   557168
  1

281
     0
 71
     1
 74
     0
110
0.0
120
0.0
130
0.0
111
1.0
121
0.0
131
0.0
112
0.0
122
1.0
132
0.0
 79
     0
146
0.0
170
     0
 61
     5
348
F5
292
     1
282
     1
141
0.0
142
0.0
 63
   256
  0
ENDSEC
  0
SECTION
  2
OBJECTS
  0
DICTIONARY
  5
C
330
0
100
AcDbDictionary
281
     1
  3
ACAD_COLOR
350
6B
  3
ACAD_DETAILVIEWSTYLE
350
3E9
  3
ACAD_GROUP
350
D
  3
ACAD_IMAGE_DICT
350
351
  3
ACAD_LAYOUT
350
1A
  3
ACAD_MATERIAL
350
6A
  3
ACAD_MLEADERSTYLE
350
12D
  3
ACAD_MLINESTYLE
350
17
  3
ACAD_PLOTSETTINGS
350
19
  3
ACAD_PLOTSTYLENAME
350
E
  3
ACAD_SCALELIST
350
10C
  3
ACAD_SECTIONVIEWSTYLE
350
3EA
  3
ACAD_TABLESTYLE
350
7E
  3
ACAD_VISUALSTYLE
350
EF
  3
ACDB_RECOMPOSE_DATA
350
4FA
  3
AcDbVariableDictionary
350
5E
  3
MCS_STREAM_DICT
350
34E
  0
SUN
  5
364
330
EA
100
AcDbSun
 90
        1
290
     0
 63
     7
421
 16777215
 40
1.0
291
     1
 91
  2455826
 92
 54000000
292
     0
 70
     2
 71
   256
280
     1
  0
DICTIONARY
  5
44B
330
2
100
AcDbDictionary
280
     1
281
     1
  3
ACAD_LAYERSTATES
360
44C
  0
DICTIONARY
  5
234
330
1F
100
AcDbDictionary
280
     1
281
     1
  3
ACAD_SORTENTS
360
235
  0
DICTIONARY
  5
4E5
330
4D7
100
AcDbDictionary
280
     1
281
     1
  3
MC_XOBJECT1
360
4E6
  0
DICTIONARY
  5
6B
102
{ACAD_REACTORS
330
C
102
}
330
C
100
AcDbDictionary
281
     1
  0
DICTIONARY
  5
3E9
102
{ACAD_REACTORS
330
C
102
}
330
C
100
AcDbDictionary
281
     1
  0
DICTIONARY
  5
D
102
{ACAD_REACTORS
330
C
102
}
330
C
100
AcDbDictionary
281
     1
  0
DICTIONARY
  5
351
102
{ACAD_REACTORS
330
C
102
}
330
C
100
AcDbDictionary
281
     1
  0
DICTIONARY
  5
1A
102
{ACAD_REACTORS
330
C
102
}
330
C
100
AcDbDictionary
281
     1
  3
A0
350
225
  3
A1
350
220
  3
A2
350
21B
  3
A3
350
216
  3
A4
350
211
  3
Layout1
350
D3
  3
Layout2
350
D7
  3
Model
350
22
  0
DICTIONARY
  5
6A
102
{ACAD_REACTORS
330
C
102
}
330
C
100
AcDbDictionary
281
     1
  3
ByBlock
350
ED
  3
ByLayer
350
EC
  3
Global
350
EE
  0
DICTIONARY
  5
12D
102
{ACAD_REACTORS
330
C
102
}
330
C
100
AcDbDictionary
281
     1
  3
Standard
350
12E
  3

350
13B
  0
DICTIONARY
  5
17
102
{ACAD_REACTORS
330
C
102
}
330
C
100
AcDbDictionary
281
     1
  3
Standard
350
18
  0
DICTIONARY
  5
19
102
{ACAD_REACTORS
330
C
102
}
330
C
100
AcDbDictionary
281
     1
  0
ACDBDICTIONARYWDFLT
  5
E
102
{ACAD_REACTORS
330
C
102
}
330
C
100
AcDbDictionary
281
     1
  3
Normal
350
F
100
AcDbDictionaryWithDefault
340
F
  0
DICTIONARY
  5
10C
102
{ACAD_REACTORS
330
C
102
}
330
C
100
AcDbDictionary
281
     1
  3
A0
350
10D
  3
A1
350
1BE
  3
A2
350
1BF
  3
A3
350
1C0
  3
A4
350
1C1
  3
A5
350
1C2
  3
A6
350
1C3
  3
A7
350
1C4
  3
A8
350
1C5
  3
A9
350
1C6
  3
B0
350
1C7
  3
B1
350
1C8
  3
B2
350
1C9
  3
B3
350
1CA
  3
B4
350
1CB
  3
B5
350
1CC
  3
B6
350
1CD
  0
DICTIONARY
  5
3EA
102
{ACAD_REACTORS
330
C
102
}
330
C
100
AcDbDictionary
281
     1
  0
DICTIONARY
  5
7E
102
{ACAD_REACTORS
330
C
102
}
330
C
100
AcDbDictionary
281
     1
  3
Standard
350
7F
  0
DICTIONARY
  5
EF
102
{ACAD_REACTORS
330
C
102
}
330
C
100
AcDbDictionary
281
     1
  3
2dWireframe
350
F5
  3
3D Hidden
350
F7
  3
3dWireframe
350
F6
  3
Basic
350
F4
  3
Brighten
350
FB
  3
ColorChange
350
FF
  3
Conceptual
350
F8
  3
Dim
350
FA
  3
EdgeColorOff
350
35E
  3
Facepattern
350
FE
  3
Flat
350
F0
  3
FlatWithEdges
350
F1
  3
Gouraud
350
F2
  3
GouraudWithEdges
350
F3
  3
Hidden
350
35B
  3
JitterOff
350
35C
  3
Linepattern
350
FD
  3
OverhangOff
350
35D
  3
Realistic
350
F9
  3
Shaded
350
363
  3
Shaded with edges
350
362
  3
Shades of Gray
350
35F
  3
Sketchy
350
360
  3
Thicken
350
FC
  3
Wireframe
350
35A
  3
X-Ray
350
361
  0
XRECORD
  5
4FA
102
{ACAD_REACTORS
330
C
102
}
330
C
100
AcDbXrecord
280
     1
 90
        1
330
7F
  0
DICTIONARY
  5
5E
102
{ACAD_REACTORS
330
C
102
}
330
C
100
AcDbDictionary
281
     1
  3
CANNOSCALE
350
146
  3
CMLEADERSTYLE
350
145
  3
CTABLESTYLE
350
84
  3
DIMASSOC
350
5F
  3
HIDETEXT
350
63
  3
LAYEREVAL
350
1AE
  3
LAYERNOTIFY
350
1AF
  3
XCLIPFRAME
350
356
  0
DICTIONARY
  5
34E
102
{ACAD_REACTORS
330
C
102
}
330
C
100
AcDbDictionary
281
     1
  3
MC_VERSION_DATA
350
3E8
  3
MCS_DOCUMENT_ID
350
357
  3
MCS_PARAMS_DATA
350
3D1
  0
DICTIONARY
  5
44C
102
{ACAD_REACTORS
330
44B
102
}
330
44B
100
AcDbDictionary
281
     1
  3
MyConfiguration
350
4C7
  0
SORTENTSTABLE
  5
235
102
{ACAD_REACTORS
330
234
102
}
330
234
100
AcDbSortentsTable
330
1F
331
0
  5
237
  0
McDbContainer2
  5
4E6
102
{ACAD_REACTORS
330
4E5
102
}
330
4E5
100
McDbContainer2
  0
LAYOUT
  5
225
102
{ACAD_REACTORS
330
1A
102
}
330
1A
100
AcDbPlotSettings
  1

  2
none_device
  4
ISO_A0_(1189.00_x_841.00_MM)
  6

 40
7.5
 41
20.0
 42
7.5
 43
20.0
 44
1189.0
 45
841.0
 46
0.0
 47
0.0
 48
0.0
 49
0.0
140
0.0
141
0.0
142
1.0
143
1.0
 70
   688
 72
     1
 73
     0
 74
     5
  7

 75
    16
 76
     0
 77
     2
 78
   300
147
1.0
148
0.0
149
0.0
100
AcDbLayout
  1
A0
 70
     0
 71
     7
 10
0.0
 20
0.0
 11
0.0
 21
0.0
 12
0.0
 22
0.0
 32
0.0
 14
0.0
 24
0.0
 34
0.0
 15
0.0
 25
0.0
 35
0.0
146
0.0
 13
0.0
 23
0.0
 33
0.0
 16
1.0
 26
0.0
 36
0.0
 17
0.0
 27
1.0
 37
0.0
 76
     0
330
224
331
228
  0
LAYOUT
  5
220
102
{ACAD_REACTORS
330
1A
102
}
330
1A
100
AcDbPlotSettings
  1

  2
none_device
  4
ISO_A1_(841.00_x_594.00_MM)
  6

 40
7.5
 41
20.0
 42
7.5
 43
20.0
 44
841.0
 45
594.0
 46
0.0
 47
0.0
 48
0.0
 49
0.0
140
0.0
141
0.0
142
1.0
143
1.0
 70
   688
 72
     1
 73
     0
 74
     5
  7

 75
    16
 76
     0
 77
     2
 78
   300
147
1.0
148
0.0
149
0.0
100
AcDbLayout
  1
A1
 70
     1
 71
     6
 10
-20.0
 20
-7.5
 11
277.0
 21
202.5
 12
0.0
 22
0.0
 32
0.0
 14
0.0
 24
0.0
 34
0.0
 15
0.0
 25
0.0
 35
0.0
146
0.0
 13
0.0
 23
0.0
 33
0.0
 16
1.0
 26
0.0
 36
0.0
 17
0.0
 27
1.0
 37
0.0
 76
     0
330
21F
331
223
  0
LAYOUT
  5
21B
102
{ACAD_REACTORS
330
1A
102
}
330
1A
100
AcDbPlotSettings
  1

  2
none_device
  4
ISO_A2_(594.00_x_420.00_MM)
  6

 40
7.5
 41
20.0
 42
7.5
 43
20.0
 44
594.0
 45
420.0
 46
0.0
 47
0.0
 48
0.0
 49
0.0
140
0.0
141
0.0
142
1.0
143
1.0
 70
   688
 72
     1
 73
     0
 74
     5
  7

 75
    16
 76
     0
 77
     2
 78
   300
147
1.0
148
0.0
149
0.0
100
AcDbLayout
  1
A2
 70
     1
 71
     5
 10
0.0
 20
0.0
 11
0.0
 21
0.0
 12
0.0
 22
0.0
 32
0.0
 14
0.0
 24
0.0
 34
0.0
 15
0.0
 25
0.0
 35
0.0
146
0.0
 13
0.0
 23
0.0
 33
0.0
 16
1.0
 26
0.0
 36
0.0
 17
0.0
 27
1.0
 37
0.0
 76
     0
330
21A
331
21E
  0
LAYOUT
  5
216
102
{ACAD_REACTORS
330
1A
102
}
330
1A
100
AcDbPlotSettings
  1

  2
none_device
  4
ISO_A3_(420.00_x_297.00_MM)
  6

 40
7.5
 41
20.0
 42
7.5
 43
20.0
 44
420.0
 45
297.0
 46
0.0
 47
0.0
 48
0.0
 49
0.0
140
0.0
141
0.0
142
1.0
143
1.0
 70
   688
 72
     1
 73
     0
 74
     5
  7

 75
    16
 76
     0
 77
     2
 78
   300
147
1.0
148
0.0
149
0.0
100
AcDbLayout
  1
A3
 70
     1
 71
     4
 10
0.0
 20
0.0
 11
0.0
 21
0.0
 12
0.0
 22
0.0
 32
0.0
 14
0.0
 24
0.0
 34
0.0
 15
0.0
 25
0.0
 35
0.0
146
0.0
 13
0.0
 23
0.0
 33
0.0
 16
1.0
 26
0.0
 36
0.0
 17
0.0
 27
1.0
 37
0.0
 76
     0
330
215
331
219
  0
LAYOUT
  5
211
102
{ACAD_REACTORS
330
1A
102
}
330
1A
100
AcDbPlotSettings
  1

  2
none_device
  4
ISO_A4_(210.00_x_297.00_MM)
  6

 40
7.5
 41
20.0
 42
7.5
 43
20.0
 44
210.0
 45
297.0
 46
0.0
 47
0.0
 48
0.0
 49
0.0
140
0.0
141
0.0
142
1.0
143
1.0
 70
   688
 72
     1
 73
     0
 74
     5
  7

 75
    16
 76
     0
 77
     2
 78
   300
147
1.0
148
0.0
149
0.0
100
AcDbLayout
  1
A4
 70
     1
 71
     3
 10
0.0
 20
0.0
 11
0.0
 21
0.0
 12
0.0
 22
0.0
 32
0.0
 14
0.0
 24
0.0
 34
0.0
 15
0.0
 25
0.0
 35
0.0
146
0.0
 13
0.0
 23
0.0
 33
0.0
 16
1.0
 26
0.0
 36
0.0
 17
0.0
 27
1.0
 37
0.0
 76
     0
330
210
331
214
  0
LAYOUT
  5
D3
102
{ACAD_REACTORS
330
1A
102
}
330
1A
100
AcDbPlotSettings
  1

  2
none_device
  4
ISO_A4_(210.00_x_297.00_MM)
  6

 40
7.5
 41
20.0
 42
7.5
 43
20.0
 44
210.0
 45
297.0
 46
0.0
 47
0.0
 48
0.0
 49
0.0
140
0.0
141
0.0
142
1.0
143
1.0
 70
   688
 72
     1
 73
     1
 74
     5
  7

 75
    16
 76
     0
 77
     2
 78
   300
147
1.0
148
0.0
149
0.0
100
AcDbLayout
  1
Layout1
 70
     0
 71
     1
 10
0.0
 20
0.0
 11
12.0
 21
9.0
 12
0.0
 22
0.0
 32
0.0
 14
0.0
 24
0.0
 34
0.0
 15
0.0
 25
0.0
 35
0.0
146
0.0
 13
0.0
 23
0.0
 33
0.0
 16
1.0
 26
0.0
 36
0.0
 17
0.0
 27
1.0
 37
0.0
 76
     0
330
D2
331
229
  0
LAYOUT
  5
D7
102
{ACAD_REACTORS
330
1A
102
}
330
1A
100
AcDbPlotSettings
  1

  2
none_device
  4
ISO_A4_(210.00_x_297.00_MM)
  6

 40
7.5
 41
20.0
 42
7.5
 43
20.0
 44
210.0
 45
297.0
 46
0.0
 47
0.0
 48
0.0
 49
0.0
140
0.0
141
0.0
142
1.0
143
1.0
 70
   688
 72
     1
 73
     1
 74
     5
  7

 75
    16
 76
     0
 77
     2
 78
   300
147
1.0
148
0.0
149
0.0
100
AcDbLayout
  1
Layout2
 70
     0
 71
     2
 10
-20.0
 20
-7.5
 11
277.0
 21
202.5
 12
0.0
 22
0.0
 32
0.0
 14
0.0
 24
0.0
 34
0.0
 15
0.0
 25
0.0
 35
0.0
146
0.0
 13
0.0
 23
0.0
 33
0.0
 16
1.0
 26
0.0
 36
0.0
 17
0.0
 27
1.0
 37
0.0
 76
     0
330
D6
331
20F
  0
LAYOUT
  5
22
102
{ACAD_REACTORS
330
1A
102
}
102
{ACAD_XDICTIONARY
360
358
102
}
330
1A
100
AcDbPlotSettings
  1

  2
none_device
  4
ISO_A4_(210.00_x_297.00_MM)
  6

 40
7.5
 41
20.0
 42
7.5
 43
20.0
 44
210.0
 45
297.0
 46
0.0
 47
0.0
 48
0.0
 49
0.0
140
0.0
141
0.0
142
1.0
143
3.249677
 70
 11952
 72
     1
 73
     0
 74
     0
  7

 75
     0
 76
     0
 77
     2
 78
   300
147
0.307723
148
0.0
149
0.0
100
AcDbLayout
  1
Model
 70
     1
 71
     0
 10
0.0
 20
0.0
 11
420.0
 21
297.0
 12
0.0
 22
0.0
 32
0.0
 14
0.0
 24
0.0
 34
0.0
 15
0.0
 25
0.0
 35
0.0
146
0.0
 13
0.0
 23
0.0
 33
0.0
 16
1.0
 26
0.0
 36
0.0
 17
0.0
 27
1.0
 37
0.0
 76
     0
330
1F
331
EA
1001
ACAD_PSEXT
1000
None
1000
None
1000
Not applicable
1000
The layout will not be plotted unless a new plotter configuration name is selected.
1070
     0
  0
MATERIAL
  5
ED
102
{ACAD_REACTORS
330
6A
102
}
330
6A
100
AcDbMaterial
  1
ByBlock
 72
     1
 73
     2
 78
     2
172
     2
176
     2
270
     2
274
     2
 94
       63
  0
MATERIAL
  5
EC
102
{ACAD_REACTORS
330
6A
102
}
330
6A
100
AcDbMaterial
  1
ByLayer
 72
     1
 73
     2
 78
     2
172
     2
176
     2
270
     2
274
     2
 94
       63
  0
MATERIAL
  5
EE
102
{ACAD_REACTORS
330
6A
102
}
330
6A
100
AcDbMaterial
  1
Global
 72
     1
 73
     2
 43
0.0008
 43
0.0
 43
0.0
 43
0.0
 43
0.0
 43
0.0008
 43
0.0
 43
0.0
 43
0.0
 43
0.0
 43
1.0
 43
0.0
 43
0.0
 43
0.0
 43
0.0
 43
1.0
 78
     2
172
     2
 49
0.0008
 49
0.0
 49
0.0
 49
0.0
 49
0.0
 49
0.0008
 49
0.0
 49
0.0
 49
0.0
 49
0.0
 49
1.0
 49
0.0
 49
0.0
 49
0.0
 49
0.0
 49
1.0
176
     2
142
0.0008
142
0.0
142
0.0
142
0.0
142
0.0
142
0.0008
142
0.0
142
0.0
142
0.0
142
0.0
142
1.0
142
0.0
142
0.0
142
0.0
142
0.0
142
1.0
270
     2
144
0.0008
144
0.0
144
0.0
144
0.0
144
0.0
144
0.0008
144
0.0
144
0.0
144
0.0
144
0.0
144
1.0
144
0.0
144
0.0
144
0.0
144
0.0
144
1.0
274
     2
 94
       63
1001
ACAD
1070
    -1
1070
     3
1070
     0
1000

1071
        0
1070
     0
  0
MLEADERSTYLE
  5
12E
102
{ACAD_REACTORS
330
12D
102
}
330
12D
100
AcDbMLeaderStyle
179
     2
170
     2
171
     1
172
     0
 90
        2
 40
0.0
 41
0.0
173
     1
 91
-1056964608
340
14
 92
       -2
290
     1
 42
2.0
291
     1
 43
8.0
  3
Standard
341
0
 44
4.0
300

342
11
174
     1
178
     1
175
     1
176
     0
 93
-1056964608
 45
4.0
292
     0
297
     0
 46
4.0
343
0
 94
-1056964608
 47
1.0
 49
1.0
140
1.0
293
     1
141
0.0
294
     1
177
     0
142
1.0
295
     0
296
     0
143
3.75
271
     0
272
     9
273
     9
298
     0
1001
ACAD_MLEADERVER
1070
     2
  0
MLEADERSTYLE
  5
13B
102
{ACAD_REACTORS
330
12D
102
}
330
12D
100
AcDbMLeaderStyle
179
     2
170
     2
171
     1
172
     0
 90
        2
 40
0.0
 41
0.0
173
     1
 91
-1056964608
340
14
 92
       -2
290
     1
 42
2.0
291
     1
 43
8.0
  3
Standard
341
0
 44
4.0
300

342
11
174
     1
178
     1
175
     1
176
     0
 93
-1056964608
 45
4.0
292
     0
297
     0
 46
4.0
343
0
 94
-1056964608
 47
1.0
 49
1.0
140
1.0
293
     1
141
0.0
294
     1
177
     0
142
1.0
295
     1
296
     0
143
3.75
271
     0
272
     9
273
     9
298
     0
1001
ACAD_MLEADERVER
1070
     2
  0
MLINESTYLE
  5
18
102
{ACAD_REACTORS
330
17
102
}
330
17
100
AcDbMlineStyle
  2
STANDARD
 70
     0
  3

 62
   256
 51
90.0
 52
90.0
 71
     2
 49
0.5
 62
   256
  6
BYLAYER
 49
-0.5
 62
   256
  6
BYLAYER
  0
ACDBPLACEHOLDER
  5
F
102
{ACAD_REACTORS
330
E
102
}
330
E
  0
SCALE
  5
10D
102
{ACAD_REACTORS
330
10C
102
}
330
10C
100
AcDbScale
 70
     0
300
1:1
140
1.0
141
1.0
290
     1
  0
SCALE
  5
1BE
102
{ACAD_REACTORS
330
10C
102
}
330
10C
100
AcDbScale
 70
     0
300
1:2
140
1.0
141
2.0
290
     0
  0
SCALE
  5
1BF
102
{ACAD_REACTORS
330
10C
102
}
330
10C
100
AcDbScale
 70
     0
300
1:4
140
1.0
141
4.0
290
     0
  0
SCALE
  5
1C0
102
{ACAD_REACTORS
330
10C
102
}
330
10C
100
AcDbScale
 70
     0
300
1:5
140
1.0
141
5.0
290
     0
  0
SCALE
  5
1C1
102
{ACAD_REACTORS
330
10C
102
}
330
10C
100
AcDbScale
 70
     0
300
1:8
140
1.0
141
8.0
290
     0
  0
SCALE
  5
1C2
102
{ACAD_REACTORS
330
10C
102
}
330
10C
100
AcDbScale
 70
     0
300
1:10
140
1.0
141
10.0
290
     0
  0
SCALE
  5
1C3
102
{ACAD_REACTORS
330
10C
102
}
330
10C
100
AcDbScale
 70
     0
300
1:16
140
1.0
141
16.0
290
     0
  0
SCALE
  5
1C4
102
{ACAD_REACTORS
330
10C
102
}
330
10C
100
AcDbScale
 70
     0
300
1:20
140
1.0
141
20.0
290
     0
  0
SCALE
  5
1C5
102
{ACAD_REACTORS
330
10C
102
}
330
10C
100
AcDbScale
 70
     0
300
1:30
140
1.0
141
30.0
290
     0
  0
SCALE
  5
1C6
102
{ACAD_REACTORS
330
10C
102
}
330
10C
100
AcDbScale
 70
     0
300
1:40
140
1.0
141
40.0
290
     0
  0
SCALE
  5
1C7
102
{ACAD_REACTORS
330
10C
102
}
330
10C
100
AcDbScale
 70
     0
300
1:50
140
1.0
141
50.0
290
     0
  0
SCALE
  5
1C8
102
{ACAD_REACTORS
330
10C
102
}
330
10C
100
AcDbScale
 70
     0
300
1:100
140
1.0
141
100.0
290
     0
  0
SCALE
  5
1C9
102
{ACAD_REACTORS
330
10C
102
}
330
10C
100
AcDbScale
 70
     0
300
2:1
140
2.0
141
1.0
290
     0
  0
SCALE
  5
1CA
102
{ACAD_REACTORS
330
10C
102
}
330
10C
100
AcDbScale
 70
     0
300
4:1
140
4.0
141
1.0
290
     0
  0
SCALE
  5
1CB
102
{ACAD_REACTORS
330
10C
102
}
330
10C
100
AcDbScale
 70
     0
300
8:1
140
8.0
141
1.0
290
     0
  0
SCALE
  5
1CC
102
{ACAD_REACTORS
330
10C
102
}
330
10C
100
AcDbScale
 70
     0
300
10:1
140
10.0
141
1.0
290
     0
  0
SCALE
  5
1CD
102
{ACAD_REACTORS
330
10C
102
}
330
10C
100
AcDbScale
 70
     0
300
100:1
140
100.0
141
1.0
290
     0
  0
TABLESTYLE
  5
7F
102
{ACAD_REACTORS
330
7E
102
}
102
{ACAD_XDICTIONARY
360
4F8
102
}
330
7E
100
AcDbTableStyle
  3
Standard
 70
     0
 71
     0
 40
1.5
 41
1.5
280
     0
281
     0
  7
Standard
140
4.5
170
     2
 62
     0
 63
   257
283
     0
 90
      512
 91
        0
  1

274
    -2
284
     1
 64
     0
275
    -2
285
     1
 65
     0
276
    -2
286
     1
 66
     0
277
    -2
287
     1
 67
     0
278
    -2
288
     1
 68
     0
279
    -2
289
     1
 69
     0
  7
Standard
140
6.0
170
     5
 62
     0
 63
   257
283
     0
 90
      512
 91
        0
  1

274
    -2
284
     1
 64
     0
275
    -2
285
     1
 65
     0
276
    -2
286
     1
 66
     0
277
    -2
287
     1
 67
     0
278
    -2
288
     1
 68
     0
279
    -2
289
     1
 69
     0
  7
Standard
140
4.5
170
     5
 62
     0
 63
   257
283
     0
 90
      512
 91
        0
  1

274
    -2
284
     1
 64
     0
275
    -2
285
     1
 65
     0
276
    -2
286
     1
 66
     0
277
    -2
287
     1
 67
     0
278
    -2
288
     1
 68
     0
279
    -2
289
     1
 69
     0
  0
VISUALSTYLE
  5
F5
102
{ACAD_REACTORS
330
EF
102
}
330
EF
100
AcDbVisualStyle
  2
2dWireframe
 70
     4
177
     3
291
     0
 70
    58
 90
        0
176
     1
 90
        2
176
     1
 90
        1
176
     1
 90
        0
176
     1
 40
-0.6
176
     1
 40
-30.0
176
     1
 62
     7
420
 16777215
176
     1
 90
        1
176
     1
 90
        4
176
     1
 62
     7
176
     1
 62
   257
176
     1
 90
        1
176
     1
 90
        1
176
     1
 40
1.0
176
     1
 90
        0
176
     1
 62
   257
176
     1
 40
1.0
176
     1
 90
        1
176
     1
 90
        6
176
     1
 90
        2
176
     1
 62
     7
176
     1
 90
        5
176
     1
 90
        0
176
     1
 90
        0
176
     1
290
     0
176
     1
 90
        1
176
     1
 40
0.0
176
     1
 90
        0
176
     1
290
     1
176
     1
290
     1
176
     1
290
     0
176
     1
290
     0
176
     1
290
     0
176
     1
290
     0
176
     1
290
     0
176
     1
290
     0
176
     1
290
     0
176
     1
 90
       50
176
     1
 40
0.0
176
     1
 40
1.0
176
     1
 90
        0
176
     1
 62
    18
420
        0
176
     1
 90
       50
176
     1
 90
        3
176
     1
 62
     5
420
      255
176
     1
290
     0
176
     1
 90
       50
176
     1
 90
       50
176
     1
 90
       50
176
     1
290
     0
176
     1
 90
       50
176
     1
 62
   256
176
     0
 40
1.0
176
     0
 90
        2
176
     1
  1
strokes_ogs.tif
176
     1
290
     0
176
     1
 40
1.0
176
     1
 40
1.0
176
     1
  0
VISUALSTYLE
  5
F7
102
{ACAD_REACTORS
330
EF
102
}
330
EF
100
AcDbVisualStyle
  2
3D Hidden
 70
     6
177
     3
291
     0
 70
    58
 90
        1
176
     1
 90
        2
176
     1
 90
        2
176
     1
 90
        0
176
     1
 40
-0.6
176
     1
 40
-30.0
176
     1
 62
     7
420
 16777215
176
     1
 90
        2
176
     1
 90
        2
176
     1
 62
     7
176
     1
 62
   257
176
     1
 90
        2
176
     1
 90
        1
176
     1
 40
40.0
176
     1
 90
        0
176
     1
 62
   257
176
     1
 40
1.0
176
     1
 90
        1
176
     1
 90
        6
176
     1
 90
        2
176
     1
 62
     7
176
     1
 90
        3
176
     1
 90
        0
176
     1
 90
        0
176
     1
290
     0
176
     1
 90
        1
176
     1
 40
0.0
176
     1
 90
        0
176
     1
290
     0
176
     1
290
     1
176
     1
290
     1
176
     1
290
     0
176
     1
290
     0
176
     1
290
     0
176
     1
290
     0
176
     1
290
     0
176
     1
290
     0
176
     1
 90
       50
176
     1
 40
0.0
176
     1
 40
1.0
176
     1
 90
        0
176
     1
 62
    18
420
        0
176
     1
 90
       50
176
     1
 90
        3
176
     1
 62
     5
420
      255
176
     1
290
     0
176
     1
 90
       50
176
     1
 90
       50
176
     1
 90
       50
176
     1
290
     0
176
     1
 90
       50
176
     1
 62
   256
176
     0
 40
1.0
176
     0
 90
        2
176
     1
  1
strokes_ogs.tif
176
     1
290
     0
176
     1
 40
1.0
176
     1
 40
1.0
176
     1
  0
VISUALSTYLE
  5
F6
102
{ACAD_REACTORS
330
EF
102
}
330
EF
100
AcDbVisualStyle
  2
3dWireframe
 70
     5
177
     3
291
     0
 70
    58
 90
        0
176
     1
 90
        2
176
     1
 90
        1
176
     1
 90
        0
176
     1
 40
-0.6
176
     1
 40
-30.0
176
     1
 62
     7
420
 16777215
176
     1
 90
        1
176
     1
 90
        4
176
     1
 62
     7
176
     1
 62
   257
176
     1
 90
        1
176
     1
 90
        1
176
     1
 40
1.0
176
     1
 90
        0
176
     1
 62
   257
176
     1
 40
1.0
176
     1
 90
        1
176
     1
 90
        6
176
     1
 90
        2
176
     1
 62
     7
176
     1
 90
        5
176
     1
 90
        0
176
     1
 90
        0
176
     1
290
     0
176
     1
 90
        1
176
     1
 40
0.0
176
     1
 90
        0
176
     1
290
     0
176
     1
290
     1
176
     1
290
     1
176
     1
290
     0
176
     1
290
     0
176
     1
290
     0
176
     1
290
     0
176
     1
290
     0
176
     1
290
     0
176
     1
 90
       50
176
     1
 40
0.0
176
     1
 40
1.0
176
     1
 90
        0
176
     1
 62
    18
420
        0
176
     1
 90
       50
176
     1
 90
        3
176
     1
 62
     5
420
      255
176
     1
290
     0
176
     1
 90
       50
176
     1
 90
       50
176
     1
 90
       50
176
     1
290
     0
176
     1
 90
       50
176
     1
 62
   256
176
     0
 40
1.0
176
     0
 90
        2
176
     1
  1
strokes_ogs.tif
176
     1
290
     0
176
     1
 40
1.0
176
     1
 40
1.0
176
     1
  0
VISUALSTYLE
  5
F4
102
{ACAD_REACTORS
330
EF
102
}
330
EF
100
AcDbVisualStyle
  2
Basic
 70
     7
177
     3
291
     1
 70
    58
 90
        1
176
     1
 90
        0
176
     1
 90
        1
176
     1
 90
        0
176
     1
 40
-0.6
176
     1
 40
-30.0
176
     1
 62
     7
420
 16777215
176
     1
 90
        0
176
     1
 90
        4
176
     1
 62
     7
176
     1
 62
   257
176
     1
 90
        1
176
     1
 90
        1
176
     1
 40
1.0
176
     1
 90
        8
176
     1
 62
     7
176
     1
 40
1.0
176
     1
 90
        1
176
     1
 90
        6
176
     1
 90
        2
176
     1
 62
     7
176
     1
 90
        5
176
     1
 90
        0
176
     1
 90
        0
176
     1
290
     0
176
     1
 90
        1
176
     1
 40
0.0
176
     1
 90
        0
176
     1
290
     0
176
     1
290
     1
176
     1
290
     1
176
     1
290
     0
176
     1
290
     0
176
     1
290
     0
176
     1
290
     0
176
     1
290
     0
176
     1
290
     0
176
     1
 90
       50
176
     1
 40
0.0
176
     1
 40
1.0
176
     1
 90
        0
176
     1
 62
    18
420
        0
176
     1
 90
       50
176
     1
 90
        3
176
     1
 62
     5
420
      255
176
     1
290
     0
176
     1
 90
       50
176
     1
 90
       50
176
     1
 90
       50
176
     1
290
     0
176
     1
 90
       50
176
     1
 62
   256
176
     0
 40
1.0
176
     0
 90
        2
176
     1
  1
strokes_ogs.tif
176
     1
290
     0
176
     1
 40
1.0
176
     1
 40
1.0
176
     1
  0
VISUALSTYLE
  5
FB
102
{ACAD_REACTORS
330
EF
102
}
330
EF
100
AcDbVisualStyle
  2
Brighten
 70
    12
177
     3
291
     1
 70
    58
 90
        2
176
     1
 90
        2
176
     1
 90
        1
176
     1
 90
        0
176
     1
 40
-0.6
176
     1
 40
-30.0
176
     1
 62
     7
420
 16777215
176
     1
 90
        1
176
     1
 90
        4
176
     1
 62
     7
176
     1
 62
   257
176
     1
 90
        1
176
     1
 90
        1
176
     1
 40
1.0
176
     1
 90
        8
176
     1
 62
     7
176
     1
 40
1.0
176
     1
 90
        1
176
     1
 90
        6
176
     1
 90
        2
176
     1
 62
     7
176
     1
 90
        5
176
     1
 90
        0
176
     1
 90
        0
176
     1
290
     0
176
     1
 90
        1
176
     1
 40
50.0
176
     1
 90
        0
176
     1
290
     0
176
     1
290
     1
176
     1
290
     1
176
     1
290
     0
176
     1
290
     0
176
     1
290
     0
176
     1
290
     0
176
     1
290
     0
176
     1
290
     0
176
     1
 90
       50
176
     1
 40
0.0
176
     1
 40
1.0
176
     1
 90
        0
176
     1
 62
    18
420
        0
176
     1
 90
       50
176
     1
 90
        3
176
     1
 62
     5
420
      255
176
     1
290
     0
176
     1
 90
       50
176
     1
 90
       50
176
     1
 90
       50
176
     1
290
     0
176
     1
 90
       50
176
     1
 62
   256
176
     0
 40
1.0
176
     0
 90
        2
176
     1
  1
strokes_ogs.tif
176
     1
290
     0
176
     1
 40
1.0
176
     1
 40
1.0
176
     1
  0
VISUALSTYLE
  5
FF
102
{ACAD_REACTORS
330
EF
102
}
330
EF
100
AcDbVisualStyle
  2
ColorChange
 70
    16
177
     3
291
     1
 70
    58
 90
        2
176
     1
 90
        2
176
     1
 90
        3
176
     1
 90
        0
176
     1
 40
-0.6
176
     1
 40
-30.0
176
     1
 62
     8
420
  8421504
176
     1
 90
        1
176
     1
 90
        4
176
     1
 62
     7
176
     1
 62
   257
176
     1
 90
        1
176
     1
 90
        1
176
     1
 40
1.0
176
     1
 90
        8
176
     1
 62
     8
420
  8421504
176
     1
 40
1.0
176
     1
 90
        1
176
     1
 90
        6
176
     1
 90
        2
176
     1
 62
     7
176
     1
 90
        5
176
     1
 90
        0
176
     1
 90
        0
176
     1
290
     0
176
     1
 90
        1
176
     1
 40
0.0
176
     1
 90
        0
176
     1
290
     0
176
     1
290
     1
176
     1
290
     1
176
     1
290
     0
176
     1
290
     0
176
     1
290
     0
176
     1
290
     0
176
     1
290
     0
176
     1
290
     0
176
     1
 90
       50
176
     1
 40
0.0
176
     1
 40
1.0
176
     1
 90
        0
176
     1
 62
    18
420
        0
176
     1
 90
       50
176
     1
 90
        3
176
     1
 62
     5
420
      255
176
     1
290
     0
176
     1
 90
       50
176
     1
 90
       50
176
     1
 90
       50
176
     1
290
     0
176
     1
 90
       50
176
     1
 62
   256
176
     0
 40
1.0
176
     0
 90
        2
176
     1
  1
strokes_ogs.tif
176
     1
290
     0
176
     1
 40
1.0
176
     1
 40
1.0
176
     1
  0
VISUALSTYLE
  5
F8
102
{ACAD_REACTORS
330
EF
102
}
330
EF
100
AcDbVisualStyle
  2
Conceptual
 70
     9
177
     3
291
     0
 70
    58
 90
        3
176
     1
 90
        2
176
     1
 90
        1
176
     1
 90
        0
176
     1
 40
-0.6
176
     1
 40
-30.0
176
     1
 62
     7
420
 16777215
176
     1
 90
        2
176
     1
 90
        2
176
     1
 62
     7
176
     1
 62
   257
176
     1
 90
        1
176
     1
 90
        1
176
     1
 40
40.0
176
     1
 90
        8
176
     1
 62
     7
176
     1
 40
1.0
176
     1
 90
        1
176
     1
 90
        6
176
     1
 90
        2
176
     1
 62
     7
176
     1
 90
        3
176
     1
 90
        0
176
     1
 90
        0
176
     1
290
     0
176
     1
 90
        1
176
     1
 40
0.0
176
     1
 90
        0
176
     1
290
     0
176
     1
290
     1
176
     1
290
     1
176
     1
290
     0
176
     1
290
     0
176
     1
290
     0
176
     1
290
     0
176
     1
290
     0
176
     1
290
     0
176
     1
 90
       50
176
     1
 40
0.0
176
     1
 40
1.0
176
     1
 90
        0
176
     1
 62
    18
420
        0
176
     1
 90
       50
176
     1
 90
        3
176
     1
 62
     5
420
      255
176
     1
290
     0
176
     1
 90
       50
176
     1
 90
       50
176
     1
 90
       50
176
     1
290
     0
176
     1
 90
       50
176
     1
 62
   256
176
     0
 40
1.0
176
     0
 90
        2
176
     1
  1
strokes_ogs.tif
176
     1
290
     0
176
     1
 40
1.0
176
     1
 40
1.0
176
     1
  0
VISUALSTYLE
  5
FA
102
{ACAD_REACTORS
330
EF
102
}
330
EF
100
AcDbVisualStyle
  2
Dim
 70
    11
177
     3
291
     1
 70
    58
 90
        2
176
     1
 90
        2
176
     1
 90
        1
176
     1
 90
        0
176
     1
 40
-0.6
176
     1
 40
-30.0
176
     1
 62
     7
420
 16777215
176
     1
 90
        1
176
     1
 90
        4
176
     1
 62
     7
176
     1
 62
   257
176
     1
 90
        1
176
     1
 90
        1
176
     1
 40
1.0
176
     1
 90
        8
176
     1
 62
     7
176
     1
 40
1.0
176
     1
 90
        1
176
     1
 90
        6
176
     1
 90
        2
176
     1
 62
     7
176
     1
 90
        5
176
     1
 90
        0
176
     1
 90
        0
176
     1
290
     0
176
     1
 90
        1
176
     1
 40
-50.0
176
     1
 90
        0
176
     1
290
     0
176
     1
290
     1
176
     1
290
     1
176
     1
290
     0
176
     1
290
     0
176
     1
290
     0
176
     1
290
     0
176
     1
290
     0
176
     1
290
     0
176
     1
 90
       50
176
     1
 40
0.0
176
     1
 40
1.0
176
     1
 90
        0
176
     1
 62
    18
420
        0
176
     1
 90
       50
176
     1
 90
        3
176
     1
 62
     5
420
      255
176
     1
290
     0
176
     1
 90
       50
176
     1
 90
       50
176
     1
 90
       50
176
     1
290
     0
176
     1
 90
       50
176
     1
 62
   256
176
     0
 40
1.0
176
     0
 90
        2
176
     1
  1
strokes_ogs.tif
176
     1
290
     0
176
     1
 40
1.0
176
     1
 40
1.0
176
     1
  0
VISUALSTYLE
  5
35E
102
{ACAD_REACTORS
330
EF
102
}
330
EF
100
AcDbVisualStyle
  2
EdgeColorOff
 70
    22
177
     3
291
     1
 70
    58
 90
        2
176
     0
 90
        2
176
     0
 90
        0
176
     0
 90
        0
176
     0
 40
0.6
176
     0
 40
30.0
176
     0
 62
     7
420
 16777215
176
     0
 90
        1
176
     0
 90
        4
176
     0
 62
     7
176
     0
 62
   257
176
     0
 90
        1
176
     0
 90
        1
176
     0
 40
1.0
176
     0
 90
        8
176
     2
 62
     7
176
     0
 40
1.0
176
     0
 90
        1
176
     0
 90
        6
176
     0
 90
        2
176
     0
 62
     7
176
     0
 90
        5
176
     0
 90
        0
176
     0
 90
        0
176
     0
290
     0
176
     0
 90
        1
176
     0
 40
0.0
176
     0
 90
        0
176
     0
290
     0
176
     0
290
     1
176
     0
290
     1
176
     0
290
     0
176
     0
290
     0
176
     0
290
     0
176
     0
290
     0
176
     0
290
     0
176
     0
290
     0
176
     0
 90
       50
176
     0
 40
0.0
176
     0
 40
1.0
176
     0
 90
        0
176
     0
 62
    18
420
        0
176
     0
 90
       50
176
     0
 90
        3
176
     0
 62
     5
420
      255
176
     0
290
     0
176
     0
 90
       50
176
     0
 90
       50
176
     0
 90
       50
176
     0
290
     0
176
     0
 90
       50
176
     0
 62
   256
176
     0
 40
1.0
176
     0
 90
        2
176
     0
  1
strokes_ogs.tif
176
     0
290
     0
176
     0
 40
1.0
176
     0
 40
1.0
176
     0
  0
VISUALSTYLE
  5
FE
102
{ACAD_REACTORS
330
EF
102
}
330
EF
100
AcDbVisualStyle
  2
Facepattern
 70
    15
177
     3
291
     1
 70
    58
 90
        2
176
     1
 90
        2
176
     1
 90
        1
176
     1
 90
        0
176
     1
 40
-0.6
176
     1
 40
-30.0
176
     1
 62
     7
420
 16777215
176
     1
 90
        1
176
     1
 90
        4
176
     1
 62
     7
176
     1
 62
   257
176
     1
 90
        1
176
     1
 90
        1
176
     1
 40
1.0
176
     1
 90
        8
176
     1
 62
     7
176
     1
 40
1.0
176
     1
 90
        1
176
     1
 90
        6
176
     1
 90
        2
176
     1
 62
     7
176
     1
 90
        5
176
     1
 90
        0
176
     1
 90
        0
176
     1
290
     0
176
     1
 90
        1
176
     1
 40
0.0
176
     1
 90
        0
176
     1
290
     0
176
     1
290
     1
176
     1
290
     1
176
     1
290
     0
176
     1
290
     0
176
     1
290
     0
176
     1
290
     0
176
     1
290
     0
176
     1
290
     0
176
     1
 90
       50
176
     1
 40
0.0
176
     1
 40
1.0
176
     1
 90
        0
176
     1
 62
    18
420
        0
176
     1
 90
       50
176
     1
 90
        3
176
     1
 62
     5
420
      255
176
     1
290
     0
176
     1
 90
       50
176
     1
 90
       50
176
     1
 90
       50
176
     1
290
     0
176
     1
 90
       50
176
     1
 62
   256
176
     0
 40
1.0
176
     0
 90
        2
176
     1
  1
strokes_ogs.tif
176
     1
290
     0
176
     1
 40
1.0
176
     1
 40
1.0
176
     1
  0
VISUALSTYLE
  5
F0
102
{ACAD_REACTORS
330
EF
102
}
330
EF
100
AcDbVisualStyle
  2
Flat
 70
     0
177
     3
291
     1
 70
    58
 90
        2
176
     1
 90
        1
176
     1
 90
        1
176
     1
 90
        2
176
     1
 40
-0.6
176
     1
 40
30.0
176
     1
 62
     7
420
 16777215
176
     1
 90
        0
176
     1
 90
        4
176
     1
 62
     7
176
     1
 62
   257
176
     1
 90
        1
176
     1
 90
        1
176
     1
 40
1.0
176
     1
 90
        8
176
     1
 62
     7
176
     1
 40
1.0
176
     1
 90
        1
176
     1
 90
        6
176
     1
 90
        2
176
     1
 62
     7
176
     1
 90
        5
176
     1
 90
        0
176
     1
 90
        0
176
     1
290
     0
176
     1
 90
        1
176
     1
 40
0.0
176
     1
 90
        0
176
     1
290
     0
176
     1
290
     1
176
     1
290
     1
176
     1
290
     0
176
     1
290
     0
176
     1
290
     0
176
     1
290
     0
176
     1
290
     0
176
     1
290
     0
176
     1
 90
       50
176
     1
 40
0.0
176
     1
 40
1.0
176
     1
 90
        0
176
     1
 62
    18
420
        0
176
     1
 90
       50
176
     1
 90
        3
176
     1
 62
     5
420
      255
176
     1
290
     0
176
     1
 90
       50
176
     1
 90
       50
176
     1
 90
       50
176
     1
290
     0
176
     1
 90
       50
176
     1
 62
   256
176
     0
 40
1.0
176
     0
 90
        2
176
     1
  1
strokes_ogs.tif
176
     1
290
     0
176
     1
 40
1.0
176
     1
 40
1.0
176
     1
  0
VISUALSTYLE
  5
F1
102
{ACAD_REACTORS
330
EF
102
}
330
EF
100
AcDbVisualStyle
  2
FlatWithEdges
 70
     1
177
     3
291
     1
 70
    58
 90
        2
176
     1
 90
        1
176
     1
 90
        1
176
     1
 90
        2
176
     1
 40
-0.6
176
     1
 40
30.0
176
     1
 62
     7
420
 16777215
176
     1
 90
        1
176
     1
 90
        4
176
     1
 62
     7
176
     1
 62
   257
176
     1
 90
        1
176
     1
 90
        1
176
     1
 40
1.0
176
     1
 90
        0
176
     1
 62
   257
176
     1
 40
1.0
176
     1
 90
        1
176
     1
 90
        6
176
     1
 90
        2
176
     1
 62
     7
176
     1
 90
        5
176
     1
 90
        0
176
     1
 90
        0
176
     1
290
     0
176
     1
 90
        1
176
     1
 40
0.0
176
     1
 90
        0
176
     1
290
     0
176
     1
290
     1
176
     1
290
     1
176
     1
290
     0
176
     1
290
     0
176
     1
290
     0
176
     1
290
     0
176
     1
290
     0
176
     1
290
     0
176
     1
 90
       50
176
     1
 40
0.0
176
     1
 40
1.0
176
     1
 90
        0
176
     1
 62
    18
420
        0
176
     1
 90
       50
176
     1
 90
        3
176
     1
 62
     5
420
      255
176
     1
290
     0
176
     1
 90
       50
176
     1
 90
       50
176
     1
 90
       50
176
     1
290
     0
176
     1
 90
       50
176
     1
 62
   256
176
     0
 40
1.0
176
     0
 90
        2
176
     1
  1
strokes_ogs.tif
176
     1
290
     0
176
     1
 40
1.0
176
     1
 40
1.0
176
     1
  0
VISUALSTYLE
  5
F2
102
{ACAD_REACTORS
330
EF
102
}
330
EF
100
AcDbVisualStyle
  2
Gouraud
 70
     2
177
     3
291
     1
 70
    58
 90
        2
176
     1
 90
        2
176
     1
 90
        1
176
     1
 90
        2
176
     1
 40
-0.6
176
     1
 40
30.0
176
     1
 62
     7
420
 16777215
176
     1
 90
        0
176
     1
 90
        4
176
     1
 62
     7
176
     1
 62
   257
176
     1
 90
        1
176
     1
 90
        1
176
     1
 40
1.0
176
     1
 90
        0
176
     1
 62
     7
176
     1
 40
1.0
176
     1
 90
        1
176
     1
 90
        6
176
     1
 90
        2
176
     1
 62
     7
176
     1
 90
        5
176
     1
 90
        0
176
     1
 90
        0
176
     1
290
     0
176
     1
 90
        1
176
     1
 40
0.0
176
     1
 90
        0
176
     1
290
     0
176
     1
290
     1
176
     1
290
     1
176
     1
290
     0
176
     1
290
     0
176
     1
290
     0
176
     1
290
     0
176
     1
290
     0
176
     1
290
     0
176
     1
 90
       50
176
     1
 40
0.0
176
     1
 40
1.0
176
     1
 90
        0
176
     1
 62
    18
420
        0
176
     1
 90
       50
176
     1
 90
        3
176
     1
 62
     5
420
      255
176
     1
290
     0
176
     1
 90
       50
176
     1
 90
       50
176
     1
 90
       50
176
     1
290
     0
176
     1
 90
       50
176
     1
 62
   256
176
     0
 40
1.0
176
     0
 90
        2
176
     1
  1
strokes_ogs.tif
176
     1
290
     0
176
     1
 40
1.0
176
     1
 40
1.0
176
     1
  0
VISUALSTYLE
  5
F3
102
{ACAD_REACTORS
330
EF
102
}
330
EF
100
AcDbVisualStyle
  2
GouraudWithEdges
 70
     3
177
     3
291
     1
 70
    58
 90
        2
176
     1
 90
        2
176
     1
 90
        1
176
     1
 90
        2
176
     1
 40
-0.6
176
     1
 40
30.0
176
     1
 62
     7
420
 16777215
176
     1
 90
        1
176
     1
 90
        4
176
     1
 62
     7
176
     1
 62
   257
176
     1
 90
        1
176
     1
 90
        1
176
     1
 40
1.0
176
     1
 90
        0
176
     1
 62
   257
176
     1
 40
1.0
176
     1
 90
        1
176
     1
 90
        6
176
     1
 90
        2
176
     1
 62
     7
176
     1
 90
        5
176
     1
 90
        0
176
     1
 90
        0
176
     1
290
     0
176
     1
 90
        1
176
     1
 40
0.0
176
     1
 90
        0
176
     1
290
     0
176
     1
290
     1
176
     1
290
     1
176
     1
290
     0
176
     1
290
     0
176
     1
290
     0
176
     1
290
     0
176
     1
290
     0
176
     1
290
     0
176
     1
 90
       50
176
     1
 40
0.0
176
     1
 40
1.0
176
     1
 90
        0
176
     1
 62
    18
420
        0
176
     1
 90
       50
176
     1
 90
        3
176
     1
 62
     5
420
      255
176
     1
290
     0
176
     1
 90
       50
176
     1
 90
       50
176
     1
 90
       50
176
     1
290
     0
176
     1
 90
       50
176
     1
 62
   256
176
     0
 40
1.0
176
     0
 90
        2
176
     1
  1
strokes_ogs.tif
176
     1
290
     0
176
     1
 40
1.0
176
     1
 40
1.0
176
     1
  0
VISUALSTYLE
  5
35B
102
{ACAD_REACTORS
330
EF
102
}
330
EF
100
AcDbVisualStyle
  2
Hidden
 70
     6
177
     3
291
     0
 70
    58
 90
        1
176
     1
 90
        2
176
     1
 90
        2
176
     1
 90
        0
176
     1
 40
0.6
176
     1
 40
30.0
176
     1
 62
     7
420
 16777215
176
     1
 90
        2
176
     1
 90
        2
176
     1
 62
     7
176
     1
 62
   257
176
     1
 90
        2
176
     1
 90
        1
176
     1
 40
40.0
176
     1
 90
        0
176
     1
 62
   257
176
     1
 40
1.0
176
     1
 90
        1
176
     1
 90
        6
176
     1
 90
        2
176
     1
 62
     7
176
     1
 90
        3
176
     1
 90
        0
176
     1
 90
        0
176
     1
290
     0
176
     1
 90
        1
176
     1
 40
0.0
176
     1
 90
        0
176
     1
290
     0
176
     1
290
     1
176
     1
290
     1
176
     1
290
     0
176
     1
290
     0
176
     1
290
     0
176
     1
290
     0
176
     1
290
     0
176
     1
290
     0
176
     1
 90
       50
176
     1
 40
0.0
176
     1
 40
1.0
176
     1
 90
        0
176
     1
 62
    18
420
        0
176
     1
 90
       50
176
     1
 90
        3
176
     1
 62
     5
420
      255
176
     1
290
     0
176
     1
 90
       50
176
     1
 90
       50
176
     1
 90
       50
176
     1
290
     0
176
     1
 90
       50
176
     1
 62
   256
176
     0
 40
1.0
176
     0
 90
        2
176
     1
  1
strokes_ogs.tif
176
     1
290
     0
176
     1
 40
1.0
176
     1
 40
1.0
176
     1
  0
VISUALSTYLE
  5
35C
102
{ACAD_REACTORS
330
EF
102
}
330
EF
100
AcDbVisualStyle
  2
JitterOff
 70
    20
177
     3
291
     1
 70
    58
 90
        2
176
     0
 90
        2
176
     0
 90
        0
176
     0
 90
        0
176
     0
 40
0.6
176
     0
 40
30.0
176
     0
 62
     7
420
 16777215
176
     0
 90
        1
176
     0
 90
        4
176
     0
 62
     7
176
     0
 62
   257
176
     0
 90
        1
176
     0
 90
        1
176
     0
 40
1.0
176
     0
 90
       10
176
     2
 62
     7
176
     0
 40
1.0
176
     0
 90
        1
176
     0
 90
        6
176
     0
 90
        2
176
     0
 62
     7
176
     0
 90
        5
176
     0
 90
        0
176
     0
 90
        0
176
     0
290
     0
176
     0
 90
        1
176
     0
 40
0.0
176
     0
 90
        0
176
     0
290
     0
176
     0
290
     1
176
     0
290
     1
176
     0
290
     0
176
     0
290
     0
176
     0
290
     0
176
     0
290
     0
176
     0
290
     0
176
     0
290
     0
176
     0
 90
       50
176
     0
 40
0.0
176
     0
 40
1.0
176
     0
 90
        0
176
     0
 62
    18
420
        0
176
     0
 90
       50
176
     0
 90
        3
176
     0
 62
     5
420
      255
176
     0
290
     0
176
     0
 90
       50
176
     0
 90
       50
176
     0
 90
       50
176
     0
290
     0
176
     0
 90
       50
176
     0
 62
   256
176
     0
 40
1.0
176
     0
 90
        2
176
     0
  1
strokes_ogs.tif
176
     0
290
     0
176
     0
 40
1.0
176
     0
 40
1.0
176
     0
  0
VISUALSTYLE
  5
FD
102
{ACAD_REACTORS
330
EF
102
}
330
EF
100
AcDbVisualStyle
  2
Linepattern
 70
    14
177
     3
291
     1
 70
    58
 90
        2
176
     1
 90
        2
176
     1
 90
        1
176
     1
 90
        0
176
     1
 40
-0.6
176
     1
 40
-30.0
176
     1
 62
     7
420
 16777215
176
     1
 90
        1
176
     1
 90
        4
176
     1
 62
     7
176
     1
 62
   257
176
     1
 90
        7
176
     1
 90
        7
176
     1
 40
1.0
176
     1
 90
        8
176
     1
 62
     7
176
     1
 40
1.0
176
     1
 90
        1
176
     1
 90
        6
176
     1
 90
        2
176
     1
 62
     7
176
     1
 90
        5
176
     1
 90
        0
176
     1
 90
        0
176
     1
290
     0
176
     1
 90
        1
176
     1
 40
0.0
176
     1
 90
        0
176
     1
290
     0
176
     1
290
     1
176
     1
290
     1
176
     1
290
     0
176
     1
290
     0
176
     1
290
     0
176
     1
290
     0
176
     1
290
     0
176
     1
290
     0
176
     1
 90
       50
176
     1
 40
0.0
176
     1
 40
1.0
176
     1
 90
        0
176
     1
 62
    18
420
        0
176
     1
 90
       50
176
     1
 90
        3
176
     1
 62
     5
420
      255
176
     1
290
     0
176
     1
 90
       50
176
     1
 90
       50
176
     1
 90
       50
176
     1
290
     0
176
     1
 90
       50
176
     1
 62
   256
176
     0
 40
1.0
176
     0
 90
        2
176
     1
  1
strokes_ogs.tif
176
     1
290
     0
176
     1
 40
1.0
176
     1
 40
1.0
176
     1
  0
VISUALSTYLE
  5
35D
102
{ACAD_REACTORS
330
EF
102
}
330
EF
100
AcDbVisualStyle
  2
OverhangOff
 70
    21
177
     3
291
     1
 70
    58
 90
        2
176
     0
 90
        2
176
     0
 90
        0
176
     0
 90
        0
176
     0
 40
0.6
176
     0
 40
30.0
176
     0
 62
     7
420
 16777215
176
     0
 90
        1
176
     0
 90
        4
176
     0
 62
     7
176
     0
 62
   257
176
     0
 90
        1
176
     0
 90
        1
176
     0
 40
1.0
176
     0
 90
        9
176
     2
 62
     7
176
     0
 40
1.0
176
     0
 90
        1
176
     0
 90
        6
176
     0
 90
        2
176
     0
 62
     7
176
     0
 90
        5
176
     0
 90
        0
176
     0
 90
        0
176
     0
290
     0
176
     0
 90
        1
176
     0
 40
0.0
176
     0
 90
        0
176
     0
290
     0
176
     0
290
     1
176
     0
290
     1
176
     0
290
     0
176
     0
290
     0
176
     0
290
     0
176
     0
290
     0
176
     0
290
     0
176
     0
290
     0
176
     0
 90
       50
176
     0
 40
0.0
176
     0
 40
1.0
176
     0
 90
        0
176
     0
 62
    18
420
        0
176
     0
 90
       50
176
     0
 90
        3
176
     0
 62
     5
420
      255
176
     0
290
     0
176
     0
 90
       50
176
     0
 90
       50
176
     0
 90
       50
176
     0
290
     0
176
     0
 90
       50
176
     0
 62
   256
176
     0
 40
1.0
176
     0
 90
        2
176
     0
  1
strokes_ogs.tif
176
     0
290
     0
176
     0
 40
1.0
176
     0
 40
1.0
176
     0
  0
VISUALSTYLE
  5
F9
102
{ACAD_REACTORS
330
EF
102
}
330
EF
100
AcDbVisualStyle
  2
Realistic
 70
     8
177
     3
291
     0
 70
    58
 90
        2
176
     1
 90
        2
176
     1
 90
        1
176
     1
 90
        0
176
     1
 40
-0.6
176
     1
 40
-30.0
176
     1
 62
     7
420
 16777215
176
     1
 90
        1
176
     1
 90
        0
176
     1
 62
     7
176
     1
 62
   257
176
     1
 90
        1
176
     1
 90
        1
176
     1
 40
1.0
176
     1
 90
        8
176
     1
 62
     8
420
  7895160
176
     1
 40
1.0
176
     1
 90
        1
176
     1
 90
        6
176
     1
 90
        2
176
     1
 62
     7
176
     1
 90
        5
176
     1
 90
        0
176
     1
 90
        0
176
     1
290
     0
176
     1
 90
       13
176
     1
 40
0.0
176
     1
 90
        0
176
     1
290
     0
176
     1
290
     1
176
     1
290
     1
176
     1
290
     0
176
     1
290
     0
176
     1
290
     0
176
     1
290
     0
176
     1
290
     0
176
     1
290
     0
176
     1
 90
       50
176
     1
 40
0.0
176
     1
 40
1.0
176
     1
 90
        0
176
     1
 62
    18
420
        0
176
     1
 90
       50
176
     1
 90
        3
176
     1
 62
     5
420
      255
176
     1
290
     0
176
     1
 90
       50
176
     1
 90
       50
176
     1
 90
       50
176
     1
290
     0
176
     1
 90
       50
176
     1
 62
   256
176
     0
 40
1.0
176
     0
 90
        2
176
     1
  1
strokes_ogs.tif
176
     1
290
     0
176
     1
 40
1.0
176
     1
 40
1.0
176
     1
  0
VISUALSTYLE
  5
363
102
{ACAD_REACTORS
330
EF
102
}
330
EF
100
AcDbVisualStyle
  2
Shaded
 70
    27
177
     3
291
     0
 70
    58
 90
        2
176
     1
 90
        2
176
     1
 90
        1
176
     1
 90
        2
176
     1
 40
0.6
176
     1
 40
30.0
176
     1
 62
     7
420
 16777215
176
     1
 90
        0
176
     1
 90
        4
176
     1
 62
     7
176
     1
 62
   257
176
     1
 90
        1
176
     1
 90
        1
176
     1
 40
1.0
176
     1
 90
        8
176
     1
 62
   257
176
     1
 40
1.0
176
     1
 90
        1
176
     1
 90
        6
176
     1
 90
        2
176
     1
 62
     8
420
  7895160
176
     1
 90
        3
176
     1
 90
        0
176
     1
 90
        0
176
     1
290
     0
176
     1
 90
        5
176
     1
 40
0.0
176
     1
 90
        0
176
     1
290
     0
176
     1
290
     1
176
     1
290
     1
176
     1
290
     0
176
     1
290
     0
176
     1
290
     0
176
     1
290
     0
176
     1
290
     0
176
     1
290
     0
176
     1
 90
       50
176
     1
 40
0.0
176
     1
 40
1.0
176
     1
 90
        0
176
     1
 62
    18
420
        0
176
     1
 90
       50
176
     1
 90
        3
176
     1
 62
     5
420
      255
176
     1
290
     0
176
     1
 90
       50
176
     1
 90
       50
176
     1
 90
       50
176
     1
290
     0
176
     1
 90
       50
176
     1
 62
   256
176
     0
 40
1.0
176
     0
 90
        2
176
     1
  1
strokes_ogs.tif
176
     1
290
     0
176
     1
 40
1.0
176
     1
 40
1.0
176
     1
  0
VISUALSTYLE
  5
362
102
{ACAD_REACTORS
330
EF
102
}
330
EF
100
AcDbVisualStyle
  2
Shaded with edges
 70
    26
177
     3
291
     0
 70
    58
 90
        2
176
     1
 90
        2
176
     1
 90
        1
176
     1
 90
        2
176
     1
 40
0.6
176
     1
 40
30.0
176
     1
 62
     7
420
 16777215
176
     1
 90
        1
176
     1
 90
       10
176
     1
 62
     7
176
     1
 62
   257
176
     1
 90
        2
176
     1
 90
        1
176
     1
 40
1.0
176
     1
 90
        8
176
     1
 62
   257
176
     1
 40
1.0
176
     1
 90
        1
176
     1
 90
        6
176
     1
 90
        2
176
     1
 62
     7
176
     1
 90
        3
176
     1
 90
        0
176
     1
 90
        0
176
     1
290
     0
176
     1
 90
        5
176
     1
 40
0.0
176
     1
 90
        0
176
     1
290
     0
176
     1
290
     1
176
     1
290
     1
176
     1
290
     0
176
     1
290
     0
176
     1
290
     0
176
     1
290
     0
176
     1
290
     0
176
     1
290
     0
176
     1
 90
       50
176
     1
 40
0.0
176
     1
 40
1.0
176
     1
 90
        0
176
     1
 62
    18
420
        0
176
     1
 90
       50
176
     1
 90
        3
176
     1
 62
     5
420
      255
176
     1
290
     0
176
     1
 90
       50
176
     1
 90
       50
176
     1
 90
       50
176
     1
290
     0
176
     1
 90
       50
176
     1
 62
   256
176
     0
 40
1.0
176
     0
 90
        2
176
     1
  1
strokes_ogs.tif
176
     1
290
     0
176
     1
 40
1.0
176
     1
 40
1.0
176
     1
  0
VISUALSTYLE
  5
35F
102
{ACAD_REACTORS
330
EF
102
}
330
EF
100
AcDbVisualStyle
  2
Shades of Gray
 70
    23
177
     3
291
     0
 70
    58
 90
        2
176
     1
 90
        2
176
     1
 90
        3
176
     1
 90
        0
176
     1
 40
0.6
176
     1
 40
30.0
176
     1
 62
     7
420
 16777215
176
     1
 90
        2
176
     1
 90
        2
176
     1
 62
     7
176
     1
 62
     7
176
     1
 90
        1
176
     1
 90
        1
176
     1
 40
40.0
176
     1
 90
        8
176
     1
 62
     7
176
     1
 40
1.0
176
     1
 90
        1
176
     1
 90
        6
176
     1
 90
        2
176
     1
 62
     7
176
     1
 90
        3
176
     1
 90
        0
176
     1
 90
        0
176
     1
290
     0
176
     1
 90
        1
176
     1
 40
0.0
176
     1
 90
        0
176
     1
290
     0
176
     1
290
     1
176
     1
290
     1
176
     1
290
     0
176
     1
290
     0
176
     1
290
     0
176
     1
290
     0
176
     1
290
     0
176
     1
290
     0
176
     1
 90
       50
176
     1
 40
0.0
176
     1
 40
1.0
176
     1
 90
        0
176
     1
 62
    18
420
        0
176
     1
 90
       50
176
     1
 90
        3
176
     1
 62
     5
420
      255
176
     1
290
     0
176
     1
 90
       50
176
     1
 90
       50
176
     1
 90
       50
176
     1
290
     0
176
     1
 90
       50
176
     1
 62
   256
176
     0
 40
1.0
176
     0
 90
        2
176
     1
  1
strokes_ogs.tif
176
     1
290
     0
176
     1
 40
1.0
176
     1
 40
1.0
176
     1
  0
VISUALSTYLE
  5
360
102
{ACAD_REACTORS
330
EF
102
}
330
EF
100
AcDbVisualStyle
  2
Sketchy
 70
    24
177
     3
291
     0
 70
    58
 90
        1
176
     1
 90
        2
176
     1
 90
        2
176
     1
 90
        0
176
     1
 40
0.6
176
     1
 40
30.0
176
     1
 62
     7
420
 16777215
176
     1
 90
        2
176
     1
 90
        2
176
     1
 62
     7
176
     1
 62
     7
176
     1
 90
        1
176
     1
 90
        1
176
     1
 40
40.0
176
     1
 90
       11
176
     1
 62
     7
176
     1
 40
1.0
176
     1
 90
        1
176
     1
 90
        6
176
     1
 90
        2
176
     1
 62
     7
176
     1
 90
        6
176
     1
 90
        0
176
     1
 90
        0
176
     1
290
     0
176
     1
 90
        1
176
     1
 40
0.0
176
     1
 90
        0
176
     1
290
     0
176
     1
290
     1
176
     1
290
     1
176
     1
290
     0
176
     1
290
     0
176
     1
290
     0
176
     1
290
     0
176
     1
290
     0
176
     1
290
     0
176
     1
 90
       50
176
     1
 40
0.0
176
     1
 40
1.0
176
     1
 90
        0
176
     1
 62
    18
420
        0
176
     1
 90
       50
176
     1
 90
        3
176
     1
 62
     5
420
      255
176
     1
290
     0
176
     1
 90
       50
176
     1
 90
       50
176
     1
 90
       50
176
     1
290
     0
176
     1
 90
       50
176
     1
 62
   256
176
     0
 40
1.0
176
     0
 90
        2
176
     1
  1
strokes_ogs.tif
176
     1
290
     0
176
     1
 40
1.0
176
     1
 40
1.0
176
     1
  0
VISUALSTYLE
  5
FC
102
{ACAD_REACTORS
330
EF
102
}
330
EF
100
AcDbVisualStyle
  2
Thicken
 70
    13
177
     3
291
     1
 70
    58
 90
        2
176
     1
 90
        2
176
     1
 90
        1
176
     1
 90
        0
176
     1
 40
-0.6
176
     1
 40
-30.0
176
     1
 62
     7
420
 16777215
176
     1
 90
        1
176
     1
 90
        4
176
     1
 62
     7
176
     1
 62
   257
176
     1
 90
        1
176
     1
 90
        1
176
     1
 40
1.0
176
     1
 90
       12
176
     1
 62
     7
176
     1
 40
1.0
176
     1
 90
        1
176
     1
 90
        6
176
     1
 90
        2
176
     1
 62
     7
176
     1
 90
        5
176
     1
 90
        0
176
     1
 90
        0
176
     1
290
     0
176
     1
 90
        1
176
     1
 40
0.0
176
     1
 90
        0
176
     1
290
     0
176
     1
290
     1
176
     1
290
     1
176
     1
290
     0
176
     1
290
     0
176
     1
290
     0
176
     1
290
     0
176
     1
290
     0
176
     1
290
     0
176
     1
 90
       50
176
     1
 40
0.0
176
     1
 40
1.0
176
     1
 90
        0
176
     1
 62
    18
420
        0
176
     1
 90
       50
176
     1
 90
        3
176
     1
 62
     5
420
      255
176
     1
290
     0
176
     1
 90
       50
176
     1
 90
       50
176
     1
 90
       50
176
     1
290
     0
176
     1
 90
       50
176
     1
 62
   256
176
     0
 40
1.0
176
     0
 90
        2
176
     1
  1
strokes_ogs.tif
176
     1
290
     0
176
     1
 40
1.0
176
     1
 40
1.0
176
     1
  0
VISUALSTYLE
  5
35A
102
{ACAD_REACTORS
330
EF
102
}
330
EF
100
AcDbVisualStyle
  2
Wireframe
 70
     5
177
     3
291
     0
 70
    58
 90
        0
176
     1
 90
        2
176
     1
 90
        0
176
     1
 90
        0
176
     1
 40
0.6
176
     1
 40
30.0
176
     1
 62
     7
420
 16777215
176
     1
 90
        1
176
     1
 90
        4
176
     1
 62
     7
176
     1
 62
   257
176
     1
 90
        1
176
     1
 90
        1
176
     1
 40
1.0
176
     1
 90
        0
176
     1
 62
   257
176
     1
 40
1.0
176
     1
 90
        1
176
     1
 90
        6
176
     1
 90
        2
176
     1
 62
     7
176
     1
 90
        3
176
     1
 90
        0
176
     1
 90
        0
176
     1
290
     0
176
     1
 90
        1
176
     1
 40
0.0
176
     1
 90
        0
176
     1
290
     0
176
     1
290
     1
176
     1
290
     1
176
     1
290
     0
176
     1
290
     0
176
     1
290
     0
176
     1
290
     0
176
     1
290
     0
176
     1
290
     0
176
     1
 90
       50
176
     1
 40
0.0
176
     1
 40
1.0
176
     1
 90
        0
176
     1
 62
    18
420
        0
176
     1
 90
       50
176
     1
 90
        3
176
     1
 62
     5
420
      255
176
     1
290
     0
176
     1
 90
       50
176
     1
 90
       50
176
     1
 90
       50
176
     1
290
     0
176
     1
 90
       50
176
     1
 62
   256
176
     0
 40
1.0
176
     0
 90
        2
176
     1
  1
strokes_ogs.tif
176
     1
290
     0
176
     1
 40
1.0
176
     1
 40
1.0
176
     1
  0
VISUALSTYLE
  5
361
102
{ACAD_REACTORS
330
EF
102
}
330
EF
100
AcDbVisualStyle
  2
X-Ray
 70
    25
177
     3
291
     0
 70
    58
 90
        2
176
     1
 90
        2
176
     1
 90
        1
176
     1
 90
        1
176
     1
 40
0.5
176
     1
 40
30.0
176
     1
 62
     7
420
 16777215
176
     1
 90
        1
176
     1
 90
        0
176
     1
 62
     7
176
     1
 62
   257
176
     1
 90
        1
176
     1
 90
        1
176
     1
 40
1.0
176
     1
 90
        8
176
     1
 62
     7
176
     1
 40
1.0
176
     1
 90
        1
176
     1
 90
        6
176
     1
 90
        2
176
     1
 62
     7
176
     1
 90
        3
176
     1
 90
        0
176
     1
 90
        0
176
     1
290
     0
176
     1
 90
       13
176
     1
 40
0.0
176
     1
 90
        0
176
     1
290
     0
176
     1
290
     1
176
     1
290
     1
176
     1
290
     0
176
     1
290
     0
176
     1
290
     0
176
     1
290
     0
176
     1
290
     0
176
     1
290
     0
176
     1
 90
       50
176
     1
 40
0.0
176
     1
 40
1.0
176
     1
 90
        0
176
     1
 62
    18
420
        0
176
     1
 90
       50
176
     1
 90
        3
176
     1
 62
     5
420
      255
176
     1
290
     0
176
     1
 90
       50
176
     1
 90
       50
176
     1
 90
       50
176
     1
290
     0
176
     1
 90
       50
176
     1
 62
   256
176
     0
 40
1.0
176
     0
 90
        2
176
     1
  1
strokes_ogs.tif
176
     1
290
     0
176
     1
 40
1.0
176
     1
 40
1.0
176
     1
  0
DICTIONARYVAR
  5
146
102
{ACAD_REACTORS
330
5E
102
}
330
5E
100
DictionaryVariables
280
     0
  1
1:1
  0
DICTIONARYVAR
  5
145
102
{ACAD_REACTORS
330
5E
102
}
330
5E
100
DictionaryVariables
280
     0
  1
Standard
  0
DICTIONARYVAR
  5
84
102
{ACAD_REACTORS
330
5E
102
}
330
5E
100
DictionaryVariables
280
     0
  1
Standard
  0
DICTIONARYVAR
  5
5F
102
{ACAD_REACTORS
330
5E
102
}
330
5E
100
DictionaryVariables
280
     0
  1
2
  0
DICTIONARYVAR
  5
63
102
{ACAD_REACTORS
330
5E
102
}
330
5E
100
DictionaryVariables
280
     0
  1
1
  0
DICTIONARYVAR
  5
1AE
102
{ACAD_REACTORS
330
5E
102
}
330
5E
100
DictionaryVariables
280
     0
  1
0
  0
DICTIONARYVAR
  5
1AF
102
{ACAD_REACTORS
330
5E
102
}
330
5E
100
DictionaryVariables
280
     0
  1
0
  0
DICTIONARYVAR
  5
356
102
{ACAD_REACTORS
330
5E
102
}
330
5E
100
DictionaryVariables
280
     0
  1
0
  0
XRECORD
  5
3E8
102
{ACAD_REACTORS
330
34E
102
}
330
34E
100
AcDbXrecord
280
     1
300
MC_VERSION_DATA
 90
       95
310
0600000002000000570000001C000000E204000000000000000000007801936764E5D8CF7A8393818115C460606066E0646662626666706006F214793899F8DE3171E725E6E53B3BBA2878E6951050AF75FEFFFFFF520032DE0F3057000000
  0
XRECORD
  5
357
102
{ACAD_REACTORS
330
34E
102
}
330
34E
100
AcDbXrecord
280
     1
300
MCS_DOCUMENT_ID
 90
       60
310
0600000002000000150000001C000000E204000000000000000000007801E3D5CECD7566BAB9CBA9E3457B8791F99BABFF81000064310BD215000000
  0
XRECORD
  5
3D1
102
{ACAD_REACTORS
330
34E
102
}
330
34E
100
AcDbXrecord
280
     1
300
MCS_PARAMS_DATA
 90
     3313
310
0600000002000000F64B00001C000000E204000000000000000000007801C55C5B6C5CC519DE9D595FD6B9DF494B53970A1A6F4A58DF92A6426A1A1210527090E23EF0543976A2BA75E25CAC160A6DA92AF5A55255A96AD556551F4A49A0CF15A03EC0438190865E482021147221409310B6900B3826B1FB7F7366CEFC73E6
310
1CAFBDDE3D9B07D8FF3F73CEF7DFE6FB67E6ECBA757EA3143929F767A4FCCE8636299AA49C90529036BB402C105929F279912F89C6DEAF6FD8BC69AB14A46C51EAC2B9898909BA39945F872C1FCD848A834A91A13B1AD51D6D5266E8A9FAF627E9AABE92BD45CA6F03BD81A3CFC24D59D990C96408C7E066656E0232E13A03
310
14B0AB01724443F05CC3F08780DFC8F19B03FC710A073DC8486413411B49060E3311A05C24C45064703B01D7CCE196A818E5C59C9268B967CBD6DED68ED59DC52EEB78BEF08E09F8223D745649346F1DE9DB35D0B777C089FC5FC3C8EB60BF1A286CF47FE3467F17CC59C5CD990B0CD948C1A77FB9F5CA0E4F479188EA541E
310
3C25A2E22BC99C8892456878B2821857F6B05492C2AD881B41409C21325211340605C9C6DC6006EC49AC088A0CCBB25B1159B72248E415019155047D5453031360047082A7405D92B72AB0F03379693EAB50870260AC609E2C6F6510BB3D081DFE4EF5EFECD71494A7B3590EC7F12C5B25CB32539229914732934ECE22AF1D
310
D259AC8B7B7649E437DE7BDFA69EADF76EE95186E95A7ED74C032DBFA66A9BF1CEF341B19B78E45DDED9EF56FE29189043E4814BF734E1FF34659991678231F23A51010DA578E8294D435524988818E84710A7B2643B4F7C134F5CC6936D1E4176D01398C4D0A83AE0A6BDC86B0BB5C3E1E8299D70A5A945AC12322FE697C4
310
9C8DC3BBBE34D2BA77FBEEA1BEFEED79D15C120DF70F0FEE1A093EF60C8FF47F4BCAB3B0ED666EDB17F5733E2B445B5E2C298985C507BB8BEBBA3A3A3774178B1D777FA5B36B9D327BBE1ED84C030BC74C9EDAB5B64D88BC405AEF1E1CD9D73A34B88F70838775AD5DDBD1B9B6BBABBB73A0ABA37F5D7BE0E757F57D1DB80F
310
037BFBB60D6D6F1DDED1DA3B3CB47D6FDF2EF8A0AD5933506CEF2FF6F7ADD9D6B56D5DFF9A60D6A95222FF670B51F8295953F8455019945B7EE9315C7A8AFEC352DE9D4B4A5050256AA6D1B42D5F0C265BEED4473538E9811F770DEFDCDD3732B86D706870E4A1D69DC303E45F6349C807B6EFCB8B8692103DC352AE816545
310
9E9E798813B5E9A692C86DD9B1A355A5424F8E0BF018466AF90D150136590E2905AA568F782650907D5A7180140B84AD0159F8156902B8F63BDA8BE1A72E29AF48322EA98B5F578631B6F5489B26184C63434803DB221A328E6B58DEAED6DB808FEB6DC068BD0DF8A4DE065CABB7018B3045EB390B3EAD7704C6EA6DC07518
310
10B79C17773A0DB6C361F03BDD064B22C8C7303844629E5064B47323116EB9039777E096BB70247238880C6E39831B9F221C81B3E543C57019D4736C30574EE2DD4AD73B12B9771099772B997713E97A974DF4CECD5D9582B938116EC00926492C777A7F676A8F441E4C882C98032C983211AE26DE8974E196022EC7174366
310
F9AE62C95769E105B5C4B012E2E82ED8CD3516C5E34D519CF0D1F6765A8551C6CC0505130A3E8ABEC46EF81CED54DC1DA04AB7BC4DB0CA082453194AB29B82400C2B438BA6322032B88FE093B3E13470C11297490C8EEF78E88158D51A8AD42283A38F61044E78707A57F8BBDFE2DF2167F36975041D1DA7FCF59430C35792
310
05112533A905D5D3CAAB4759DBB4CA160F3E9309466F934A1794E7E1154C402D3088858048DCDF7EA3E7FECD5B7A7B376D5480CBF43A7E5E49CCBE6BEB37D945B2402FC65F52AB73B67E7F3A58AE93F37A04F6B7011D680556EBCCA2819BC8A21C320F385BBDB4EE56E6E32CE2CB18E358AD7676B4C7C096B1674BAF7B1278
310
1E906198B0DF8681EA696AF34D20563061CAB731C0DB01185B8B0DCA46538BD880EB0E2C6FC3120B40E62289BC162112587895C11513E18290E892090EBF46A9321968C513E0BB89A0AE8F2431B88A7DFC9E07A7BD0A8E668E3AF3CDEA083A3A8ECFB770A00AB53712018F2859D8DB3D93C2E4D422CB77A40BB73A5DB807A7
310
0857A5727AC8838BE45965D0D3D5B29CBEEF99145F4E558AC0C3E9C23D922EDC0FD285FBA107E7958EEDE721E98018A3E3AAC64E7F5C166D7ABA81B65C437BB31D766C74A6ED6E1FBC2766B7AFDAD87156F9771BF44A2A724C461AB43EE729AAFB710D63E2111810BBA3ABC9AE6037E09AB9BF3AB40BE8309F8736AB64CAB2
310
BE7E3364E5AC569CA6976081AF5A311628A8EF68C5B3A4609E3E86AC3AA156E3E83562F4B5A292099A878C61EB3B549CF92354989982613F016CE7AD5A4D09AA1F5126387AAD451EE384D9C035A925859E39C1AA865EE9A9B8DA21CEE289167F7CF1D4C4BC7A125EC5AED5D8BB0B5A9D9144D134CFA71BF85A8D44BE568348
310
F6AA55A2F3CAEACF6982FD29118CC249D3CBF852A586F278BA70FBD3853B90085793EDE51E143F0AD06C6B4CB2242BDDBDD1419166C2865E85F9CE1648F3CBF54B2E655D5432557AB8C599EEE6E763403914E55050D879E2BFFA30F366F009F0CB378371CA9B99D05949929DD07465EA8797A3808B6B06B9536E64AF9C844C
310
903AF2F3709D3783A318A078E4F37AEBBCEC2DD1B228B722F785DC2DB9D64C476675A63353CC74E937B1FA39BFA7DB58A6AFC19E49583A4A9B6110A6BA038D3C80418F79D091B18A763C1D8524AA5361F194EC4CC4B23EDBA3192533E95398E41423EB6DCA1C239B4DBF91D13F6D762A6897D7013D496371DC8BECCAA7D45E
310
0C251095ABC98AA38E1B6540CD3DACF829EF15C38D27C2B92DA64A071D13897001094F16523EC1C9E5A99FF465029665AB5B13C49AF8984D174EA40B273D389D33BB29A272F6749622C2719C22AC925104534E7A8CF33714555C6B3CF3BE4BE0AF28994CA9B8353E0F28878DD26D8D2F007FBAAD11BD305CEB4EAB35BE08B8
310
B8D678FEB81BD9134AB6ADF10A644BBEF9C2334A81E4EAA6772450D87DD2AF49C178F020A0EBD3055FF292CC5B8AB3FC4114C86BA708ACDB15F49C43C04EBBE7FCBD0CA8A1CB2AF59CC3897035E1E39713E16AD873FE91085A131FFF19C04DBEDBF8D75406FD3B3A2842E56C8ABE82A171BC3BF89ECB0E0F287926BC7B0450
310
75E4DDA3C09F2EEF56BE2579157071BCBBE7881BD93E255BDE7D04B225A07C61BD5230DE1DBA8C1158736B225E412358525F03747D78F79897E472BCCBAF5BAF2BA0DDE3804E9B765F2F035A65DA3D910857134A7A2311AE52DA8D6E0E9C1341735A873DD47F12A16BE2E99BE9C275792B70532835F1AEDB838B7404B509F7
310
74C449519D9AA19EB28205FF5B08785CE3F9307262735AC933693C270155C7C6730AF8E9359ED3808B6B3CA387DDC6734EC9B6F1C897238DE72006D89713F9C2E58B91C6F3388D608DE70CA0A7DA7866D30F8008DC16BEAA2D26A2AAB848F4108A0CF46D0F54D7A73989E2C56D75B6B8431D2F6EAB64C5CD94644C04869974
310
1626C5B6A280378D1BEE62BCE2C3917700E714386FAA719B1D7E7D464DF7DD444F8317374E8CAA75BEF65E19D0F8F0523EC21D7470DCC60B8CAEF29753FC38EF4760CFDBF99B4673F680D0869F6742513F06849341B61DF57EE3400A02734628D75C0DBC8B68A868B98655ECA330208EA3C6F1B52E3DF1E8849E2433679564
310
431A886148B568E62C4406F75F64308EFD2F9D7039EA6D259B5B2BF91AD8396F72B01004EFC5CD6C88F911E8CCDF849C077E5C64E9488747967101058B73015D99FA9B900B808B63FFB117DCC85E50324556799F2F34BC086EC70CD18A4318C0D9FF2AB6807CDB718046B0A4BE0FE8B4D9FFA207EA504E3D7E65FA014C7226
310
B329B0E8D703AAFEBAA304E869379E693123CD68457958A4FF2F11AE86ECFF6119D078F6E7138AD87FF2370F86D6E1E34789702D76FED2134932CCA824CB8C811832A3160D33426421BD940847AF6F0C11D33DEECB1CFE9B7175D1F926045DE5BD8DBFBDBE9C081764D0049324E6DDB40A8607F34A225C4D16463974B5B836
310
F3B3A32E193EACE499B49986C93A780A6DA631A981D7A6CD34012EAECDFCF23937B23F51B26D337F80CCDBCC36A5C0ECD07DE7E7A7236D663D8D6033A419D0536D33E07F56B8C4CA7C0D48229F9610695A461A0883CE7B494E8DD95B004DF38E8247AB09FE45AC1A52EDAC32A0861DD8DA85D8A76276989D08579353913989
310
700119397510D9BB4CAB9DF096393711B4263ECE4B176E7EBA700B3C389DB3F0B5335AA6A7234288EA142D784A9083AFB414616018456CF64C3293C4CD2F49D3E5A5F0410CEE3E0F2E6A6FEA11580893E29AEE529C2FC11C4DF48D4AA628982DB44A422820F8563073C8F989CF2240392BED74F7768B819FDEDE6E09E0E29A
310
EE0AFA030B3CB273954C91D5916E83CC9BEE074FAB1E6B73B11CFB6CBEB73B4C23589D2D05F4CC9AAE2E4C768646F0614DBB4BD40606BDCC4B726A4DF72640A7DD749797013521AB4ED3C5971C1BF2225712D922FD192CAA82F186C253F467B664EED8B163100EA1787299890C1D4314EEF90B040C236113FD72905624B8F0
310
99FF03A92412CEF64B0000
  0
XRECORD
  5
4C7
102
{ACAD_REACTORS
330
44C
102
}
330
44C
100
AcDbXrecord
280
     1
 91
     1023
301
Configuration1: description
290
     0
302
0
330
10
 90
        8
 62
     7
370
    -3
331
16
  1
Color_7
330
3F0
 90
        8
 62
     7
370
    -3
331
16
  1
Color_7
330
3F3
 90
        8
 62
     4
370
    -3
331
16
  1
Color_7
330
3ED
 90
        8
 62
     5
370
    -3
331
16
  1
Color_5
330
4B2
 90
        8
 62
     3
370
    -3
331
16
  1
Color_3
330
4B3
 90
        8
 62
     1
370
    -3
331
16
  1
Color_1
330
4B4
 90
        8
 62
     7
370
    -3
331
16
  1
Color_4
330
4B5
 90
        8
 62
     4
370
    18
331
16
  1
Color_9
330
4B6
 90
        8
 62
     4
370
    18
331
16
  1
Color_130
330
3EF
 90
        8
 62
     7
370
    18
331
16
  1
Color_8
330
4B7
 90
        8
 62
     7
370
    18
331
16
  1
Color_253
330
4B8
 90
        8
 62
     4
370
    18
331
16
  1
Color_130
330
4B9
 90
        8
 62
     7
370
    18
331
16
  1
Color_253
330
3F1
 90
        8
 62
     1
370
    -3
331
16
  1
Color_7
330
4BA
 90
        8
 62
     7
370
    -3
331
16
  1
Color_7
330
4BB
 90
        8
 62
     7
370
    -3
331
16
  1
Color_7
330
4BC
 90
        9
 62
     4
370
    -3
331
16
  1
Color_7
330
4BD
 90
        8
 62
     4
370
    -3
331
16
  1
Color_7
330
3F4
 90
        8
 62
     6
370
    -3
331
16
  1
Color_7
330
4BE
 90
        8
 62
     1
370
    -3
331
16
  1
Color_7
330
4BF
 90
        8
 62
     1
370
    25
331
16
  1
Color_3
330
3F5
 90
        8
 62
     6
370
    25
331
16
  1
Color_3
330
4C0
 90
        8
 62
     6
370
    -3
331
16
  1
Color_7
330
4C1
 90
        8
 62
     3
370
    -3
331
16
  1
Color_3
330
4C2
 90
        8
 62
     3
370
    -3
331
16
  1
Color_3
330
4C3
 90
        8
 62
     3
370
    -3
331
16
  1
Color_3
330
4C4
 90
        8
 62
     5
370
    -3
331
16
  1
Color_5
330
4C5
 90
        8
 62
     5
370
    -3
331
16
  1
Color_5
330
4C6
 90
        8
 62
     5
370
    -3
331
16
  1
Color_5
  0
DICTIONARY
  5
358
330
22
100
AcDbDictionary
280
     1
281
     1
  3
CSD_PLOT_CONFIG
360
359
  0
DICTIONARY
  5
4F8
330
7F
100
AcDbDictionary
280
     1
281
     1
  3
ACAD_ROUNDTRIP_2008_TABLESTYLE_CELLSTYLEMAP
360
4F9
  0
LAYOUTPRINTCONFIG
  5
359
102
{ACAD_REACTORS
330
358
102
}
330
358
100
AcDbEntity
  8
0
160
                 8
310
0800000000000000
100
CAcLayoutPrintConfig
 93
        0
  0
CELLSTYLEMAP
  5
4F9
102
{ACAD_REACTORS
330
4F8
102
}
330
4F8
100
AcDbCellStyleMap
 90
        3
300
CELLSTYLE
  1
TABLEFORMAT_BEGIN
 90
        5
170
     1
 91
        0
 92
    32768
 62
   257
 93
        1
300
CONTENTFORMAT
  1
CONTENTFORMAT_BEGIN
 90
        0
 91
        0
 92
      512
 93
        0
300

 40
0.0
140
1.0
 94
        5
 62
     0
340
11
144
6.0
309
CONTENTFORMAT_END
171
     1
301
MARGIN
  1
CELLMARGIN_BEGIN
 40
1.5
 40
1.5
 40
1.5
 40
1.5
 40
4.5
 40
4.5
309
CELLMARGIN_END
 94
        6
 95
        1
302
GRIDFORMAT
  1
GRIDFORMAT_BEGIN
 90
        0
 91
        1
 62
     0
 92
       -2
340
14
 93
        0
 40
1.125
309
GRIDFORMAT_END
 95
        2
302
GRIDFORMAT
  1
GRIDFORMAT_BEGIN
 90
        0
 91
        1
 62
     0
 92
       -2
340
14
 93
        0
 40
1.125
309
GRIDFORMAT_END
 95
        4
302
GRIDFORMAT
  1
GRIDFORMAT_BEGIN
 90
        0
 91
        1
 62
     0
 92
       -2
340
14
 93
        0
 40
1.125
309
GRIDFORMAT_END
 95
        8
302
GRIDFORMAT
  1
GRIDFORMAT_BEGIN
 90
        0
 91
        1
 62
     0
 92
       -2
340
14
 93
        0
 40
1.125
309
GRIDFORMAT_END
 95
       16
302
GRIDFORMAT
  1
GRIDFORMAT_BEGIN
 90
        0
 91
        1
 62
     0
 92
       -2
340
14
 93
        0
 40
1.125
309
GRIDFORMAT_END
 95
       32
302
GRIDFORMAT
  1
GRIDFORMAT_BEGIN
 90
        0
 91
        1
 62
     0
 92
       -2
340
14
 93
        0
 40
1.125
309
GRIDFORMAT_END
309
TABLEFORMAT_END
  1
CELLSTYLE_BEGIN
 90
        1
 91
        1
300
_TITLE
309
CELLSTYLE_END
300
CELLSTYLE
  1
TABLEFORMAT_BEGIN
 90
        5
170
     1
 91
        0
 92
        0
 62
   257
 93
        1
300
CONTENTFORMAT
  1
CONTENTFORMAT_BEGIN
 90
        0
 91
        0
 92
      512
 93
        0
300

 40
0.0
140
1.0
 94
        5
 62
     0
340
11
144
4.5
309
CONTENTFORMAT_END
171
     1
301
MARGIN
  1
CELLMARGIN_BEGIN
 40
1.5
 40
1.5
 40
1.5
 40
1.5
 40
4.5
 40
4.5
309
CELLMARGIN_END
 94
        6
 95
        1
302
GRIDFORMAT
  1
GRIDFORMAT_BEGIN
 90
        0
 91
        1
 62
     0
 92
       -2
340
14
 93
        0
 40
1.125
309
GRIDFORMAT_END
 95
        2
302
GRIDFORMAT
  1
GRIDFORMAT_BEGIN
 90
        0
 91
        1
 62
     0
 92
       -2
340
14
 93
        0
 40
1.125
309
GRIDFORMAT_END
 95
        4
302
GRIDFORMAT
  1
GRIDFORMAT_BEGIN
 90
        0
 91
        1
 62
     0
 92
       -2
340
14
 93
        0
 40
1.125
309
GRIDFORMAT_END
 95
        8
302
GRIDFORMAT
  1
GRIDFORMAT_BEGIN
 90
        0
 91
        1
 62
     0
 92
       -2
340
14
 93
        0
 40
1.125
309
GRIDFORMAT_END
 95
       16
302
GRIDFORMAT
  1
GRIDFORMAT_BEGIN
 90
        0
 91
        1
 62
     0
 92
       -2
340
14
 93
        0
 40
1.125
309
GRIDFORMAT_END
 95
       32
302
GRIDFORMAT
  1
GRIDFORMAT_BEGIN
 90
        0
 91
        1
 62
     0
 92
       -2
340
14
 93
        0
 40
1.125
309
GRIDFORMAT_END
309
TABLEFORMAT_END
  1
CELLSTYLE_BEGIN
 90
        2
 91
        1
300
_HEADER
309
CELLSTYLE_END
300
CELLSTYLE
  1
TABLEFORMAT_BEGIN
 90
        5
170
     1
 91
        0
 92
        0
 62
   257
 93
        1
300
CONTENTFORMAT
  1
CONTENTFORMAT_BEGIN
 90
        0
 91
        0
 92
      512
 93
        0
300

 40
0.0
140
1.0
 94
        2
 62
     0
340
11
144
4.5
309
CONTENTFORMAT_END
171
     1
301
MARGIN
  1
CELLMARGIN_BEGIN
 40
1.5
 40
1.5
 40
1.5
 40
1.5
 40
4.5
 40
4.5
309
CELLMARGIN_END
 94
        6
 95
        1
302
GRIDFORMAT
  1
GRIDFORMAT_BEGIN
 90
        0
 91
        1
 62
     0
 92
       -2
340
14
 93
        0
 40
1.125
309
GRIDFORMAT_END
 95
        2
302
GRIDFORMAT
  1
GRIDFORMAT_BEGIN
 90
        0
 91
        1
 62
     0
 92
       -2
340
14
 93
        0
 40
1.125
309
GRIDFORMAT_END
 95
        4
302
GRIDFORMAT
  1
GRIDFORMAT_BEGIN
 90
        0
 91
        1
 62
     0
 92
       -2
340
14
 93
        0
 40
1.125
309
GRIDFORMAT_END
 95
        8
302
GRIDFORMAT
  1
GRIDFORMAT_BEGIN
 90
        0
 91
        1
 62
     0
 92
       -2
340
14
 93
        0
 40
1.125
309
GRIDFORMAT_END
 95
       16
302
GRIDFORMAT
  1
GRIDFORMAT_BEGIN
 90
        0
 91
        1
 62
     0
 92
       -2
340
14
 93
        0
 40
1.125
309
GRIDFORMAT_END
 95
       32
302
GRIDFORMAT
  1
GRIDFORMAT_BEGIN
 90
        0
 91
        1
 62
     0
 92
       -2
340
14
 93
        0
 40
1.125
309
GRIDFORMAT_END
309
TABLEFORMAT_END
  1
CELLSTYLE_BEGIN
 90
        3
 91
        2
300
_DATA
309
CELLSTYLE_END
  0
ENDSEC
  0
EOF
