  0
SECTION
  2
HEADER
  9
$ACADVER
  1
AC1009
  9
$INSBASE
 10
0.0
 20
0.0
 30
0.0
  9
$EXTMIN
 10
0.0
 20
0.0
 30
0.0
  9
$EXTMAX
 10
0.0
 20
0.0
 30
0.0
  0
ENDSEC
  0
SECTION
  2
TABLES
  0
TABLE
  2
VPORT
 70
0
  0
ENDTAB
  0
TABLE
  2
LTYPE
 70
1
  0
LTYPE
  2
CONTINUOUS
 70
0
  3
Solid line
 72
65
 73
0
 40
0.0
  0
ENDTAB
  0
TABLE
  2
LAYER
 70
1
  0
LAYER
  2
0
 70
64
 62
7
  6
continuous
  0
ENDTAB
  0
TABLE
  2
STYLE
 70
1
  0
STYLE
  2
STANDARD
 70
0
 40
0
 41
1.0
 50
0.0
 71
0
 42
1
 3
ARIAL.TTF
 4

  0
ENDTAB
  0
TABLE
  2
VIEW
 70
0
  0
ENDTAB
  0
ENDSEC
  0
SECTION
  2
BLOCKS
  0
BLOCK
  8
0
  2
SHAPE2DVIEW
 70
0
 10
0.0
 20
0.0
 30
0.0
  3
SHAPE2DVIEW
  0
POLYLINE
  8
0
 62
0
 70
0
 66
1
 10
0.0
 20
0.0
 30
0.0
  0
VERTEX
  8
0
 10
0.0
 20
-6.598246924063034
 30
0.0
  0
VERTEX
  8
0
 10
4.241240603594948
 20
-5.054576212233928
 30
0.0
  0
VERTEX
  8
0
 10
6.4979907646916315
 20
-1.1458527389361906
 30
0.0
  0
VERTEX
  8
0
 10
5.714309757241523
 20
3.2990190173146834
 30
0.0
  0
VERTEX
  8
0
 10
2.256884444590841
 20
6.200268952874656
 30
0.0
  0
VERTEX
  8
0
 10
-2.2565445201334935
 20
6.2003926734014785
 30
0.0
  0
VERTEX
  8
0
 10
-5.714128864611188
 20
3.2993323283794522
 30
0.0
  0
VERTEX
  8
0
 10
-6.498053581939533
 20
-1.1454964610426903
 30
0.0
  0
VERTEX
  8
0
 10
-4.241517685847628
 20
-5.05434369687279
 30
0.0
  0
VERTEX
  8
0
 10
-8.881784197001252e-16
 20
-6.598246924063034
 30
0.0
  0
SEQEND
  8
0
  0
ENDBLK
  0
BLOCK
  8
0
  2
SHAPE2DVIEW001
 70
0
 10
0.0
 20
0.0
 30
0.0
  3
SHAPE2DVIEW001
  0
POLYLINE
  8
0
 62
0
 70
0
 66
1
 10
0.0
 20
0.0
 30
0.0
  0
VERTEX
  8
0
 10
8.881784197001252e-16
 20
-5.792207745443566
 30
0.0
  0
VERTEX
  8
0
 10
4.095666267908557
 20
-4.095752481886535
 30
0.0
  0
VERTEX
  8
0
 10
5.792207744434685
 20
-0.00012197835789795608
 30
0.0
  0
VERTEX
  8
0
 10
4.095838749775768
 20
4.095580005832063
 30
0.0
  0
VERTEX
  8
0
 10
0.00024389940423880097
 20
5.792207740638106
 30
0.0
  0
VERTEX
  8
0
 10
-4.095493758715131
 20
4.095924980091813
 30
0.0
  0
VERTEX
  8
0
 10
-5.7922077406962025
 20
0.0003658876915380027
 30
0.0
  0
VERTEX
  8
0
 10
-4.096011185697695
 20
-4.095407542334138
 30
0.0
  0
VERTEX
  8
0
 10
-8.881784197001252e-16
 20
-5.792207745443566
 30
0.0
  0
SEQEND
  8
0
  0
ENDBLK
  0
BLOCK
  8
0
  2
SHAPE2DVIEW002
 70
0
 10
0.0
 20
0.0
 30
0.0
  3
SHAPE2DVIEW002
  0
POLYLINE
  8
0
 62
0
 70
0
 66
1
 10
0.0
 20
0.0
 30
0.0
  0
VERTEX
  8
0
 10
8.881784197001252e-16
 20
-6.283264661488285
 30
0.0
  0
VERTEX
  8
0
 10
4.442894225183814
 20
-4.442983875126681
 30
0.0
  0
VERTEX
  8
0
 10
6.283264660580072
 20
-0.00012684638674187454
 30
0.0
  0
VERTEX
  8
0
 10
4.443073551820357
 20
4.442804552255139
 30
0.0
  0
VERTEX
  8
0
 10
0.0002536517189545284
 20
6.283264657340864
 30
0.0
  0
VERTEX
  8
0
 10
-4.442714854234054
 20
4.44316323917142
 30
0.0
  0
VERTEX
  8
0
 10
-6.283264650493095
 20
0.0003804999029227707
 30
0.0
  0
VERTEX
  8
0
 10
-4.443252912161913
 20
-4.442625170132832
 30
0.0
  0
VERTEX
  8
0
 10
-8.881784197001252e-16
 20
-6.283264661488285
 30
0.0
  0
SEQEND
  8
0
  0
ENDBLK
  0
BLOCK
  8
0
  2
SHAPE2DVIEW004
 70
0
 10
0.0
 20
0.0
 30
0.0
  3
SHAPE2DVIEW004
  0
POLYLINE
  8
0
 62
0
 70
0
 66
1
 10
0.0
 20
0.0
 30
0.0
  0
VERTEX
  8
0
 10
8.881784197001252e-16
 20
-4.031714875245254
 30
0.0
  0
VERTEX
  8
0
 10
3.491526564435513
 20
-2.0159283537934867
 30
0.0
  0
VERTEX
  8
0
 10
3.4916493948086793
 20
2.0157155904907285
 30
0.0
  0
VERTEX
  8
0
 10
0.00024566858346414255
 20
4.031714868367685
 30
0.0
  0
VERTEX
  8
0
 10
-3.4914037159760998
 20
2.016141098124797
 30
0.0
  0
VERTEX
  8
0
 10
-3.491772210730495
 20
-2.0155028330418236
 30
0.0
  0
VERTEX
  8
0
 10
0.0
 20
-4.031714875245254
 30
0.0
  0
SEQEND
  8
0
  0
ENDBLK
  0
BLOCK
  8
0
  2
SHAPE2DVIEW003
 70
0
 10
0.0
 20
0.0
 30
0.0
  3
SHAPE2DVIEW003
  0
POLYLINE
  8
0
 62
0
 70
0
 66
1
 10
0.0
 20
0.0
 30
0.0
  0
VERTEX
  8
0
 10
8.881784197001252e-16
 20
-5.077603815270758
 30
0.0
  0
VERTEX
  8
0
 10
3.9697891428022247
 20
-3.1658860874017094
 30
0.0
  0
VERTEX
  8
0
 10
4.950327231104972
 20
1.1297437143044429
 30
0.0
  0
VERTEX
  8
0
 10
2.2032691594996683
 20
4.574676551634407
 30
0.0
  0
VERTEX
  8
0
 10
-2.2028504648407035
 20
4.574878178619189
 30
0.0
  0
VERTEX
  8
0
 10
-4.950223808919114
 20
1.1301967782039224
 30
0.0
  0
VERTEX
  8
0
 10
-3.970078874918797
 20
-3.165522743058385
 30
0.0
  0
VERTEX
  8
0
 10
-8.881784197001252e-16
 20
-5.077603815270758
 30
0.0
  0
SEQEND
  8
0
  0
ENDBLK
  0
BLOCK
  8
0
  2
SHAPE2DVIEW005
 70
0
 10
0.0
 20
0.0
 30
0.0
  3
SHAPE2DVIEW005
  0
POLYLINE
  8
0
 62
0
 70
0
 66
1
 10
0.0
 20
0.0
 30
0.0
  0
VERTEX
  8
0
 10
4.440892098500626e-16
 20
-2.287729176094478
 30
0.0
  0
VERTEX
  8
0
 10
1.981268077871874
 20
1.1438013762098307
 30
0.0
  0
VERTEX
  8
0
 10
-1.9811585851729614
 20
1.1439910198465764
 30
0.0
  0
VERTEX
  8
0
 10
0.0
 20
-2.287729176094478
 30
0.0
  0
SEQEND
  8
0
  0
ENDBLK
  0
ENDSEC
  0
SECTION
  2
ENTITIES
  0
INSERT
  2
SHAPE2DVIEW
  8
0
 62
0
 10
0.0
 20
0.0
 30
0.0
  0
INSERT
  2
SHAPE2DVIEW001
  8
0
 62
0
 10
0.0
 20
0.0
 30
0.0
  0
INSERT
  2
SHAPE2DVIEW002
  8
0
 62
0
 10
0.0
 20
0.0
 30
0.0
  0
INSERT
  2
SHAPE2DVIEW004
  8
0
 62
0
 10
0.0
 20
0.0
 30
0.0
  0
INSERT
  2
SHAPE2DVIEW003
  8
0
 62
0
 10
0.0
 20
0.0
 30
0.0
  0
INSERT
  2
SHAPE2DVIEW005
  8
0
 62
0
 10
0.0
 20
0.0
 30
0.0
  0
ENDSEC
  0
EOF
