DBRep_DrawableShape

CASCADE Topology V1, (c) Matra-Datavision
Locations 0
Curve2ds 24
1 0 0 1 0 
1 0 0 1 0 
1 11.484775946901202 0 0 -1 
1 0 0 0 1 
1 0 -21.458166821874055 1 0 
1 0 0 1 0 
1 0 0 0 -1 
1 0 0 0 1 
1 0 0 1 0 
1 0 34.998321999999419 1 0 
1 11.484775946901202 0 0 -1 
1 34.998321999999419 0 0 1 
1 0 -21.458166821874055 1 0 
1 0 34.998321999999419 1 0 
1 0 0 0 -1 
1 34.998321999999419 0 0 1 
1 0 0 0 1 
1 0 0 1 0 
1 11.484775946901202 0 0 1 
1 0 0 1 0 
1 0 0 0 1 
1 0 21.458166821874055 1 0 
1 11.484775946901202 0 0 1 
1 0 21.458166821874055 1 0 
Curves 12
1 -17.499160999999134 -15.06805622267245 -12.054725354736153 0 0 1 
1 -17.499160999999134 -15.06805622267245 -0.56994940783495096 -0 1 0 
1 -17.499160999999134 6.3901105992016056 -12.054725354736153 0 0 1 
1 -17.499160999999134 -15.06805622267245 -12.054725354736153 -0 1 0 
1 17.499161000000285 -15.06805622267245 -12.054725354736153 0 0 1 
1 17.499161000000285 -15.06805622267245 -0.56994940783495096 0 1 0 
1 17.499161000000285 6.3901105992016056 -12.054725354736153 0 0 1 
1 17.499161000000285 -15.06805622267245 -12.054725354736153 -0 1 0 
1 -17.499160999999134 -15.06805622267245 -12.054725354736153 1 0 -0 
1 -17.499160999999134 -15.06805622267245 -0.56994940783495096 1 0 -0 
1 -17.499160999999134 6.3901105992016056 -12.054725354736153 1 0 -0 
1 -17.499160999999134 6.3901105992016056 -0.56994940783495096 1 0 -0 
Polygon3D 0
PolygonOnTriangulations 0
Surfaces 6
1 -17.499160999999134 -15.06805622267245 -12.054725354736153 1 0 -0 0 0 1 0 -1 0 
1 -17.499160999999134 -15.06805622267245 -12.054725354736153 -0 1 0 0 0 1 1 0 -0 
1 -17.499160999999134 -15.06805622267245 -0.56994940783495096 0 0 1 1 0 -0 -0 1 0 
1 -17.499160999999134 6.3901105992016056 -12.054725354736153 -0 1 0 0 0 1 1 0 -0 
1 -17.499160999999134 -15.06805622267245 -12.054725354736153 0 0 1 1 0 -0 -0 1 0 
1 17.499161000000285 -15.06805622267245 -12.054725354736153 1 0 -0 0 0 1 0 -1 0 
Triangulations 0

TShapes 34
Ve
1e-07
-17.4991609999991 -15.0680562226724 -0.569949407834951
0 0

0101101
*
Ve
1e-07
-17.4991609999991 -15.0680562226724 -12.0547253547362
0 0

0101101
*
Ed
 1e-07 1 1 0
1  1 0 0 11.4847759469012
2  1 1 0 0 11.4847759469012
2  2 2 0 0 11.4847759469012
0

0101000
-34 0 +33 0 *
Ve
1e-07
-17.4991609999991 6.39011059920161 -0.569949407834951
0 0

0101101
*
Ed
 1e-07 1 1 0
1  2 0 0 21.4581668218741
2  3 1 0 0 21.4581668218741
2  4 3 0 0 21.4581668218741
0

0101000
-31 0 +34 0 *
Ve
1e-07
-17.4991609999991 6.39011059920161 -12.0547253547362
0 0

0101101
*
Ed
 1e-07 1 1 0
1  3 0 0 11.4847759469012
2  5 1 0 0 11.4847759469012
2  6 4 0 0 11.4847759469012
0

0101000
-31 0 +29 0 *
Ed
 1e-07 1 1 0
1  4 0 0 21.4581668218741
2  7 1 0 0 21.4581668218741
2  8 5 0 0 21.4581668218741
0

0101000
-29 0 +33 0 *
Wi

0101000
-32 0 -30 0 +28 0 +27 0 *
Fa
0  1e-07 1 0

0111000
+26 0 *
Ve
1e-07
17.4991610000003 -15.0680562226724 -0.569949407834951
0 0

0101101
*
Ve
1e-07
17.4991610000003 -15.0680562226724 -12.0547253547362
0 0

0101101
*
Ed
 1e-07 1 1 0
1  5 0 0 11.4847759469012
2  9 6 0 0 11.4847759469012
2  10 2 0 0 11.4847759469012
0

0101000
-24 0 +23 0 *
Ve
1e-07
17.4991610000003 6.39011059920161 -0.569949407834951
0 0

0101101
*
Ed
 1e-07 1 1 0
1  6 0 0 21.4581668218741
2  11 6 0 0 21.4581668218741
2  12 3 0 0 21.4581668218741
0

0101000
-21 0 +24 0 *
Ve
1e-07
17.4991610000003 6.39011059920161 -12.0547253547362
0 0

0101101
*
Ed
 1e-07 1 1 0
1  7 0 0 11.4847759469012
2  13 6 0 0 11.4847759469012
2  14 4 0 0 11.4847759469012
0

0101000
-21 0 +19 0 *
Ed
 1e-07 1 1 0
1  8 0 0 21.4581668218741
2  15 6 0 0 21.4581668218741
2  16 5 0 0 21.4581668218741
0

0101000
-19 0 +23 0 *
Wi

0101000
-22 0 -20 0 +18 0 +17 0 *
Fa
0  1e-07 6 0

0111000
+16 0 *
Ed
 1e-07 1 1 0
1  9 0 0 34.9983219999994
2  17 2 0 0 34.9983219999994
2  18 5 0 0 34.9983219999994
0

0101000
-23 0 +33 0 *
Ed
 1e-07 1 1 0
1  10 0 0 34.9983219999994
2  19 2 0 0 34.9983219999994
2  20 3 0 0 34.9983219999994
0

0101000
-24 0 +34 0 *
Wi

0101000
-14 0 -22 0 +13 0 +32 0 *
Fa
0  1e-07 2 0

0111000
+12 0 *
Ed
 1e-07 1 1 0
1  11 0 0 34.9983219999994
2  21 4 0 0 34.9983219999994
2  22 5 0 0 34.9983219999994
0

0101000
-19 0 +29 0 *
Ed
 1e-07 1 1 0
1  12 0 0 34.9983219999994
2  23 4 0 0 34.9983219999994
2  24 3 0 0 34.9983219999994
0

0101000
-21 0 +31 0 *
Wi

0101000
-10 0 -18 0 +9 0 +28 0 *
Fa
0  1e-07 4 0

0111000
+8 0 *
Wi

0101000
-27 0 -10 0 +17 0 +14 0 *
Fa
0  1e-07 5 0

0111000
+6 0 *
Wi

0101000
-30 0 -9 0 +20 0 +13 0 *
Fa
0  1e-07 3 0

0111000
+4 0 *
Sh

0101100
-25 0 +15 0 -11 0 +7 0 -5 0 +3 0 *
So

1100000
+2 0 *

+1 0 