<?xml version="1.0" encoding="UTF-8" standalone="no"?>
<!-- Created with Inkscape (http://www.inkscape.org/) -->

<svg
   xmlns:dc="http://purl.org/dc/elements/1.1/"
   xmlns:cc="http://creativecommons.org/ns#"
   xmlns:rdf="http://www.w3.org/1999/02/22-rdf-syntax-ns#"
   xmlns:svg="http://www.w3.org/2000/svg"
   xmlns="http://www.w3.org/2000/svg"
   xmlns:sodipodi="http://sodipodi.sourceforge.net/DTD/sodipodi-0.dtd"
   xmlns:inkscape="http://www.inkscape.org/namespaces/inkscape"
   version="1.1"
   id="svg17"
   width="100mm"
   height="333mm"
   viewBox="0 0 100 333"
   sodipodi:docname="Madzi.svg"
   inkscape:version="0.92.4 (5da689c313, 2019-01-14)">
  <metadata
     id="metadata23">
    <rdf:RDF>
      <cc:Work
         rdf:about="">
        <dc:format>image/svg+xml</dc:format>
        <dc:type
           rdf:resource="http://purl.org/dc/dcmitype/StillImage" />
        <dc:title></dc:title>
      </cc:Work>
    </rdf:RDF>
  </metadata>
  <defs
     id="defs21" />
  <sodipodi:namedview
     pagecolor="#ffffff"
     bordercolor="#666666"
     borderopacity="1"
     objecttolerance="10"
     gridtolerance="10"
     guidetolerance="10"
     inkscape:pageopacity="0"
     inkscape:pageshadow="2"
     inkscape:window-width="1299"
     inkscape:window-height="745"
     id="namedview19"
     showgrid="false"
     inkscape:document-units="mm"
     units="mm"
     inkscape:pagecheckerboard="true"
     inkscape:zoom="0.472"
     inkscape:cx="-12.213688"
     inkscape:cy="219.45017"
     inkscape:window-x="59"
     inkscape:window-y="-8"
     inkscape:window-maximized="1"
     inkscape:current-layer="svg17" />
  <path
     style="fill:#000000"
     d="m 51.195591,702.38051 c -7.41044,-19.79953 -1.15425,-41.78693 -1.5615,-63.57968 4.60733,-16.99342 6.49458,-38.39279 9.48716,-51.80991 5.37375,-14.86342 20.80491,-35.07633 8.16129,-45.50289 14.03938,-12.86774 -8.20889,1.56887 -1.23072,-14.64101 -13.79161,-7.51398 1.0928,-1.59013 6.63126,-9.00565 15.82145,12.03299 -8.53035,-18.3318 7.42453,-4.0396 10.4942,-9.9197 -7.33826,-17.54179 10.9587,-20.82627 -4.98226,-13.10749 10.398599,-30.3676 0.39876,-35.8755 10.944229,7.40331 15.437169,-22.17842 21.943889,-4.31901 18.79971,-6.42912 22.6554,-26.43351 20.69547,-43.87914 -2.33602,-13.81366 9.32104,-23.97438 13.04721,-36.45625 9.82465,-9.39255 2.82755,-23.94245 2.0687,-29.5 9.62347,-2.32855 16.03754,-32.56412 19.11511,-46.9914 6.71792,-21.72529 9.13513,-48.1563 29.06959,-62.4373 13.12829,-7.64063 37.92872,-15.48448 21.82155,-18.04768 13.92534,-5.03416 27.41277,-10.83381 36.57181,-10.27888 -11.54291,4.22139 -4.84548,24.15071 6.73318,11.5331 6.14789,-11.98381 12.41284,-12.60826 26.73456,-11.61229 10.38679,13.51313 8.32579,2.06456 7.64765,1.13188 19.91855,19.56853 25.8092,48.2571 34.67439,73.70254 -17.19703,-18.78596 -31.30856,-41.20709 -53.64846,-55.02119 12.13214,0.0255 34.60519,27.01905 39.95224,25.37763 -5.6843,-18.16683 -20.72075,-34.05296 -36.18893,-41.78779 -9.56341,11.18955 -23.62741,28.40958 -43.44758,17.90531 -22.9246,-6.45653 -51.07657,10.03981 -56.5201,33.73207 -2.55328,27.84817 -2.68166,56.20001 -8.15943,83.64423 -5.58657,19.26608 -4.00216,-18.65895 -12.02257,4.57207 -0.51547,13.60111 -12.50895,46.70371 -8.30375,48.24241 -0.78285,-9.71162 6.69131,-32.54154 4.38717,-9.47415 -1.04754,13.24065 -7.13369,36.4091 -7.86901,44.32841 4.66344,-16.94729 8.77888,-32.18818 15.2524,-43.00873 2.90779,21.21697 14.2496,38.2976 26.10007,55.1387 1.39205,11.77753 0.6761,26.75959 -8.09316,10.11821 1.78964,-12.10785 -10.27927,-38.70786 -8.89753,-11.61737 -0.23977,16.14471 -5.3826,2.58734 -8.4092,2.8502 -6.23393,4.77164 5.99208,5.00515 6.91033,16.36062 4.66793,-9.96229 2.4531,-44.46255 7.82329,-15.69808 2.13754,12.1354 -0.99353,26.59015 7.70142,20.33114 5.30752,19.80287 8.5838,-19.0695 4.10167,-25.71708 -4.20218,-11.92105 -9.89434,-37.65997 -18.38352,-39.94626 2.15375,24.03707 -9.13819,-18.58094 -6.3615,-25.49922 1.50002,-19.63541 17.03852,-34.85862 13.59879,-55.64868 1.42818,-16.16851 32.54246,-4.12576 35.92646,9.40081 -6.25181,3.07109 -28.55156,11.94918 -10.4443,7.00773 18.45797,2.21024 -14.73737,5.92546 -13.3727,13.74272 0.51147,9.45953 -0.64176,20.76833 13.81466,18.81164 12.16493,-9.05403 -0.98286,11.13643 5.48134,11.2908 9.98667,18.24161 48.12392,-1.83006 50.21626,4.47914 -18.50001,4.02612 -9.26165,27.64581 -30.90456,20.69733 -22.4859,1.48055 8.50971,25.06415 20.38319,16.20985 9.60487,0.90139 43.18469,-24.32135 20.69497,-4.18247 -16.20084,6.40883 -21.71944,25.64346 -25.9358,38.99875 -12.53375,0.93215 -6.22835,18.49314 -15.44053,23.72534 12.80707,8.87486 34.45371,-19.626 39.6135,-8.12829 -10.92403,3.92334 -42.98787,25.72017 -15.01672,24.65282 13.13447,4.21937 26.29479,-11.17687 30.61622,-8.27776 6.49125,-29.9936 39.71553,-12.19569 54.07675,-34.45609 15.69547,-24.02933 28.32934,-1.89993 43.69281,7.99989 20.03454,11.93295 37.84283,29.09937 49.00406,49.95347 8.85456,9.06678 11.11851,20.40408 14.3853,24.27977 3.0168,5.02798 8.18347,16.19035 11.06195,22.29372 1.66637,7.77337 6.10803,12.88972 5.93763,25.74707 -1.20231,17.17195 2.44222,30.33382 0.98126,37.32132 3.86906,13.24193 1.52315,37.93104 2.07766,55.22178 2.21247,12.40807 -4.08857,29.22247 -0.73989,9.56641 -9.46189,9.48862 -6.27537,-2.44247 -0.30347,-5.7725 -0.0483,-9.804 1.25351,-20.76139 -2.26662,-17.77778 -7.60548,-7.53885 -5.45614,-46.56709 -17.14281,-28.08196 1.07322,7.99684 -25.16558,13.54434 -9.45608,-0.90595 13.34279,-13.75284 22.05508,-35.50462 16.24919,-53.71097 -1.04846,-10.79978 12.66491,-2.73788 4.74626,-16.68178 -15.16297,-19.0293 -43.34453,-14.89163 -53.33255,6.40537 -6.07898,11.73581 -28.39469,27.30641 -15.67026,6.37615 8.50212,-9.91061 12.8088,-43.88612 -3.22728,-21.81649 0.79362,-9.60401 7.02509,-39.54966 -7.84315,-17.56071 -7.73135,17.40952 -25.35653,29.84732 -25.87317,49.01363 -13.04344,1.57542 -26.09003,-0.39989 -22.91261,19.16168 -3.20325,6.50776 8.57923,20.47248 0.42358,20.51304 -4.78651,-16.75162 -1.32135,-35.67996 1.73539,-52.60353 0.46069,-15.62844 6.78635,-36.39765 9.48282,-53.42872 4.11075,-15.94003 4.51996,-34.54105 6.05718,-53.90591 -11.45262,-7.20274 -7.75739,13.18707 -9.3756,19.11007 -2.41919,4.55547 -1.10561,2.74949 -1.32031,13.99284 -3.79538,6.03959 -6.19919,17.45583 -4.39317,19.17145 -1.1228,14.06593 -4.33648,17.86173 -5.72479,28.46388 -0.75419,3.07707 -3.77377,28.47355 -5.80821,34.14431 -0.66186,17.26301 -2.60655,27.42193 -6.3307,38.05176 -0.48025,7.8997 -4.08047,32.47133 -8.44987,28.67392 3.25411,12.09885 -6.19856,16.61181 -6.01378,19.37724 -3.07082,9.90894 1.08744,20.63779 11.91822,14.85672 -0.22239,6.51855 8.86654,-11.59735 4.78223,-9.83639 4.06108,-10.02821 7.49836,-49.19318 11.54955,-40.58563 -5.27627,4.23128 -5.1593,17.48849 -2.6183,9.48628 -4.10227,10.36913 -0.70041,19.88343 -6.45528,27.66398 5.43554,7.46701 4.86325,-34.16569 16.10861,-32.83527 1.34642,14.11928 7.19439,-10.5181 -2.89031,-3.74692 2.31461,-10.51187 13.06897,5.09804 14.92627,-12.82297 5.45816,-21.02837 12.84129,-39.71643 22.52571,-59.15566 17.02366,-17.55995 -2.76382,11.37051 5.21716,15.47863 2.29724,13.52684 -7.3239,23.4617 0.36244,38.09483 6.39312,24.1717 32.55384,-42.09764 31.59937,-11.50247 -2.14562,13.10729 5.94346,20.0539 19.58889,19.53311 3.85251,10.83767 -24.87669,15.70082 -3.25648,12.66464 1.68804,8.64125 -47.44334,24.31574 -14.3684,21.48154 15.50439,-1.75015 19.27054,23.20111 6.96107,29.81648 14.16335,11.89215 14.41098,-14.49818 21.83473,-21.19446 16.27196,8.87241 -1.23049,17.01778 -6.14614,27.66533 -7.66886,8.44301 -23.0937,3.05643 -5.40984,8.23402 9.79228,2.35846 43.52396,-4.20127 38.62556,5.95696 -61.26763,-0.2958 -122.56853,0.73861 -183.80925,-0.77629 -2.35215,-19.71829 13.07498,-41.06083 21.23683,-59.29565 -0.5292,-13.32419 9.94919,-20.72053 10.35653,-20.35954 3.33281,-18.66295 -18.07327,11.26945 -18.71562,-9.96125 -11.19672,2.58844 -7.60351,14.66628 -20.6761,12.28633 10.76924,6.30722 -17.72822,2.64776 -11.84727,15.55497 -11.20197,11.2329 -8.89633,34.36345 -14.59489,51.71194 1.8403,17.87858 -15.18535,9.36828 -4.3268,-0.52137 -4.62367,-10.27121 10.07174,-37.87372 -7.70176,-39.81104 7.87851,6.82725 -13.97039,13.92327 -9.2846,26.52331 -3.7574,9.65559 -1.67429,33.02875 -15.91624,22.75012 -8.39401,4.71701 2.39897,-15.81799 -3.21642,-20.31319 9.97125,-14.49378 -20.41515,-9.23559 -3.86971,-20.97958 15.51646,-8.20851 -14.68325,-7.41466 -1.30758,-21.15832 2.40664,-9.24733 -10.20227,8.19248 -6.75616,-10.15045 1.70254,21.4225 -0.23835,43.77948 5.98802,64.54625 -5.78823,23.03156 -18.33687,-1.66538 -10.41838,-14.37078 0.86813,-17.30816 3.13556,-50.17363 -2.39229,-57.803 0.14288,7.10271 0.0225,18.79374 -8.35336,15.88371 12.60466,10.19188 3.13676,2.11318 7.84501,2.07251 4.82519,13.18839 -8.91197,12.81626 -12.93084,11.46605 0.31632,16.06125 -6.41537,-14.2169 3.7217,-11.37594 -11.33314,-3.63224 5.94591,-31.68023 8.07466,-45.07792 6.71648,-12.58533 5.08575,-39.72361 13.16286,-44.98078 -2.26273,9.28937 7.6901,29.32874 6.57469,16.80451 -18.23416,-14.46233 14.05348,-22.3485 5.0286,-35.51178 13.53784,-1.37493 -11.71839,-19.14209 7.00781,-21.65555 14.30242,-12.29815 -17.66261,-32.93201 -17.70955,-8.28462 -20.42468,9.9082 -30.304,35.56461 -44.04392,53.23347 -11.94076,12.08492 -0.45835,45.61398 -6.54209,49.08337 -6.7856,-2.20431 -9.23736,30.69298 -12.49117,41.83566 -7.47362,12.76502 1.38808,20.45569 -2.38975,28.97402 -8.96555,3.00771 -12.40509,-16.35761 -16.97532,-14.01673 -6.32484,-14.59732 -9.46622,16.43042 -6.36326,21.2858 -9.80821,-6.77144 -7.56998,14.20086 -15.102719,17.76152 10.753479,10.14229 -44.36756,4.11357 -22.9528,-1.73366 13.07411,-2.52422 -11.36184,-5.95731 -6.93765,6.02696 -2.32703,-3.27286 -9.50233,3.82005 -15.50101,-2.22811 z m 47.02475,-7.4349 c -2.55494,-3.58745 -2.55494,3.58745 0,0 z m -36.5,-4.5 c -7.56697,-9.421 -8.1435,9.49471 0,0 z m -4.77158,0.89509 c -0.0591,-5.84523 8.43192,1.29162 0,0 z m 20.10787,-2.9147 c -5.43499,-18.83017 -1.36272,15.44397 0,0 z m 234.663709,-2.39751 c -3.6259,-3.58162 -2.17751,4.2759 -5.72502,-3.67455 -4.76616,3.30049 3.86662,8.03637 5.72502,3.67455 z m -11.5,-1.08288 c -0.76583,-7.85552 -3.81826,2.14019 0,0 z m -200,-5.11803 c -2.510509,-2.45089 -1.900449,5.38173 0,0 z m 197.66228,-4.13197 c -1.73475,-0.32333 1.04987,6.68188 0,0 z m -219.677589,-2.5 c -2.75791,-10.83545 -2.60255,4.23756 0,0 z m 221.015309,-1.25 c -2.55494,-3.58745 -2.55494,3.58745 0,0 z M 98.542271,668.47939 c 10.426669,-3.72223 14.524299,-33.02237 22.401389,-17.46131 3.41116,-14.41296 10.08834,-22.81457 9.27661,-31.90839 9.12481,-9.06152 18.16707,-16.30479 12.63179,-35.0397 0.4844,-2.69518 -3.86676,21.33409 -2.49839,4.00895 7.72158,-15.0323 -15.63744,2.55993 -1.31327,-3.59373 -4.13136,15.11415 -16.39708,11.93103 -21.80051,27.27212 8.2807,-10.58194 11.36496,-9.21339 13.40671,-2.81843 4.12937,-9.99388 10.06229,-21.11005 4.94771,-2.39358 -6.2743,12.32404 -15.39938,19.381 -22.4745,20.7413 -8.13229,11.5027 -3.20411,42.04027 -22.899469,39.552 -12.71003,-4.33444 3.43369,9.59246 8.32193,1.64077 z m 11.730649,-28.28378 c -2.55424,-23.12596 17.04576,-1.80528 0.84919,2.52061 z m 5.94742,3.47622 c 3.89363,-9.4925 17.9224,-21.82768 5.04654,-4.16767 l -2.43303,2.53082 z m 3.81018,-9.24937 c 1.20581,-17.78827 7.31007,-5.96968 0,0 z m 11.35746,-33.5279 c 5.08655,-8.46276 -1.84814,9.38689 0,0 z m -24.16764,64.43302 c -2.12613,-7.54159 -2.45342,10.31677 0,0 z m 25.64422,-8.09887 c 0.78085,-16.17014 -7.70354,25.12351 0,0 z m 188.03889,6.5294 c -1.71452,-1.71931 0.86336,5.59056 0,0 z M 92.920581,660.54439 c 10.688839,-1.54837 13.439859,-21.06713 6.28197,-4.16797 -2.99581,-0.51887 -16.9163,11.33896 -6.28197,4.16797 z m 37.731059,-8.55233 c 4.68509,-10.96668 4.82458,-26.14125 -3.21578,-6.53945 -4.15424,6.47891 -1.42947,27.08643 3.21578,6.53945 z m -3.4313,1.45046 c 1.08662,-12.02604 8.4714,-15.64993 2.28799,-1.38714 0.61045,0.23129 -2.77553,4.83683 -2.28799,1.38714 z m 180,0.0621 c -1.91067,-3.55948 -2.68996,1.78064 0,0 z M 54.720341,649.94561 c 0.0437,-3.36259 -3.07003,3.33131 0,0 z m 132.306869,-1.52646 c -2.83009,1.93312 -1.18781,4.34968 0,0 z m 21.15795,0.5922 c 4.6956,-24.51165 -20.31577,8.04286 0,0 z m -5.76482,-0.26574 c -1.16687,-16.59485 12.0768,-0.21589 0,0 z m -28.20473,-3.51232 c -2.67658,-4.38255 2.33968,10.03273 0,0 z M 63.218031,640.44935 c 8.48006,-14.10662 -3.03696,-19.76226 -6.83147,-3.83953 -6.92503,10.88935 1.00149,14.90931 6.83147,3.83953 z m -3.99769,-6.0534 c 1.88662,-15.4649 10.78424,0.0337 0.5965,1.39105 z m 122.499999,9.54966 c -4.9582,-1.91936 0.23029,6.52269 0,0 z m -77.43613,-5.33613 c -2.48337,4.31378 -0.1621,11.5951 0.56526,1.63216 z m 204.93613,6.33613 c -2.74597,-3.73298 -0.90658,3.44919 0,0 z m 1,-3 c -2.55494,-3.58745 -2.55494,3.58745 0,0 z m 2,-6 c -2.74597,-3.73298 -0.90658,3.44919 0,0 z m 12.68311,-2.1875 c -1.71452,-1.71931 0.86336,5.59056 0,0 z m -118.17466,-4.70712 c -4.35044,-6.4739 2.48887,-23.85462 -5.71164,-6.79322 -0.059,5.09363 -5.20178,18.09838 5.71164,6.79322 z m 105.61362,2.21962 c -3.63535,-4.54267 2.41754,7.8491 0,0 z m 154.87793,-2.70837 c -9.75543,-17.2786 -6.38441,13.78968 0,0 z m -138.50708,0.39482 c -0.74575,-2.33903 -4.2321,3.66689 0,0 z M 111.05122,618.55237 c 12.83951,-8.36664 -3.65787,0.77118 -1.51357,-5.60676 -1.71029,10.11279 -12.612279,16.54749 1.51357,5.60676 z m 82.85845,-0.35676 c -1.55827,0.0628 0.92298,8.85011 0,0 z m 106.31067,1.63197 c -2.51051,-2.45089 -1.90045,5.38173 0,0 z m 32.66228,-2.13197 c -1.73475,-0.32333 1.04987,6.68188 0,0 z M 199.70155,611.3809 c 3.54071,-13.60625 0.21966,-23.2956 -2.44121,-3.55379 -2.40818,8.93641 1.04242,17.09339 2.44121,3.55379 z m 132.51879,4.2197 c -5.18084,-6.06114 -4.83728,-2.85818 0,0 z m -136.67093,-6.65499 c 0.0391,-13.43439 -2.2795,16.77344 0,0 z m 121.36392,0.26903 c -1.71598,-1.16273 1.24026,8.22228 0,0 z m 147.05176,-23.47155 c -0.92806,1.36654 0.074,30.11236 0.13857,8.12272 l -0.0344,-4.29318 -0.10446,-3.82954 z M 328.9276,602.70727 c -1.6739,-1.06749 1.32512,10.76238 0,0 z m -22.70726,-1.33121 c -4.38921,-5.29536 -7.5302,5.95678 0,0 z m -109.33772,-2.68045 c -1.73475,-0.32333 1.04987,6.68188 0,0 z m 133,-2 c -1.73475,-0.32333 1.04987,6.68188 0,0 z m -15.53246,-3.47444 c 21.05974,-15.64453 -47.47085,-14.00659 -16.99676,-7.6276 15.14113,-2.7672 1.69649,22.00933 16.99676,7.6276 z m -3.12982,-7.27556 c 2.16642,-4.14709 7.28221,5.253 0,0 z m 7.69299,8.26903 c -1.71598,-1.16273 1.24026,8.22228 0,0 z m -118.65098,-8.75022 c 3.13125,-8.80602 -1.85023,-31.7304 -1.31022,-10.18898 -0.1136,9.23332 -2.96076,33.07383 1.31022,10.18898 z m -72.91445,4.73119 c 3.08913,-4.50194 -5.58128,5.32311 0,0 z m -3.48867,-0.94741 c 7.187,-6.0451 17.29953,-11.24055 1.84874,-3.67723 -7.46635,3.25105 -11.25223,5.68637 -1.84874,3.67723 z m 7.48867,-2.05259 c 3.08913,-4.50194 -5.58128,5.32311 0,0 z m 189.55555,-5.4375 c -1.71452,-1.71931 0.86336,5.59056 0,0 z m 11.00622,-2.5625 c -1.55827,0.0628 0.92298,8.85011 0,0 z M 137.6019,576.39367 c 0.0829,-4.20925 -2.96714,4.98625 0,0 z m 6.30155,-1.63556 c -1.71452,-1.71931 0.86336,5.59056 0,0 z m 178.00622,-3.5625 c -1.55827,0.0628 0.92298,8.85011 0,0 z m -90.68933,2.75 c -8.49279,-3.50192 3.66257,3.81513 0,0 z m -90.36991,-3.25 c 5.45199,-12.46211 2.81667,-14.15689 -0.60316,-1 l -1.46139,4.13709 z m 9.95854,-11.25 c 8.26282,-9.7597 6.66386,-28.2622 -0.71397,-9.61201 -12.62563,19.24639 13.95728,-17.46298 1.89361,3.15884 -2.48604,7.2048 -12.22265,29.49803 -2.88661,10.79709 z m 183.09448,7.3125 c -1.71452,-1.71931 0.86336,5.59056 0,0 z m -11.02083,-2.0625 c -1.73475,-0.32333 1.04987,6.68188 0,0 z m -113.97917,-1.9375 c -1.71452,-1.71931 0.86336,5.59056 0,0 z m 126,-1 c -1.71452,-1.71931 0.86336,5.59056 0,0 z m -128.18311,0.1875 c 0.0437,-3.36259 -3.07003,3.33131 0,0 z m 117.18933,-3.75 c -1.55827,0.0628 0.92298,8.85011 0,0 z m -121.02705,-2.5 c -1.73475,-0.32333 1.04987,6.68188 0,0 z m 9.52801,-2.25 c 0.54258,-4.69209 -4.60973,11.58685 0,0 z m -72.97616,-2.812 c 9.48652,-10.6695 6.87244,-14.41233 -0.96413,-1.42705 -2.59447,2.15739 -7.81289,8.9197 -1.60448,3.53995 z m 68.00564,1.26797 c -2.21166,-13.05217 -4.269,10.66465 0,0 z m 15.05052,-17.04064 c 7.15763,-4.48586 29.0226,-16.69098 9.7805,-6.88201 -13.10509,2.69228 -27.94568,32.26613 -11.76954,8.56734 z m 115.39199,10.83467 c -1.73475,-0.32333 1.04987,6.68188 0,0 z m -96.29074,-7.286 c 15.82535,-2.91263 31.56594,-7.14018 47.27518,-15.72379 12.3936,-12.36503 41.94899,-13.71646 46.69703,-26.24021 -12.5756,-6.12766 -35.61437,22.77142 -56.34375,19.30252 -18.13875,5.02939 -37.75248,7.53396 -53.60048,19.01914 -18.76157,14.02823 10.56285,6.62893 15.97202,3.64234 z m -8.09332,-3.42064 c 6.60175,-7.01685 19.56855,1.40409 0,0 z m 17.72178,-6.84247 c 10.56032,-7.6611 8.66826,1.24139 0,0 z m 15.66667,-2.86756 c 4.17796,-8.71638 20.34114,-2.39192 3.79513,0.53538 l -2.27993,0.0949 z m 72.01644,15.47917 c -1.71452,-1.71931 0.86336,5.59056 0,0 z m -192,-5 c -1.71452,-1.71931 0.86336,5.59056 0,0 z m -59.575539,-9.92766 c 18.221049,-1.75423 25.820369,-28.90828 21.218959,-45.61406 -8.34019,8.12302 -15.807179,16.06237 -10.514829,22.01979 -0.67823,4.45909 -24.92265,32.26484 -10.70413,23.59427 z m 41.019989,1.36516 c 3.34509,-4.77429 -6.08469,5.89208 0,0 z m -52.127559,-1.05 c -7.42003,-13.85874 -7.26762,8.08496 0,0 z m 365.584099,-1.71199 c -10.74335,-10.56665 -20.57889,-34.51671 -30.60724,-38.53125 -1.36899,8.31585 -32.35652,-8.38083 -36.87234,-10.61783 4.64298,-11.28432 26.6711,-1.65763 10.51737,-10.93486 -4.67577,4.7561 -39.55315,26.3953 -11.77366,20.25825 21.80557,-0.65456 42.07555,13.30783 57.88657,27.36111 1.87175,0.66205 15.5976,23.36556 10.8493,12.46458 z m -23.91743,-29.15468 c -3.07085,-5.00114 3.95836,1.02045 0,0 z m -192.80047,27.41667 c -5.83341,-6.31039 -2.70338,7.09871 0,0 z m 6.86297,0.64583 c -3.68154,-1.13412 -1.83703,1.74158 0,0 z m 15.40517,-1.9653 c 30.29696,2.41403 38.31063,-26.29834 51.44379,-46.85077 7.0178,-9.68578 29.70639,-1.32858 7.08121,-6.02192 -15.37367,4.16261 -27.8053,48.27938 -30.95128,41.49199 8.78268,-6.41436 11.82209,-27.63001 -2.81625,-12.65104 -16.03699,6.87051 -28.55593,23.4119 -11.00245,20.14321 -2.78318,-1.69807 -25.65372,7.3696 -13.75502,3.88853 z m 19.86566,-5.93053 c 10.94492,-4.88038 -5.50834,4.81622 0,0 z m -12.5,-3.03869 c 7.11188,-6.69185 35.45424,-30.70429 22.65146,-6.51919 1.35514,6.81643 -32.34262,13.11844 -22.65146,6.51919 z m 88.16228,7.28869 c -1.73475,-0.32333 1.04987,6.68188 0,0 z m -230.53765,0.25 c 10.56599,-2.72757 17.08047,-24.30784 3.16046,-8.5609 -1.9887,1.53113 -13.27892,11.6234 -3.16046,8.5609 z m 231.53765,-7.25 c -1.73475,-0.32333 1.04987,6.68188 0,0 z M 165.85711,500.5147 c -1.39919,-8.23216 1.29857,-17.50152 -4.04291,-1.58078 -0.0635,5.88477 -12.15151,19.88266 -0.6655,7.36608 l 2.28152,-2.48442 2.42694,-3.30088 z m -23.63677,7.43091 c 2.45201,-7.09778 -4.75454,7.17619 0,0 z m 191.66228,-1.25 c -1.73475,-0.32333 1.04987,6.68188 0,0 z m -87.77231,-1.345 c 6.89825,-5.98791 -37.93667,-9.17765 -11.80077,-2.06042 2.72037,4.28167 8.10593,0.90746 11.80077,2.06042 z m 99.79314,-2.5925 c -1.71452,-1.71931 0.86336,5.59056 0,0 z m -187.18311,-3.8125 c 5.11579,-7.1523 -7.46262,7.27255 0,0 z m 188.20573,-10.25 c -1.42105,0.46209 0.81338,11.00836 0,0 z m 0.95655,-6 c -1.73475,-0.32333 1.04987,6.68188 0,0 z m -39.8516,-0.43234 c -6.39497,-13.69005 -9.32527,10.1055 0,0 z m -4.13479,0.28011 c 1.53023,-9.38751 6.29225,5.90067 0,0 z m -144.99278,-1.78527 c -1.71452,-1.71931 0.86336,5.59056 0,0 z m 178.97917,-2.0625 c -1.73475,-0.32333 1.04987,6.68188 0,0 z m 11.02705,-2.5 c -1.55827,0.0628 0.92298,8.85011 0,0 z m -200.77493,-0.25 c -2.66119,-0.24535 -1.49858,8.1817 0,0 z m 12.01531,-3.25 c -2.82041,-6.0067 -2.46001,12.84877 0,0 z m 190.6574,-8.96789 c 4.22634,-10.77844 16.7588,2.05577 5.66773,8.30472 9.52118,-1.44839 36.51283,-10.44549 12.37389,-7.80847 1.23305,-5.24351 -6.9534,-16.30502 -15.01646,-10.55652 -10.51627,-7.44803 -35.27725,20.12035 -17.44637,7.47371 -1.50003,20.13356 5.09106,-14.45781 13.54402,3.16267 -1.18627,11.05674 0.92758,8.34766 0.87719,-0.57611 z m -178.58711,3.15887 c -2.58775,-8.94887 -1.68358,9.85685 0,0 z m 150.49292,2.07047 c -0.74575,-2.33903 -4.2321,3.66689 0,0 z m -163.67979,-6.08917 c -2.07146,-12.75163 -3.16878,15.32639 0,0 z m -21.00626,-1.44874 c -2.83009,1.93312 -1.18781,4.34968 0,0 z m 80.93124,-0.72354 c 3.89995,-14.6826 12.06915,-5.42861 9.66247,-23.05159 3.23664,-14.96135 -6.64207,-27.92318 -15.6881,-10.00949 -14.21289,11.99305 5.67804,20.05545 0.64152,32.67058 -0.84167,3.8841 4.8713,2.79535 5.38411,0.3905 z m -53.23811,-7.84965 c -4.20515,-5.61187 -6.93596,6.80433 0,0 z m -9.57029,-5.20937 c -0.58006,-5.73802 -2.99124,9.52949 0,0 z m 8.05498,-10.60765 c -1.05669,-12.24862 -2.18437,17.48853 0,0 z m -2.89686,-8.81862 c 0.30891,-10.27156 6.02653,-5.77 4.79617,-7.94961 -3.33582,-25.89448 -12.20307,42.18588 -5.62947,12.20771 z m 3.6179,-2.51471 c -1.42105,0.46209 0.81338,11.00836 0,0 z m -16.04345,-4 c -1.73475,-0.32333 1.04987,6.68188 0,0 z m 2.69758,-12.9434 c 0.23875,-11.47181 -3.47193,21.7321 0,0 z m 53.3954,5.71444 c -9.95252,-16.40411 -3.28444,-5.34464 -0.12521,4.47896 z m 12.95861,1.33348 c 8.8256,-2.5823 -15.65483,-28.31429 -17.69509,-28.76703 7.80476,6.37102 4.53324,36.19033 17.69509,28.76703 z m -23.08514,-25.99599 c -5.13345,-9.28817 3.94241,15.34677 0,0 z m 36.37127,4.14146 c -8.75484,-3.59951 -2.40788,3.72089 0,0 z m 73,-175 c -7.6756,-7.23421 0.72179,6.52014 0,0 z M 104.40229,702.44561 c -5.604249,-10.11357 3.17823,-21.49634 11.6271,-20.29633 -6.40519,-9.20654 9.99529,-18.07804 13.88992,-5.19002 18.38308,-0.91594 -1.75039,-17.23473 8.11856,-27.87503 0.89094,-22.56707 18.16244,-40.04678 18.11945,-62.44972 -3.19469,-22.80288 4.49233,-42.69352 21.35999,-59.03178 8.14891,-4.57059 19.37488,-31.35936 25.70303,-8.51648 2.10118,7.30667 11.87192,34.93465 -2.26623,19.83176 -4.39043,-7.03391 -25.54898,-16.95826 -7.45794,-5.06176 12.33721,5.01635 10.02213,24.29686 5.73948,8.83936 -7.09328,-0.42867 -8.84351,-16.08024 -6.95794,1.75 4.26874,35.59705 -16.98722,67.59295 -21.44956,102.08736 0.59098,19.12212 7.07645,34.9245 8.63852,54.91264 -2.19429,7.97485 -22.6952,3.28034 -14.28488,-9.32197 3.45387,-4.56258 3.85538,-31.67932 3.18073,-46.58437 5.54401,-23.57647 7.50647,-48.00943 13.36577,-71.5687 10.86846,-17.12722 -27.53872,-38.28843 -23.44333,-10.02769 24.14525,3.32524 5.96673,34.7582 7.71851,52.11836 -6.81453,18.41104 0.60444,42.88663 -13.60339,57.95799 -2.12011,8.83351 8.37448,1.7522 3.28667,14.0533 8.2403,9.66259 -14.07808,-1.77532 0.35295,9.64601 -2.87004,13.14628 -20.46576,5.05674 -30.56476,7.2891 1.57251,-8.70926 -3.68085,-31.58387 -6.73093,-10.75137 2.04541,9.78002 -7.34533,15.12064 -14.34172,8.18934 z m 19.81805,-21.5 c -2.55998,-6.80117 -1.95519,6.58942 0,0 z m 18.92971,-15.75 c -1.12062,-6.38416 -1.89549,8.0556 0,0 z m 0.88851,-23.70908 c -1.88717,-17.01535 -4.87012,14.35129 0,0 z m 3.54341,-11.04092 c -2.84635,-4.84456 -0.20213,5.00453 0,0 z m -1.67852,-4.6875 c -1.71452,-1.71931 0.86336,5.59056 0,0 z m 15.66623,-49.34453 c -3.05031,-4.3486 -0.0707,6.19075 0,0 z m 23.65066,-17.23977 c -3.29295,-9.473 -24.7093,-18.95595 -6.88567,-5.38335 1.464,-1.06698 5.9286,8.5154 6.88567,5.38335 z m 13,-19.7282 c -7.27892,-5.45253 3.40005,4.99931 0,0 z m 35.5,164.5 c 5.41308,-3.77609 1.09145,4.08885 0,0 z m 19.5,-1.3253 c 6.84556,-11.93103 2.12836,-6.12874 7.7475,-22.23634 9.10072,-2.517 7.76376,31.25148 -6.99124,24.27055 l -0.63587,-0.69057 z m 59.64577,-22.43884 c -0.20936,-5.61753 8.45997,-12.0914 0,0 z m -134.04715,-2.72039 c -1.47239,-19.60705 19.362,-6.55932 4.93604,2.17936 l -2.82472,-0.55567 -2.11132,-1.62371 z m 122.40138,-2.07449 c 1.00033,-7.77986 12.86414,-18.69841 7.24523,-2.20047 -1.2891,16.59738 11.90356,-16.32898 2.23556,5.29074 -4.86368,-6.42065 -4.76207,-4.46606 -9.25829,0.0804 z m 1.68311,-1.62848 c -1.71452,-1.71931 0.86336,5.59056 0,0 z M 116.19053,670.0013 c 6.58881,-9.84589 -1.1436,6.8235 0,0 z m 308.02981,-2.05569 c 2.55494,-3.58745 2.55494,3.58745 0,0 z m -260.27109,-8.65775 c 3.96055,-23.42717 0.12101,19.98467 0,0 z m 152.8443,4.65775 c 4.81011,-12.54896 -0.65184,5.91807 0,0 z m 127.55726,0.2786 c -9.66405,-11.69718 10.00537,-19.0893 4.96846,-5.34097 -3.7641,1.34165 1.67296,8.93515 -4.96846,5.34097 z m -265.34168,-1.82315 c 2.42114,-13.0476 20.00673,-2.22837 0,0 z m 141.46339,-11.95545 c 0.36038,-7.60928 0.94664,7.95459 0,0 z m -144.7451,1.51145 c 0.74575,-2.33903 4.2321,3.66689 0,0 z m 134.65081,-3.01145 c 0.74983,-5.5286 0.74983,5.5286 0,0 z m 136.84211,-3.44098 c 2.45963,-8.58046 1.69861,6.88111 0,0 z m -22.26695,0.64489 c -7.8889,-4.1286 10.27162,-0.26416 0,0 z m 17.26695,-0.70391 c 4.03878,-6.04498 3.53498,5.84009 0,0 z m -121.34375,-4 c 3.08488,-14.84028 -0.75387,10.72377 0,0 z m -155.65625,1.05902 c 2.36938,-5.48665 2.4281,4.15114 0,0 z m 10,0.0634 c 6.76599,-7.88789 1.48585,1.06164 0,0 z m 146.17471,-10.75581 c 9.24425,-26.50102 -2.47236,16.88203 0,0 z m -6.01682,0.13339 c 0.74983,-5.5286 0.74983,5.5286 0,0 z m -146.07987,-3.5 c 3.91579,-15.3566 0.68285,-39.96154 6.32634,-50.54876 0.36428,16.24701 -0.98141,37.07626 -6.32634,50.54876 z m 147.11693,-3 c 0.44973,-5.70268 0.96884,6.17479 0,0 z m -24.19495,-9.5 c 2.55494,-3.58745 2.55494,3.58745 0,0 z m 27.25218,-4.5 c 0.36038,-7.60928 0.94664,7.95459 0,0 z m 5.97982,-7.5 c 0.55491,-6.82673 0.55491,6.82673 0,0 z m -5.03705,-1.5 c 0.44973,-5.70268 0.96884,6.17479 0,0 z m 1,-6 c 0.44973,-5.70268 0.96884,6.17479 0,0 z m 4.884,0.91667 c 0.64328,-3.85396 1.01442,4.55158 0,0 z m 11.51844,-4.87093 c -15.71798,-10.56653 28.50413,3.56612 4.04696,1.45538 z m 128.48156,0.87093 c 0.64328,-3.85396 1.01442,4.55158 0,0 z m -28.41228,-3.08334 c -0.64102,-11.23719 -22.73552,-40.029 2.54467,-23.81791 14.27684,5.18191 10.77462,24.63213 -2.54467,23.81791 z m -30.66667,-2.33333 c 2.55494,-3.58745 2.55494,3.58745 0,0 z m -78.80505,-7.5 c 0.44973,-5.70268 0.96884,6.17479 0,0 z m -176.50034,-3.13872 c -3.84122,-10.67072 6.04671,-4.42155 0,0 z m 172.53739,-4.36128 c 0.55491,-6.82673 0.55491,6.82673 0,0 z m -151.64426,-5.19345 c -10.75499,-8.11852 -11.80878,-28.3324 3.96029,-11.13116 9.06781,2.17498 2.46295,18.65301 -3.96029,11.13116 z m 157.49121,-0.38988 c 0.64328,-3.85396 1.01442,4.55158 0,0 z m -5,-1 c 0.64328,-3.85396 1.01442,4.55158 0,0 z m 1.07894,-5.41667 c 0.74983,-5.5286 0.74983,5.5286 0,0 z m -166.15789,-1.44098 c 2.36938,-5.48665 2.4281,4.15114 0,0 z m 169.15789,-13.55902 c 0.74983,-5.5286 0.74983,5.5286 0,0 z m 5.92106,-5.58333 c 0.64328,-3.85396 1.01442,4.55158 0,0 z m 0,-27 c 0.64328,-3.85396 1.01442,4.55158 0,0 z m 4.15305,-26.41667 c 0.55491,-6.82673 0.55491,6.82673 0,0 z m 4.84695,-3.58333 c 0.64328,-3.85396 1.01442,4.55158 0,0 z m -2.884,-8.91667 c 0.44973,-5.70268 0.96884,6.17479 0,0 z m -55.69495,-3.5 c -17.05175,-3.1391 20.5523,-9.8829 14.36953,-24.39143 11.18557,-8.22976 -0.47544,-44.85301 11.62956,-17.74239 20.23981,3.40442 -10.50758,29.39584 -15.01118,40.21094 -2.39436,3.5425 -7.49697,3.61568 -10.98791,1.92288 z m 55.65789,-2 c 0.74983,-5.5286 0.74983,5.5286 0,0 z m 52.71455,-4.75 c -3.34509,-4.77429 6.08469,5.89208 0,0 z m -69.87244,-7.97889 c 7.56333,-6.61237 1.5054,3.65016 0,0 z m -8.56951,-2.38358 c 2.24015,-5.82867 7.91587,4.7668 0,0 z M 112.2404,437.42144 c 5.33945,-3.72833 -2.35966,4.6636 0,0 z m 242.72994,0.86189 c 6.22279,-0.992 0.0776,1.73023 0,0 z m -33.6644,-1.83772 c 0.60311,-6.26275 3.42821,-2.99313 0.24592,0.26562 z m -2.5856,-9.74437 c -19.32886,-11.61414 -10.16927,-37.02883 -5.4129,-54.24227 1.57499,-21.70582 22.80627,-27.03035 21.93224,-49.83282 -1.83383,-14.16999 -11.43569,29.92998 -11.31069,4.90408 9.69253,-7.53257 1.91735,-40.35382 10.54135,-37.31882 11.2669,21.6131 3.35436,46.35099 -5.47713,67.38749 -4.91434,22.04479 -19.86498,47.23207 -7.96719,69.12393 6.37658,7.48592 -2.04362,0.80364 -2.30568,-0.0216 z m -6.5,-21.75564 c -2.55494,-3.58745 -2.55494,3.58746 0,0 z m 4.13349,-8.75 c 0.71334,-7.77959 14.27612,-44.79336 1.46447,-21.36718 -3.18021,1.75643 -9.4548,30.38685 -1.46447,21.36718 z m 4.86651,25.75001 c 2.55494,-3.58745 2.55494,3.58745 0,0 z m -20.65492,-1.54313 c -0.71042,-6.91943 5.51424,5.40725 4e-5,0 z m -178.79205,-2.37106 c -1.14202,-10.5293 11.58892,-1.62715 0,0 z m 182.15722,-8.08581 c 0.67526,-7.50018 2.29793,7.22933 0,0 z m -9.28018,-3.50001 c -15.39629,-4.53735 16.11061,-37.13669 7.27133,-9.75611 -4.19333,2.9028 2.3604,20.58037 -7.27133,9.75611 z m -168.91999,-1.51631 c 3.94468,-2.24072 2.0495,3.71837 0,0 z m 104.98992,-26.79268 c -13.43842,-4.42126 23.9534,-3.47099 0,0 z m 72.95231,-5.31526 c 5.91671,-7.9338 2.20975,-36.73913 14.86555,-29.92698 -3.29118,9.26768 -10.20905,27.01885 -14.86555,29.92698 z M 161.39875,361.6956 c 8.47922,-46.87116 3.18291,28.52227 0,0 z m 87.48826,0.58333 c -1.75051,-6.26268 5.87792,1.85453 0,0 z m -114.66667,-8.1455 c 4.42514,-20.54143 17.76821,2.0212 0,0 z m 5.3184,-11.67388 c -11.13319,-11.89492 21.2039,-35.14163 5.06558,-8.59984 -10.38727,7.66653 9.22149,5.54215 -3.22673,9.58538 z m 104.6816,-15.51395 c -16.73585,-17.91675 47.66763,-8.88611 17.94565,-0.36683 -9.68957,-1.93624 -9.22439,-7.01012 -17.94565,0.36683 z m -8.75,-11.66454 c -2.46498,-13.13008 39.1033,-7.12908 9.34754,-1.09774 -3.02145,0.61704 -6.21196,1.85186 -9.34754,1.09774 z m 86.72204,-3.35968 c -5.50234,-9.28914 11.34347,4.10967 0,0 z M 185.73641,297.9456 c 4.22822,-20.52237 1.09094,17.17072 0,0 z m 124.29469,1.43363 c 4.76482,-9.73411 -17.57899,-42.05914 3.07072,-25.92295 11.88753,10.8128 -4.29869,14.87288 -3.07072,25.92295 z M 187.63888,270.7434 c -10.23105,-11.24207 15.81849,-35.89902 13.90365,-21.75017 -5.77154,3.01264 -8.81651,28.82208 -13.90365,21.75017 z m 127.13493,-2.71127 c -13.19451,-10.69065 -32.93944,-22.7313 -41.46869,-33.02508 17.90236,1.83737 37.16017,21.34604 41.46869,33.02508 z M 202.69188,236.89955 c 6.56697,-7.60953 23.79324,-2.25419 5.45545,0.35555 l -3.55672,0.2303 z m 94.02846,-11.95395 c -0.0839,-3.83135 4.57326,4.03538 0,0 z"
     id="path29"
     inkscape:connector-curvature="0" />
</svg>
