<?xml version="1.0"?>
<!DOCTYPE svg PUBLIC "-//W3C//DTD SVG 1.1//EN" "http://www.w3.org/Graphics/SVG/1.1/DTD/svg11.dtd">
<svg width="8.721248880000001mm" height="2.3810048800000088mm" viewBox="0 0 8.721248880000001 2.3810048800000088" xmlns="http://www.w3.org/2000/svg" version="1.1">
<g id="Body" transform="translate(-6.029051,-5.854488) scale(1,-1)">
<path id="Body_f0000"  d="M 11.289675135886728 -6.279990787109369 L 11.289675135886728 -6.279990787109369 L 11.842114135886728 -6.279990787109369 L 11.842114135886728 -6.279990787109369 L 11.289675135886728 -6.279990787109369 Z " stroke="#191919" stroke-width="0.35 px" style="stroke-width:0.35;stroke-miterlimit:4;stroke-dasharray:none;fill:#cccccc;fill-opacity:1.0;fill-rule: evenodd "/>
<path id="Body_f0001"  d="M 11.842114135886728 -6.279990787109369 L 11.842114135886728 -6.279990787109369 L 11.842114135886728 -6.619990787109373 L 11.842114135886728 -6.619990787109373 L 11.842114135886728 -6.279990787109369 Z " stroke="#191919" stroke-width="0.35 px" style="stroke-width:0.35;stroke-miterlimit:4;stroke-dasharray:none;fill:#cccccc;fill-opacity:1.0;fill-rule: evenodd "/>
<path id="Body_f0002"  d="M 11.842114135886728 -6.619990787109373 L 11.842114135886728 -6.619990787109373 L 12.40967513588673 -6.619990787109373 L 12.40967513588673 -6.619990787109373 L 11.842114135886728 -6.619990787109373 Z " stroke="#191919" stroke-width="0.35 px" style="stroke-width:0.35;stroke-miterlimit:4;stroke-dasharray:none;fill:#cccccc;fill-opacity:1.0;fill-rule: evenodd "/>
<path id="Body_f0003"  d="M 12.40967513588673 -6.619990787109373 L 12.40967513588673 -6.619990787109373 L 12.40967513588673 -6.959990787109376 L 12.40967513588673 -6.959990787109376 L 12.40967513588673 -6.619990787109373 Z " stroke="#191919" stroke-width="0.35 px" style="stroke-width:0.35;stroke-miterlimit:4;stroke-dasharray:none;fill:#cccccc;fill-opacity:1.0;fill-rule: evenodd "/>
<path id="Body_f0004"  d="M 12.40967513588673 -6.959990787109376 L 12.40967513588673 -6.959990787109376 L 12.969675135886728 -6.959990787109376 L 12.969675135886728 -6.959990787109376 L 12.40967513588673 -6.959990787109376 Z " stroke="#191919" stroke-width="0.35 px" style="stroke-width:0.35;stroke-miterlimit:4;stroke-dasharray:none;fill:#cccccc;fill-opacity:1.0;fill-rule: evenodd "/>
<path id="Body_f0005"  d="M 12.969675135886728 -6.959990787109376 L 12.969675135886728 -6.959990787109376 L 12.969675135886728 -7.29999078710938 L 12.969675135886728 -7.29999078710938 L 12.969675135886728 -6.959990787109376 Z " stroke="#191919" stroke-width="0.35 px" style="stroke-width:0.35;stroke-miterlimit:4;stroke-dasharray:none;fill:#cccccc;fill-opacity:1.0;fill-rule: evenodd "/>
<path id="Body_f0006"  d="M 12.969675135886728 -7.29999078710938 L 12.969675135886728 -7.29999078710938 L 13.53723613588673 -7.29999078710938 L 13.53723613588673 -7.29999078710938 L 12.969675135886728 -7.29999078710938 Z " stroke="#191919" stroke-width="0.35 px" style="stroke-width:0.35;stroke-miterlimit:4;stroke-dasharray:none;fill:#cccccc;fill-opacity:1.0;fill-rule: evenodd "/>
<path id="Body_f0007"  d="M 13.53723613588673 -7.29999078710938 L 13.53723613588673 -7.29999078710938 L 13.53723613588673 -7.639990787109383 L 13.53723613588673 -7.639990787109383 L 13.53723613588673 -7.29999078710938 Z " stroke="#191919" stroke-width="0.35 px" style="stroke-width:0.35;stroke-miterlimit:4;stroke-dasharray:none;fill:#cccccc;fill-opacity:1.0;fill-rule: evenodd "/>
<path id="Body_f0008"  d="M 13.53723613588673 -7.639990787109383 L 13.53723613588673 -7.639990787109383 L 14.097236135886728 -7.639990787109383 L 14.097236135886728 -7.639990787109383 L 13.53723613588673 -7.639990787109383 Z " stroke="#191919" stroke-width="0.35 px" style="stroke-width:0.35;stroke-miterlimit:4;stroke-dasharray:none;fill:#cccccc;fill-opacity:1.0;fill-rule: evenodd "/>
<path id="Body_f0009"  d="M 14.097236135886728 -7.639990787109383 L 14.097236135886728 -7.639990787109383 L 14.097236135886728 -7.979990787109358 L 14.097236135886728 -7.979990787109358 L 14.097236135886728 -7.639990787109383 Z " stroke="#191919" stroke-width="0.35 px" style="stroke-width:0.35;stroke-miterlimit:4;stroke-dasharray:none;fill:#cccccc;fill-opacity:1.0;fill-rule: evenodd "/>
<path id="Body_f0010"  d="M 14.097236135886728 -7.979990787109358 L 14.097236135886728 -7.979990787109358 L 14.66479713588673 -7.979990787109358 L 14.66479713588673 -7.979990787109358 L 14.097236135886728 -7.979990787109358 Z " stroke="#191919" stroke-width="0.35 px" style="stroke-width:0.35;stroke-miterlimit:4;stroke-dasharray:none;fill:#cccccc;fill-opacity:1.0;fill-rule: evenodd "/>
<path id="Body_f0011"  d="M 14.66479713588673 -7.979990787109358 L 14.66479713588673 -7.979990787109358 L 14.66479713588673 -8.149990787109374 L 14.66479713588673 -8.149990787109374 L 14.66479713588673 -7.979990787109358 Z " stroke="#191919" stroke-width="0.35 px" style="stroke-width:0.35;stroke-miterlimit:4;stroke-dasharray:none;fill:#cccccc;fill-opacity:1.0;fill-rule: evenodd "/>
<path id="Body_f0012"  d="M 14.66479713588673 -8.149990787109374 L 14.66479713588673 -8.149990787109374 L 6.11455313588673 -8.149990787109374 L 6.11455313588673 -8.149990787109374 L 14.66479713588673 -8.149990787109374 Z " stroke="#191919" stroke-width="0.35 px" style="stroke-width:0.35;stroke-miterlimit:4;stroke-dasharray:none;fill:#cccccc;fill-opacity:1.0;fill-rule: evenodd "/>
<path id="Body_f0013"  d="M 6.11455313588673 -8.149990787109374 L 6.11455313588673 -8.149990787109374 L 6.11455313588673 -7.979990787109358 L 6.11455313588673 -7.979990787109358 L 6.11455313588673 -8.149990787109374 Z " stroke="#191919" stroke-width="0.35 px" style="stroke-width:0.35;stroke-miterlimit:4;stroke-dasharray:none;fill:#cccccc;fill-opacity:1.0;fill-rule: evenodd "/>
<path id="Body_f0014"  d="M 6.11455313588673 -7.979990787109358 L 6.11455313588673 -7.979990787109358 L 6.682114135886728 -7.979990787109358 L 6.682114135886728 -7.979990787109358 L 6.11455313588673 -7.979990787109358 Z " stroke="#191919" stroke-width="0.35 px" style="stroke-width:0.35;stroke-miterlimit:4;stroke-dasharray:none;fill:#cccccc;fill-opacity:1.0;fill-rule: evenodd "/>
<path id="Body_f0015"  d="M 6.682114135886728 -7.979990787109358 L 6.682114135886728 -7.979990787109358 L 6.682114135886728 -7.639990787109383 L 6.682114135886728 -7.639990787109383 L 6.682114135886728 -7.979990787109358 Z " stroke="#191919" stroke-width="0.35 px" style="stroke-width:0.35;stroke-miterlimit:4;stroke-dasharray:none;fill:#cccccc;fill-opacity:1.0;fill-rule: evenodd "/>
<path id="Body_f0016"  d="M 6.682114135886728 -7.639990787109383 L 6.682114135886728 -7.639990787109383 L 7.24211413588673 -7.639990787109383 L 7.24211413588673 -7.639990787109383 L 6.682114135886728 -7.639990787109383 Z " stroke="#191919" stroke-width="0.35 px" style="stroke-width:0.35;stroke-miterlimit:4;stroke-dasharray:none;fill:#cccccc;fill-opacity:1.0;fill-rule: evenodd "/>
<path id="Body_f0017"  d="M 7.24211413588673 -7.639990787109383 L 7.24211413588673 -7.639990787109383 L 7.24211413588673 -7.29999078710938 L 7.24211413588673 -7.29999078710938 L 7.24211413588673 -7.639990787109383 Z " stroke="#191919" stroke-width="0.35 px" style="stroke-width:0.35;stroke-miterlimit:4;stroke-dasharray:none;fill:#cccccc;fill-opacity:1.0;fill-rule: evenodd "/>
<path id="Body_f0018"  d="M 7.24211413588673 -7.29999078710938 L 7.24211413588673 -7.29999078710938 L 7.809675135886728 -7.29999078710938 L 7.809675135886728 -7.29999078710938 L 7.24211413588673 -7.29999078710938 Z " stroke="#191919" stroke-width="0.35 px" style="stroke-width:0.35;stroke-miterlimit:4;stroke-dasharray:none;fill:#cccccc;fill-opacity:1.0;fill-rule: evenodd "/>
<path id="Body_f0019"  d="M 7.809675135886728 -7.29999078710938 L 7.809675135886728 -7.29999078710938 L 7.809675135886728 -6.959990787109376 L 7.809675135886728 -6.959990787109376 L 7.809675135886728 -7.29999078710938 Z " stroke="#191919" stroke-width="0.35 px" style="stroke-width:0.35;stroke-miterlimit:4;stroke-dasharray:none;fill:#cccccc;fill-opacity:1.0;fill-rule: evenodd "/>
<path id="Body_f0020"  d="M 7.809675135886728 -6.959990787109376 L 7.809675135886728 -6.959990787109376 L 8.36967513588673 -6.959990787109376 L 8.36967513588673 -6.959990787109376 L 7.809675135886728 -6.959990787109376 Z " stroke="#191919" stroke-width="0.35 px" style="stroke-width:0.35;stroke-miterlimit:4;stroke-dasharray:none;fill:#cccccc;fill-opacity:1.0;fill-rule: evenodd "/>
<path id="Body_f0021"  d="M 8.36967513588673 -6.959990787109376 L 8.36967513588673 -6.959990787109376 L 8.36967513588673 -6.619990787109373 L 8.36967513588673 -6.619990787109373 L 8.36967513588673 -6.959990787109376 Z " stroke="#191919" stroke-width="0.35 px" style="stroke-width:0.35;stroke-miterlimit:4;stroke-dasharray:none;fill:#cccccc;fill-opacity:1.0;fill-rule: evenodd "/>
<path id="Body_f0022"  d="M 8.36967513588673 -6.619990787109373 L 8.36967513588673 -6.619990787109373 L 8.937236135886728 -6.619990787109373 L 8.937236135886728 -6.619990787109373 L 8.36967513588673 -6.619990787109373 Z " stroke="#191919" stroke-width="0.35 px" style="stroke-width:0.35;stroke-miterlimit:4;stroke-dasharray:none;fill:#cccccc;fill-opacity:1.0;fill-rule: evenodd "/>
<path id="Body_f0023"  d="M 8.937236135886728 -6.619990787109373 L 8.937236135886728 -6.619990787109373 L 8.937236135886728 -6.279990787109369 L 8.937236135886728 -6.279990787109369 L 8.937236135886728 -6.619990787109373 Z " stroke="#191919" stroke-width="0.35 px" style="stroke-width:0.35;stroke-miterlimit:4;stroke-dasharray:none;fill:#cccccc;fill-opacity:1.0;fill-rule: evenodd "/>
<path id="Body_f0024"  d="M 8.937236135886728 -6.279990787109369 L 8.937236135886728 -6.279990787109369 L 9.489675135886728 -6.279990787109369 L 9.489675135886728 -6.279990787109369 L 8.937236135886728 -6.279990787109369 Z " stroke="#191919" stroke-width="0.35 px" style="stroke-width:0.35;stroke-miterlimit:4;stroke-dasharray:none;fill:#cccccc;fill-opacity:1.0;fill-rule: evenodd "/>
<path id="Body_f0025"  d="M 9.489675135886728 -6.279990787109369 L 9.489675135886728 -6.279990787109369 L 9.489675135886728 -5.939990787109366 L 9.489675135886728 -5.939990787109366 L 9.489675135886728 -6.279990787109369 Z " stroke="#191919" stroke-width="0.35 px" style="stroke-width:0.35;stroke-miterlimit:4;stroke-dasharray:none;fill:#cccccc;fill-opacity:1.0;fill-rule: evenodd "/>
<path id="Body_f0026"  d="M 9.489675135886728 -5.939990787109366 L 9.489675135886728 -5.939990787109366 L 11.289675135886728 -5.939990787109366 L 11.289675135886728 -5.939990787109366 L 9.489675135886728 -5.939990787109366 Z " stroke="#191919" stroke-width="0.35 px" style="stroke-width:0.35;stroke-miterlimit:4;stroke-dasharray:none;fill:#cccccc;fill-opacity:1.0;fill-rule: evenodd "/>
<path id="Body_f0027"  d="M 11.289675135886728 -5.939990787109366 L 11.289675135886728 -5.939990787109366 L 11.289675135886728 -6.279990787109369 L 11.289675135886728 -6.279990787109369 L 11.289675135886728 -5.939990787109366 Z " stroke="#191919" stroke-width="0.35 px" style="stroke-width:0.35;stroke-miterlimit:4;stroke-dasharray:none;fill:#cccccc;fill-opacity:1.0;fill-rule: evenodd "/>
<path id="Body_f0028"  d="M 11.289675135886728 -6.279990787109369 L 11.842114135886728 -6.279990787109369 L 11.842114135886728 -6.619990787109373 L 12.40967513588673 -6.619990787109373 L 12.40967513588673 -6.959990787109376 L 12.969675135886728 -6.959990787109376 L 12.969675135886728 -7.29999078710938 L 13.53723613588673 -7.29999078710938 L 13.53723613588673 -7.639990787109383 L 14.097236135886728 -7.639990787109383 L 14.097236135886728 -7.979990787109358 L 14.66479713588673 -7.979990787109358 L 14.66479713588673 -8.149990787109374 L 6.11455313588673 -8.149990787109374 L 6.11455313588673 -7.979990787109358 L 6.682114135886728 -7.979990787109358 L 6.682114135886728 -7.639990787109383 L 7.24211413588673 -7.639990787109383 L 7.24211413588673 -7.29999078710938 L 7.809675135886728 -7.29999078710938 L 7.809675135886728 -6.959990787109376 L 8.36967513588673 -6.959990787109376 L 8.36967513588673 -6.619990787109373 L 8.937236135886728 -6.619990787109373 L 8.937236135886728 -6.279990787109369 L 9.489675135886728 -6.279990787109369 L 9.489675135886728 -5.939990787109366 L 11.289675135886728 -5.939990787109366 L 11.289675135886728 -6.279990787109369 Z " stroke="#191919" stroke-width="0.35 px" style="stroke-width:0.35;stroke-miterlimit:4;stroke-dasharray:none;fill:#cccccc;fill-opacity:1.0;fill-rule: evenodd "/>
<path id="Body_f0029"  d="M 11.842114135886728 -6.279990787109369 L 11.842114135886728 -6.619990787109373 L 12.40967513588673 -6.619990787109373 L 12.40967513588673 -6.959990787109376 L 12.969675135886728 -6.959990787109376 L 12.969675135886728 -7.29999078710938 L 13.53723613588673 -7.29999078710938 L 13.53723613588673 -7.639990787109383 L 14.097236135886728 -7.639990787109383 L 14.097236135886728 -7.979990787109358 L 14.66479713588673 -7.979990787109358 L 14.66479713588673 -8.149990787109374 L 6.11455313588673 -8.149990787109374 L 6.11455313588673 -7.979990787109358 L 6.682114135886728 -7.979990787109358 L 6.682114135886728 -7.639990787109383 L 7.24211413588673 -7.639990787109383 L 7.24211413588673 -7.29999078710938 L 7.809675135886728 -7.29999078710938 L 7.809675135886728 -6.959990787109376 L 8.36967513588673 -6.959990787109376 L 8.36967513588673 -6.619990787109373 L 8.937236135886728 -6.619990787109373 L 8.937236135886728 -6.279990787109369 L 9.489675135886728 -6.279990787109369 L 9.489675135886728 -5.939990787109366 L 11.289675135886728 -5.939990787109366 L 11.289675135886728 -6.279990787109369 L 11.842114135886728 -6.279990787109369 Z " stroke="#191919" stroke-width="0.35 px" style="stroke-width:0.35;stroke-miterlimit:4;stroke-dasharray:none;fill:#cccccc;fill-opacity:1.0;fill-rule: evenodd "/>
<title>b'Body'</title>
</g>
</svg>